<svg id="peace_5" data-name="peace 5" xmlns="http://www.w3.org/2000/svg" width="8.014in" height="8.014in" viewBox="0 0 577 577"><defs><style>.cls-1,.cls-2{fill:none;stroke-miterlimit:10;}.cls-1{stroke:blue;}.cls-2{stroke:red;}</style></defs><title>alien-love-worm-v1-layer-5</title><path class="cls-1" d="M64.1,248.145c11.7-6.875,22.1-5.661,28.856-3.361a36.158,36.158,0,0,1,7.144,3.361,34.785,34.785,0,0,1,20.124-5.1A34.819,34.819,0,0,1,105.37,228.58a36.079,36.079,0,0,1-7.822-.653c-7.01-1.379-16.642-5.522-23.355-17.347a36.079,36.079,0,0,1-7.822-.653,34.53,34.53,0,0,1-4.134-1.084c.618,1.436,1.246,2.979,1.9,4.675,2.794,7.288,7.646,15.985,8.459,16.719.941.85.165.072-3.256,1.8A65.265,65.265,0,0,0,61.1,237.55c-3.972,3.1-6.266,4.871-8.028,6.165a34.434,34.434,0,0,1,3.889,1.069A36.158,36.158,0,0,1,64.1,248.145Z" transform="translate(0.5 0.5)"/><path class="cls-1" d="M174.584,401.425c.95-.641,1.931-1.249,2.952-1.807,0-.406.017-.793.026-1.191-.387.008-.764.028-1.16.026C175.841,399.481,175.229,400.468,174.584,401.425Z" transform="translate(0.5 0.5)"/><path class="cls-1" d="M140.749,422.9c-4.7,5.381-13.1,11.651-26.7,11.553a36.067,36.067,0,0,1-4.477,6.447,34.506,34.506,0,0,1-3.006,3.038c1.553.183,3.2.411,5,.694,7.709,1.224,17.667,1.372,18.71,1.034,1.205-.389.144-.107-.074,3.718a65.285,65.285,0,0,0,.66,9.893c.695,4.988,1.085,7.862,1.324,10.035a34.607,34.607,0,0,1,2.871-2.834,36.218,36.218,0,0,1,6.482-4.506c-.1-13.573,6.149-21.97,11.518-26.671a36.218,36.218,0,0,1,6.482-4.506,34.788,34.788,0,0,1,5.647-19.977,34.819,34.819,0,0,1-19.957,5.635A36.067,36.067,0,0,1,140.749,422.9Z" transform="translate(0.5 0.5)"/><path class="cls-1" d="M174.575,174.584c.641.95,1.249,1.931,1.807,2.952.406,0,.793.017,1.191.026-.008-.387-.028-.764-.026-1.16C176.519,175.841,175.531,175.229,174.575,174.584Z" transform="translate(0.5 0.5)"/><path class="cls-1" d="M282.1,281.209a4,4,0,0,1-2.534-.872,3.683,3.683,0,0,1-1.29-1.989,1.348,1.348,0,0,1,.78-1.716c.12,1.212.826,1.475,1.221,1.255.426-.195.677-.922.037-2a1.723,1.723,0,0,0-1.078-.786,2.552,2.552,0,0,0-1.676.174,4.39,4.39,0,0,0-1.009.645c-.358.328-.778.7-1.189,1.121-.379.445-.822.874-1.213,1.319a12.143,12.143,0,0,1-1.2,1.2c-1.29,1.073-2.721,2.559-3.646,1.791-.576-.5-.031-2.071-.9-1.891a2.76,2.76,0,0,1,.2,1.774,28.229,28.229,0,0,0-2.588,3.029v0c-.035.208-.073.416-.1.625-.088.611-.144,1.225-.18,1.842a1.894,1.894,0,0,0,.608.615c.727.471,2.138-.133,2.96.271a6.035,6.035,0,0,1,1.822,1.472,7.687,7.687,0,0,1,1.241,1.751,3.02,3.02,0,0,1,.283.976,3.519,3.519,0,0,1,.065.976,4.906,4.906,0,0,1-.507,1.821c-.583,1.055-1.656,1.737-3.11.472-.015-.4,1.089.288.709-.449a1.915,1.915,0,0,0-3.178-.3,22.426,22.426,0,0,0,1.9,4.541,4.569,4.569,0,0,1,.464.786c0,.007.007.021.011.029.119.194.244.383.369.573L283.5,286.136v-5.321a1.664,1.664,0,0,1-.381.207A3.376,3.376,0,0,1,282.1,281.209Z" transform="translate(0.5 0.5)"/><path class="cls-1" d="M280.634,305.1a1.137,1.137,0,0,0-.278,1.3,2.164,2.164,0,0,0,1.91.971,2.25,2.25,0,0,1-1.825.315,4.23,4.23,0,0,1-1.91-.945,5.015,5.015,0,0,1-1.323-1.579l-1.473,1.473a22.478,22.478,0,0,0,6.352,2.879,2.426,2.426,0,0,0,1.413-.327v-4.2a2.392,2.392,0,0,0-1.426-.5A1.948,1.948,0,0,0,280.634,305.1Z" transform="translate(0.5 0.5)"/><path class="cls-1" d="M246.58,439.453c.028,1.172-.008,2.333-.089,3.484.5-1.03,1.048-2.047,1.654-3.041-.206-.35-.382-.7-.574-1.044C247.24,439.052,246.924,439.258,246.58,439.453Z" transform="translate(0.5 0.5)"/><path class="cls-1" d="M248.145,475.9a34.785,34.785,0,0,1-5.1-20.124A34.819,34.819,0,0,1,228.58,470.63a36.079,36.079,0,0,1-.653,7.822c-1.379,7.01-5.522,16.642-17.347,23.355a36.079,36.079,0,0,1-.653,7.822,34.355,34.355,0,0,1-1.085,4.134c1.437-.618,2.98-1.246,4.676-1.9,7.288-2.794,15.985-7.646,16.719-8.459.85-.941.072-.165,1.8,3.256a65.265,65.265,0,0,0,5.517,8.238c3.1,3.972,4.871,6.266,6.165,8.028a34.434,34.434,0,0,1,1.069-3.889,36.158,36.158,0,0,1,3.361-7.144c-6.875-11.7-5.661-22.1-3.361-28.856A36.158,36.158,0,0,1,248.145,475.9Z" transform="translate(0.5 0.5)"/><path class="cls-1" d="M120.229,332.955a34.82,34.82,0,0,1-20.1-5.1,36.014,36.014,0,0,1-7.1,3.345c-6.76,2.311-17.173,3.539-28.9-3.345a36.014,36.014,0,0,1-7.1,3.345,34.187,34.187,0,0,1-4.122,1.128c1.253.935,2.568,1.957,3.98,3.1,6.064,4.915,14.614,10.021,15.686,10.25,1.239.266.179-.02-1.923,3.183a65.238,65.238,0,0,0-4.375,8.9c-1.892,4.667-2.991,7.351-3.87,9.352a34.413,34.413,0,0,1,3.9-1.018,36.177,36.177,0,0,1,7.866-.662c6.7-11.806,16.311-15.952,23.311-17.338a36.177,36.177,0,0,1,7.866-.662A34.8,34.8,0,0,1,120.229,332.955Z" transform="translate(0.5 0.5)"/><path class="cls-1" d="M401.416,174.575c-.95.641-1.931,1.249-2.952,1.807,0,.406-.017.793-.026,1.191.387-.008.764-.028,1.16-.026C400.159,176.519,400.771,175.531,401.416,174.575Z" transform="translate(0.5 0.5)"/><path class="cls-1" d="M210.568,74.172c11.806,6.7,15.952,16.311,17.338,23.311a36.177,36.177,0,0,1,.662,7.866,34.8,34.8,0,0,1,14.477,14.88,34.82,34.82,0,0,1,5.1-20.1,36.014,36.014,0,0,1-3.345-7.1c-2.311-6.76-3.539-17.173,3.345-28.9a36.014,36.014,0,0,1-3.345-7.1,34.187,34.187,0,0,1-1.128-4.122c-.935,1.253-1.957,2.568-3.1,3.98-4.915,6.064-10.021,14.614-10.25,15.686-.266,1.239.02.179-3.183-1.923a65.3,65.3,0,0,0-8.9-4.375c-4.667-1.892-7.351-2.991-9.352-3.87a34.413,34.413,0,0,1,1.018,3.9A36.177,36.177,0,0,1,210.568,74.172Z" transform="translate(0.5 0.5)"/><path class="cls-1" d="M136.526,329.432c.2-.353.412-.678.618-1.018-.339-.187-.675-.358-1.017-.558-1,.61-2.023,1.159-3.061,1.665C134.21,329.441,135.363,329.405,136.526,329.432Z" transform="translate(0.5 0.5)"/><path class="cls-1" d="M247.586,137.144c.187-.339.358-.675.558-1.017-.61-1-1.159-2.023-1.665-3.061.08,1.144.116,2.3.089,3.46C246.921,136.727,247.246,136.938,247.586,137.144Z" transform="translate(0.5 0.5)"/><path class="cls-1" d="M136.547,246.58c-1.172.028-2.333-.008-3.484-.089,1.03.5,2.047,1.048,3.041,1.654.35-.206.7-.382,1.044-.574C136.948,247.24,136.742,246.924,136.547,246.58Z" transform="translate(0.5 0.5)"/><path class="cls-1" d="M109.522,135.054a36.218,36.218,0,0,1,4.506,6.482c13.573-.1,21.97,6.149,26.671,11.518a36.218,36.218,0,0,1,4.506,6.482,34.793,34.793,0,0,1,19.977,5.647,34.819,34.819,0,0,1-5.635-19.957,36.067,36.067,0,0,1-6.447-4.477c-5.381-4.7-11.651-13.1-11.553-26.7a36.067,36.067,0,0,1-6.447-4.477,34.506,34.506,0,0,1-3.038-3.006c-.183,1.553-.411,3.2-.7,5-1.223,7.709-1.371,17.667-1.033,18.71.389,1.205.107.144-3.718-.074a65.285,65.285,0,0,0-9.893.66c-4.988.695-7.862,1.085-10.035,1.324A34.607,34.607,0,0,1,109.522,135.054Z" transform="translate(0.5 0.5)"/><path class="cls-1" d="M365.432,501.828c-11.806-6.7-15.952-16.311-17.338-23.311a36.177,36.177,0,0,1-.662-7.866,34.8,34.8,0,0,1-14.477-14.88,34.82,34.82,0,0,1-5.1,20.1,36.014,36.014,0,0,1,3.345,7.1c2.311,6.76,3.539,17.173-3.345,28.9a36.014,36.014,0,0,1,3.345,7.1,34.187,34.187,0,0,1,1.128,4.122c.935-1.253,1.957-2.568,3.1-3.98,4.915-6.064,10.021-14.614,10.25-15.686.266-1.239-.02-.179,3.183,1.923a65.3,65.3,0,0,0,8.9,4.375c4.667,1.892,7.351,2.991,9.352,3.87a34.413,34.413,0,0,1-1.018-3.9A36.177,36.177,0,0,1,365.432,501.828Z" transform="translate(0.5 0.5)"/><path class="cls-1" d="M466.478,440.946a36.218,36.218,0,0,1-4.506-6.482c-13.573.1-21.97-6.149-26.671-11.518a36.218,36.218,0,0,1-4.506-6.482,34.793,34.793,0,0,1-19.977-5.647,34.819,34.819,0,0,1,5.635,19.957,36.067,36.067,0,0,1,6.447,4.477c5.381,4.7,11.651,13.1,11.553,26.7a36.067,36.067,0,0,1,6.447,4.477,34.506,34.506,0,0,1,3.038,3.006c.183-1.553.411-3.2.695-5,1.223-7.709,1.371-17.667,1.033-18.71-.389-1.2-.107-.144,3.718.074a65.285,65.285,0,0,0,9.893-.66c4.988-.695,7.862-1.085,10.035-1.324A34.607,34.607,0,0,1,466.478,440.946Z" transform="translate(0.5 0.5)"/><path class="cls-1" d="M439.474,246.568c-.2.353-.412.678-.618,1.018.339.187.675.358,1.017.558,1-.61,2.024-1.159,3.061-1.665C441.79,246.559,440.637,246.6,439.474,246.568Z" transform="translate(0.5 0.5)"/><path class="cls-1" d="M439.453,329.42c1.172-.028,2.333.008,3.484.089-1.03-.5-2.047-1.048-3.041-1.654-.35.206-.7.382-1.044.574C439.052,328.76,439.258,329.076,439.453,329.42Z" transform="translate(0.5 0.5)"/><path class="cls-1" d="M435.251,153.1c4.7-5.381,13.1-11.651,26.7-11.553a36.067,36.067,0,0,1,4.477-6.447,34.506,34.506,0,0,1,3.006-3.038c-1.553-.183-3.2-.411-5-.7-7.709-1.223-17.667-1.371-18.71-1.033-1.2.389-.144.107.074-3.718a65.285,65.285,0,0,0-.66-9.893c-.695-4.988-1.085-7.862-1.324-10.035a34.607,34.607,0,0,1-2.871,2.834,36.218,36.218,0,0,1-6.482,4.506c.1,13.573-6.149,21.97-11.518,26.671a36.218,36.218,0,0,1-6.482,4.506,34.788,34.788,0,0,1-5.647,19.977,34.819,34.819,0,0,1,19.957-5.635A36.067,36.067,0,0,1,435.251,153.1Z" transform="translate(0.5 0.5)"/><path class="cls-1" d="M503.429,230.321c-1.239-.266-.179.02,1.923-3.183a65.3,65.3,0,0,0,4.375-8.9c1.892-4.667,2.991-7.351,3.87-9.352a34.413,34.413,0,0,1-3.9,1.018,36.177,36.177,0,0,1-7.866.662c-6.7,11.806-16.311,15.952-23.311,17.338a36.177,36.177,0,0,1-7.866.662,34.8,34.8,0,0,1-14.88,14.477,34.82,34.82,0,0,1,20.1,5.1,36.014,36.014,0,0,1,7.1-3.345c6.76-2.311,17.173-3.539,28.9,3.345a36.014,36.014,0,0,1,7.1-3.345,34.187,34.187,0,0,1,4.122-1.128c-1.253-.935-2.568-1.957-3.98-3.1C513.051,235.656,504.5,230.55,503.429,230.321Z" transform="translate(0.5 0.5)"/><path class="cls-1" d="M511.9,327.855c-11.7,6.875-22.1,5.661-28.856,3.361a36.158,36.158,0,0,1-7.144-3.361,34.783,34.783,0,0,1-20.124,5.1A34.819,34.819,0,0,1,470.63,347.42a36.079,36.079,0,0,1,7.822.653c7.01,1.379,16.642,5.522,23.355,17.347a36.079,36.079,0,0,1,7.822.653,34.53,34.53,0,0,1,4.134,1.084c-.618-1.436-1.246-2.979-1.9-4.675-2.794-7.288-7.646-15.985-8.459-16.719-.941-.85-.165-.072,3.256-1.8a65.265,65.265,0,0,0,8.238-5.517c3.972-3.1,6.266-4.871,8.028-6.165a34.434,34.434,0,0,1-3.889-1.069A36.158,36.158,0,0,1,511.9,327.855Z" transform="translate(0.5 0.5)"/><path class="cls-1" d="M328.429,137.148c.331-.2.647-.406.991-.6-.028-1.172.008-2.333.089-3.484-.5,1.03-1.048,2.047-1.654,3.041C328.061,136.454,328.237,136.8,328.429,137.148Z" transform="translate(0.5 0.5)"/><path class="cls-1" d="M398.427,398.438c.008.387.028.764.026,1.159,1.028.562,2.016,1.174,2.972,1.819-.641-.95-1.249-1.931-1.807-2.952C399.212,398.467,398.825,398.447,398.427,398.438Z" transform="translate(0.5 0.5)"/><path class="cls-1" d="M292.5,304.587v3.9a3,3,0,0,0,.553.069,1.338,1.338,0,0,0,1.186-.6c.393-.7-.307-1.6-1.055-2.525C292.951,305.151,292.722,304.868,292.5,304.587Z" transform="translate(0.5 0.5)"/><path class="cls-1" d="M309.664,288.648c-.727-.471-2.138.133-2.96-.271a6.035,6.035,0,0,1-1.822-1.472,7.687,7.687,0,0,1-1.241-1.751,3.028,3.028,0,0,1-.283-.976,3.519,3.519,0,0,1-.065-.976,4.906,4.906,0,0,1,.507-1.821c.583-1.055,1.656-1.737,3.11-.472.015.4-1.089-.288-.709.449a1.915,1.915,0,0,0,3.178.3,22.361,22.361,0,0,0-1.9-4.54,4.587,4.587,0,0,1-.464-.788c0-.006-.007-.02-.011-.028-.366-.6-.76-1.175-1.183-1.732a22.424,22.424,0,0,0-11.9-8.082,2.428,2.428,0,0,0-1.414.327v4.2a2.4,2.4,0,0,0,1.426.5,1.952,1.952,0,0,0,1.44-.614,1.136,1.136,0,0,0,.278-1.3,2.164,2.164,0,0,0-1.91-.971,2.25,2.25,0,0,1,1.825-.315,4.23,4.23,0,0,1,1.91.945,4.976,4.976,0,0,1,1.36,1.643,3.252,3.252,0,0,1,.442,1.639c-.1,1.4-1.412,2.415-2.806,3.256a16.36,16.36,0,0,1-2.076,1.061,5.9,5.9,0,0,1-1.749.553c-.049.008-.093.006-.14.011v8.708l10.42,10.421c.043-.04.089-.084.131-.122,1.29-1.073,2.721-2.559,3.646-1.791.576.5.031,2.071.9,1.891a2.76,2.76,0,0,1-.2-1.774,28.229,28.229,0,0,0,2.588-3.029v0c.035-.208.073-.416.1-.625.089-.611.144-1.226.18-1.842A1.894,1.894,0,0,0,309.664,288.648Z" transform="translate(0.5 0.5)"/><path class="cls-1" d="M281.761,268.045c-.393.7.307,1.6,1.055,2.525.233.278.462.562.684.843v-3.9a3,3,0,0,0-.553-.069A1.338,1.338,0,0,0,281.761,268.045Z" transform="translate(0.5 0.5)"/><path class="cls-1" d="M345.763,72.593c-.85.941-.072.165-1.8-3.256A65.265,65.265,0,0,0,338.45,61.1c-3.1-3.972-4.871-6.266-6.165-8.028a34.434,34.434,0,0,1-1.069,3.889,36.158,36.158,0,0,1-3.361,7.144c6.875,11.7,5.661,22.1,3.361,28.856a36.158,36.158,0,0,1-3.361,7.144,34.783,34.783,0,0,1,5.1,20.124A34.819,34.819,0,0,1,347.42,105.37a36.079,36.079,0,0,1,.653-7.822c1.379-7.01,5.522-16.642,17.347-23.355a36.079,36.079,0,0,1,.653-7.822,34.53,34.53,0,0,1,1.084-4.134c-1.436.618-2.979,1.246-4.675,1.9C355.194,66.928,346.5,71.78,345.763,72.593Z" transform="translate(0.5 0.5)"/><path class="cls-1" d="M327.856,439.873c.61,1,1.159,2.024,1.665,3.061-.08-1.144-.116-2.3-.089-3.46-.353-.2-.678-.412-1.018-.618C328.227,439.2,328.056,439.531,327.856,439.873Z" transform="translate(0.5 0.5)"/><path class="cls-1" d="M576,0H0V576H576V0ZM398.464,176.382c1.021-.558,2-1.166,2.952-1.807-.645.956-1.257,1.944-1.818,2.972-.4,0-.773.018-1.16.026C398.447,177.175,398.467,176.788,398.464,176.382ZM218.24,66.273a65.3,65.3,0,0,1,8.9,4.375c3.2,2.1,2.917,3.162,3.183,1.923.229-1.072,5.335-9.622,10.25-15.686,1.143-1.412,2.165-2.727,3.1-3.98a34.187,34.187,0,0,0,1.128,4.122,36.014,36.014,0,0,0,3.345,7.1c-6.884,11.727-5.656,22.14-3.345,28.9a36.014,36.014,0,0,0,3.345,7.1,34.82,34.82,0,0,0-5.1,20.1,34.8,34.8,0,0,0-14.477-14.88,36.177,36.177,0,0,0-.662-7.866c-1.386-7-5.532-16.612-17.338-23.311a36.177,36.177,0,0,0-.662-7.866,34.413,34.413,0,0,0-1.018-3.9C210.889,63.282,213.573,64.381,218.24,66.273Zm29.9,69.854c-.2.342-.371.678-.558,1.017-.34-.206-.665-.417-1.018-.618.027-1.163-.009-2.316-.089-3.46C246.985,134.1,247.534,135.127,248.144,136.127Zm-131.421-5.268a65.285,65.285,0,0,1,9.893-.66c3.825.218,4.107,1.279,3.718.074-.338-1.043-.19-11,1.033-18.71.284-1.794.512-3.444.7-5a34.506,34.506,0,0,0,3.038,3.006,36.067,36.067,0,0,0,6.447,4.477c-.1,13.6,6.172,22,11.553,26.7a36.067,36.067,0,0,0,6.447,4.477,34.819,34.819,0,0,0,5.635,19.957,34.793,34.793,0,0,0-19.977-5.647,36.218,36.218,0,0,0-4.506-6.482c-4.7-5.369-13.1-11.62-26.671-11.518a36.218,36.218,0,0,0-4.506-6.482,34.607,34.607,0,0,0-2.834-2.871C108.861,131.944,111.735,131.554,116.723,130.859ZM136.1,248.145c-.994-.606-2.011-1.151-3.041-1.654,1.151.081,2.312.117,3.484.089.195.344.4.66.6.991C136.8,247.763,136.454,247.939,136.1,248.145Zm1.04,80.269c-.206.34-.417.665-.618,1.018-1.163-.027-2.316.009-3.46.089,1.038-.506,2.061-1.055,3.061-1.665C136.469,328.056,136.805,328.227,137.144,328.414ZM61.1,237.55a65.265,65.265,0,0,1,8.238-5.517c3.421-1.724,4.2-.946,3.256-1.8-.813-.734-5.665-9.431-8.459-16.719-.651-1.7-1.279-3.239-1.9-4.675a34.53,34.53,0,0,0,4.134,1.084,36.079,36.079,0,0,0,7.822.653c6.713,11.825,16.345,15.968,23.355,17.347a36.079,36.079,0,0,0,7.822.653,34.819,34.819,0,0,0,14.858,14.467,34.785,34.785,0,0,0-20.124,5.1,36.158,36.158,0,0,0-7.144-3.361c-6.755-2.3-17.152-3.514-28.856,3.361a36.158,36.158,0,0,0-7.144-3.361,34.434,34.434,0,0,0-3.889-1.069C54.833,242.421,57.127,240.646,61.1,237.55ZM97.483,348.094c-7,1.386-16.612,5.532-23.311,17.338a36.177,36.177,0,0,0-7.866.662,34.413,34.413,0,0,0-3.9,1.018c.879-2,1.978-4.685,3.87-9.352a65.238,65.238,0,0,1,4.375-8.9c2.1-3.2,3.162-2.917,1.923-3.183-1.072-.229-9.622-5.335-15.686-10.25-1.412-1.143-2.727-2.165-3.98-3.1a34.187,34.187,0,0,0,4.122-1.128,36.014,36.014,0,0,0,7.1-3.345c11.727,6.884,22.14,5.656,28.9,3.345a36.014,36.014,0,0,0,7.1-3.345,34.82,34.82,0,0,0,20.1,5.1,34.8,34.8,0,0,0-14.88,14.477A36.177,36.177,0,0,0,97.483,348.094Zm62.053,82.7a36.218,36.218,0,0,0-6.482,4.506c-5.369,4.7-11.62,13.1-11.518,26.671a36.218,36.218,0,0,0-6.482,4.506,34.607,34.607,0,0,0-2.871,2.834c-.239-2.173-.629-5.047-1.324-10.035a65.285,65.285,0,0,1-.66-9.893c.218-3.825,1.279-4.107.074-3.718-1.043.338-11,.19-18.71-1.034-1.794-.283-3.444-.511-5-.694a34.506,34.506,0,0,0,3.006-3.038,36.067,36.067,0,0,0,4.477-6.447c13.6.1,22-6.172,26.7-11.553a36.067,36.067,0,0,0,4.477-6.447,34.819,34.819,0,0,0,19.957-5.635A34.788,34.788,0,0,0,159.536,430.8Zm18-31.177c-1.021.558-2,1.166-2.952,1.807.645-.957,1.257-1.944,1.818-2.972.4,0,.773-.018,1.16-.026C177.553,398.825,177.533,399.212,177.536,399.618Zm-1.154-222.082c-.558-1.021-1.166-2-1.807-2.952.956.645,1.944,1.257,2.972,1.818,0,.4.018.773.026,1.16C177.175,177.553,176.788,177.533,176.382,177.536ZM248.145,511.9a36.158,36.158,0,0,0-3.361,7.144,34.434,34.434,0,0,0-1.069,3.889c-1.294-1.762-3.069-4.056-6.165-8.028a65.265,65.265,0,0,1-5.517-8.238c-1.724-3.421-.946-4.2-1.8-3.256-.734.813-9.431,5.665-16.719,8.459-1.7.651-3.239,1.279-4.676,1.9a34.355,34.355,0,0,0,1.085-4.134,36.079,36.079,0,0,0,.653-7.822c11.825-6.713,15.968-16.345,17.347-23.355a36.079,36.079,0,0,0,.653-7.822,34.819,34.819,0,0,0,14.467-14.858,34.785,34.785,0,0,0,5.1,20.124,36.158,36.158,0,0,0-3.361,7.144C242.484,489.8,241.27,500.192,248.145,511.9Zm-1.654-68.959c.081-1.151.117-2.312.089-3.484.344-.195.66-.4.991-.6.192.348.368.694.574,1.044C247.539,440.89,246.994,441.907,246.491,442.937ZM283.5,309.181a2.426,2.426,0,0,1-1.413.327,22.478,22.478,0,0,1-6.352-2.879l1.473-1.473a5.015,5.015,0,0,0,1.323,1.579,4.23,4.23,0,0,0,1.91.945,2.25,2.25,0,0,0,1.825-.315,2.164,2.164,0,0,1-1.91-.971,1.137,1.137,0,0,1,.278-1.3,1.948,1.948,0,0,1,1.44-.614,2.392,2.392,0,0,1,1.426.5Zm0-23.045-14.131,14.131c-.125-.19-.25-.379-.369-.573,0-.008-.007-.022-.011-.029a4.569,4.569,0,0,0-.464-.786,22.426,22.426,0,0,1-1.9-4.541,1.915,1.915,0,0,1,3.178.3c.38.737-.724.051-.709.449,1.454,1.265,2.527.583,3.11-.472a4.906,4.906,0,0,0,.507-1.821,3.519,3.519,0,0,0-.065-.976,3.02,3.02,0,0,0-.283-.976,7.687,7.687,0,0,0-1.241-1.751,6.035,6.035,0,0,0-1.822-1.472c-.822-.4-2.233.2-2.96-.271a1.894,1.894,0,0,1-.608-.615c.036-.617.092-1.231.18-1.842.029-.209.067-.417.1-.625v0a28.229,28.229,0,0,1,2.588-3.029,2.76,2.76,0,0,0-.2-1.774c.871-.18.326,1.394.9,1.891.925.768,2.356-.718,3.646-1.791a12.143,12.143,0,0,0,1.2-1.2c.391-.445.834-.874,1.213-1.319.411-.417.831-.793,1.189-1.121a4.39,4.39,0,0,1,1.009-.645,2.552,2.552,0,0,1,1.676-.174,1.723,1.723,0,0,1,1.078.786c.64,1.075.389,1.8-.037,2-.395.22-1.1-.043-1.221-1.255a1.348,1.348,0,0,0-.78,1.716,3.683,3.683,0,0,0,1.29,1.989,4,4,0,0,0,2.534.872,3.376,3.376,0,0,0,1.021-.187,1.664,1.664,0,0,0,.381-.207Zm0-14.723c-.222-.281-.451-.565-.684-.843-.748-.927-1.448-1.822-1.055-2.525a1.338,1.338,0,0,1,1.186-.6,3,3,0,0,1,.553.069Zm10.739,36.542a1.338,1.338,0,0,1-1.186.6,3,3,0,0,1-.553-.069v-3.9c.222.281.451.564.684.843C293.932,306.357,294.632,307.252,294.239,307.955Zm15.853-16.85c-.029.209-.067.417-.1.625v0a28.229,28.229,0,0,1-2.588,3.029,2.76,2.76,0,0,0,.2,1.774c-.871.18-.326-1.394-.9-1.891-.925-.768-2.356.718-3.646,1.791-.042.038-.088.082-.131.122L292.5,286.136v-8.708c.047,0,.091,0,.14-.011a5.9,5.9,0,0,0,1.749-.553,16.36,16.36,0,0,0,2.076-1.061c1.394-.841,2.7-1.855,2.806-3.256a3.252,3.252,0,0,0-.442-1.639,4.976,4.976,0,0,0-1.36-1.643,4.23,4.23,0,0,0-1.91-.945,2.25,2.25,0,0,0-1.825.315,2.164,2.164,0,0,1,1.91.971,1.136,1.136,0,0,1-.278,1.3,1.952,1.952,0,0,1-1.44.614,2.4,2.4,0,0,1-1.426-.5v-4.2a2.428,2.428,0,0,1,1.414-.327,22.424,22.424,0,0,1,11.9,8.082c.423.557.817,1.136,1.183,1.732,0,.008.007.022.011.028a4.587,4.587,0,0,0,.464.788,22.361,22.361,0,0,1,1.9,4.54,1.915,1.915,0,0,1-3.178-.3c-.38-.737.724-.051.709-.449-1.454-1.265-2.527-.583-3.11.472a4.906,4.906,0,0,0-.507,1.821,3.519,3.519,0,0,0,.065.976,3.028,3.028,0,0,0,.283.976,7.687,7.687,0,0,0,1.241,1.751,6.035,6.035,0,0,0,1.822,1.472c.822.4,2.233-.2,2.96.271a1.894,1.894,0,0,1,.608.615C310.236,289.879,310.181,290.494,310.092,291.105ZM329.42,136.547c-.344.195-.66.4-.991.6-.192-.348-.368-.694-.574-1.044.606-.994,1.151-2.011,1.654-3.041C329.428,134.214,329.392,135.375,329.42,136.547Zm.1,306.387c-.506-1.037-1.055-2.061-1.665-3.061.2-.342.371-.678.558-1.017.34.206.665.417,1.018.618C329.405,440.637,329.441,441.79,329.521,442.934Zm28.239,66.793a65.3,65.3,0,0,1-8.9-4.375c-3.2-2.1-2.917-3.162-3.183-1.923-.229,1.072-5.335,9.622-10.25,15.686-1.143,1.412-2.165,2.727-3.1,3.98a34.187,34.187,0,0,0-1.128-4.122,36.014,36.014,0,0,0-3.345-7.1c6.884-11.727,5.656-22.14,3.345-28.9a36.014,36.014,0,0,0-3.345-7.1,34.82,34.82,0,0,0,5.1-20.1,34.8,34.8,0,0,0,14.477,14.88,36.177,36.177,0,0,0,.662,7.866c1.386,7,5.532,16.612,17.338,23.311a36.177,36.177,0,0,0,.662,7.866,34.413,34.413,0,0,0,1.018,3.9C365.111,512.718,362.427,511.619,357.76,509.727Zm8.313-443.356a36.079,36.079,0,0,0-.653,7.822c-11.825,6.713-15.968,16.345-17.347,23.355a36.079,36.079,0,0,0-.653,7.822,34.819,34.819,0,0,0-14.467,14.858,34.783,34.783,0,0,0-5.1-20.124,36.158,36.158,0,0,0,3.361-7.144c2.3-6.755,3.514-17.152-3.361-28.856a36.158,36.158,0,0,0,3.361-7.144,34.434,34.434,0,0,0,1.069-3.889c1.294,1.762,3.069,4.056,6.165,8.028a65.265,65.265,0,0,1,5.517,8.238c1.724,3.421.946,4.2,1.8,3.256.734-.813,9.431-5.665,16.719-8.459,1.7-.651,3.239-1.279,4.675-1.9A34.53,34.53,0,0,0,366.073,66.371ZM398.453,399.6c0-.395-.018-.772-.026-1.159.4.009.785.029,1.191.026.558,1.021,1.166,2,1.807,2.952C400.469,400.771,399.481,400.159,398.453,399.6Zm18.011-254.392a36.218,36.218,0,0,0,6.482-4.506c5.369-4.7,11.62-13.1,11.518-26.671a36.218,36.218,0,0,0,6.482-4.506,34.607,34.607,0,0,0,2.871-2.834c.239,2.173.629,5.047,1.324,10.035a65.285,65.285,0,0,1,.66,9.893c-.218,3.825-1.279,4.107-.074,3.718,1.043-.338,11-.19,18.71,1.033,1.794.284,3.444.512,5,.7a34.506,34.506,0,0,0-3.006,3.038,36.067,36.067,0,0,0-4.477,6.447c-13.6-.1-22,6.172-26.7,11.553a36.067,36.067,0,0,0-4.477,6.447,34.819,34.819,0,0,0-19.957,5.635A34.788,34.788,0,0,0,416.464,145.205ZM439.9,327.855c.994.606,2.011,1.151,3.041,1.654-1.151-.081-2.312-.117-3.484-.089-.195-.344-.4-.66-.6-.991C439.2,328.237,439.546,328.061,439.9,327.855Zm-1.04-80.269c.206-.34.417-.665.618-1.018,1.163.027,2.316-.009,3.46-.089-1.037.506-2.061,1.055-3.061,1.665C439.531,247.944,439.2,247.773,438.856,247.586Zm20.421,197.555a65.285,65.285,0,0,1-9.893.66c-3.825-.218-4.107-1.279-3.718-.074.338,1.043.19,11-1.033,18.71-.284,1.794-.512,3.444-.695,5a34.506,34.506,0,0,0-3.038-3.006,36.067,36.067,0,0,0-6.447-4.477c.1-13.6-6.172-22-11.553-26.7a36.067,36.067,0,0,0-6.447-4.477,34.819,34.819,0,0,0-5.635-19.957,34.793,34.793,0,0,0,19.977,5.647,36.218,36.218,0,0,0,4.506,6.482c4.7,5.369,13.1,11.62,26.671,11.518a36.218,36.218,0,0,0,4.506,6.482,34.607,34.607,0,0,0,2.834,2.871C467.139,444.056,464.265,444.446,459.277,445.141ZM514.9,338.45a65.265,65.265,0,0,1-8.238,5.517c-3.421,1.724-4.2.946-3.256,1.8.813.734,5.665,9.431,8.459,16.719.651,1.7,1.279,3.239,1.9,4.675a34.53,34.53,0,0,0-4.134-1.084,36.079,36.079,0,0,0-7.822-.653c-6.713-11.825-16.345-15.968-23.355-17.347a36.079,36.079,0,0,0-7.822-.653,34.819,34.819,0,0,0-14.858-14.467,34.783,34.783,0,0,0,20.124-5.1,36.158,36.158,0,0,0,7.144,3.361c6.755,2.3,17.152,3.514,28.856-3.361a36.158,36.158,0,0,0,7.144,3.361,34.434,34.434,0,0,0,3.889,1.069C521.167,333.579,518.873,335.354,514.9,338.45Zm4.072-93.651a36.014,36.014,0,0,0-7.1,3.345c-11.727-6.884-22.14-5.656-28.9-3.345a36.014,36.014,0,0,0-7.1,3.345,34.82,34.82,0,0,0-20.1-5.1,34.8,34.8,0,0,0,14.88-14.477,36.177,36.177,0,0,0,7.866-.662c7-1.386,16.612-5.532,23.311-17.338a36.177,36.177,0,0,0,7.866-.662,34.413,34.413,0,0,0,3.9-1.018c-.879,2-1.978,4.685-3.87,9.352a65.3,65.3,0,0,1-4.375,8.9c-2.1,3.2-3.162,2.917-1.923,3.183,1.072.229,9.622,5.335,15.686,10.25,1.412,1.143,2.727,2.165,3.98,3.1A34.187,34.187,0,0,0,518.973,244.8Z" transform="translate(0.5 0.5)"/><rect class="cls-2" x="0.5" y="0.5" width="576" height="576"/></svg>