<svg id="peace_1" data-name="peace 1" xmlns="http://www.w3.org/2000/svg" width="8.014in" height="8.014in" viewBox="0 0 577 577"><defs><style>.cls-1,.cls-2{fill:none;stroke-miterlimit:10;}.cls-1{stroke:blue;}.cls-2{stroke:red;}</style></defs><title>alien-love-worm-v1-layer-1</title><path class="cls-1" d="M496.729,429.151c-1.5-3.4-1.848-5.983-1.329-6.881q.135-.221.264-.444a20.191,20.191,0,0,0,1.442-3.085,10.508,10.508,0,0,1,3.159,2.668c.3.387.561.761.8,1.127Q498.948,425.881,496.729,429.151Zm-6.98-55.772c-3.229-6.136-8.1-10-14.076-11.176-8.994-1.769-18.813,3-22.889,6.414a6.013,6.013,0,0,1-4.676.994,10.7,10.7,0,0,1-4.679-1.915,20.169,20.169,0,0,0,1.918-2.755c.092-.158.18-.317.277-.5.618-1.069,4.015-2.292,9.1-2.451a4.458,4.458,0,0,0,3.852-6.614c-3.229-6.136-8.1-10-14.075-11.176-9-1.769-18.814,3-22.889,6.414a6.017,6.017,0,0,1-4.677.994,10.7,10.7,0,0,1-4.678-1.915,20.348,20.348,0,0,0,1.918-2.755c.091-.158.179-.317.277-.5.617-1.069,4.014-2.292,9.1-2.451a4.459,4.459,0,0,0,3.853-6.614c-3.229-6.136-8.1-10-14.076-11.176-9-1.769-18.814,3-22.889,6.414a6.017,6.017,0,0,1-4.677.994,10.7,10.7,0,0,1-4.678-1.915,20.348,20.348,0,0,0,1.918-2.755c.091-.158.179-.317.277-.5.617-1.069,4.014-2.292,9.095-2.451a4.459,4.459,0,0,0,3.853-6.614,26.615,26.615,0,0,0-1.731-2.838,26.527,26.527,0,0,0,2.961-1.617,4.459,4.459,0,0,0-.041-7.655c-4.326-2.675-6.66-5.432-6.66-6.687,0-.173.007-.346.007-.519a20.1,20.1,0,0,0-.293-3.39,10.464,10.464,0,0,1,4.069.73c2.7,1.086,4.258,2.522,4.5,3.195,1.828,5,7.965,14.03,16.645,16.985,5.767,1.964,11.911,1.044,17.769-2.659a4.459,4.459,0,0,0-.041-7.655c-4.326-2.675-6.66-5.432-6.66-6.687,0-.173.007-.346.007-.519a20.1,20.1,0,0,0-.293-3.39,10.464,10.464,0,0,1,4.069.73c2.7,1.086,4.258,2.522,4.5,3.195,1.828,5,7.965,14.03,16.645,16.985,5.767,1.964,11.911,1.044,17.769-2.659a4.459,4.459,0,0,0-.041-7.655c-4.326-2.675-6.66-5.432-6.66-6.687,0-.173.007-.346.007-.519a20.1,20.1,0,0,0-.293-3.39,10.464,10.464,0,0,1,4.069.73c2.7,1.086,4.258,2.522,4.5,3.195,1.828,5,7.965,14.03,16.645,16.985,5.767,1.964,11.911,1.044,17.769-2.659a4.459,4.459,0,0,0-.041-7.655c-4.326-2.675-6.66-5.432-6.66-6.687,0-.173.007-.346.007-.519a20.1,20.1,0,0,0-.293-3.39,10.464,10.464,0,0,1,4.069.73c2.7,1.086,4.258,2.522,4.5,3.195,1.828,5,7.965,14.03,16.645,16.985a19.429,19.429,0,0,0,14.7-.989,252.087,252.087,0,0,1-5.163,29.687,5.6,5.6,0,0,0-3.6,1.009,30.812,30.812,0,0,0-3.006,2.2,14.993,14.993,0,0,1-1.9,1.272c-.788.4-.967.218-.75.414a21.071,21.071,0,0,1,1.95,3.854c.983,2.559,1.749,3.759,2.95,4.611a4.083,4.083,0,0,0,.68.371,250.074,250.074,0,0,1-10.394,28.454,19.452,19.452,0,0,0-12.3-8.265c-9-1.769-18.813,3-22.889,6.414a6.013,6.013,0,0,1-4.676.994,10.7,10.7,0,0,1-4.679-1.915,20.169,20.169,0,0,0,1.918-2.755c.092-.158.18-.317.277-.5.618-1.069,4.015-2.292,9.1-2.451a4.458,4.458,0,0,0,3.852-6.614Zm-29.014,14.566a3.705,3.705,0,0,1-3.383,5.723A5.93,5.93,0,0,1,454,391.847c-.94-1.133-1.37-2.49-1.657-5.217a21.055,21.055,0,0,0-.886-4.227c-.159-.245-.032-.026.832-.205a15.087,15.087,0,0,0,2.163-.737,30.462,30.462,0,0,1,3.474-1.35,5.486,5.486,0,0,1,4.79.448,3.338,3.338,0,0,1,1.327,1.114,3.975,3.975,0,0,1,.75,2.5,3.034,3.034,0,0,1-.514,1.7,2.652,2.652,0,0,1-1.219,1.282,3.474,3.474,0,0,1-2.284.454l-.35-.1Zm-31.177-18a3.705,3.705,0,0,1-3.383,5.723,5.933,5.933,0,0,1-3.352-1.821c-.94-1.133-1.37-2.49-1.656-5.217a21.03,21.03,0,0,0-.887-4.227c-.159-.245-.032-.026.833-.205a15.17,15.17,0,0,0,2.163-.737,30.473,30.473,0,0,1,3.473-1.35,5.488,5.488,0,0,1,4.791.448,3.341,3.341,0,0,1,1.326,1.114,3.969,3.969,0,0,1,.75,2.5,3.034,3.034,0,0,1-.514,1.7,2.652,2.652,0,0,1-1.219,1.282l-2.634.356Zm-31.177-18A3.705,3.705,0,0,1,395,357.668a5.936,5.936,0,0,1-3.352-1.821c-.939-1.133-1.37-2.49-1.656-5.217a21.03,21.03,0,0,0-.887-4.227c-.159-.245-.032-.026.833-.205a15.17,15.17,0,0,0,2.163-.737,30.473,30.473,0,0,1,3.473-1.35,5.488,5.488,0,0,1,4.791.448,3.341,3.341,0,0,1,1.326,1.114,3.969,3.969,0,0,1,.75,2.5,3.034,3.034,0,0,1-.514,1.7,2.647,2.647,0,0,1-1.219,1.282,3.474,3.474,0,0,1-2.284.454l-.35-.1Zm-46.76,46.623a3.706,3.706,0,0,1-5.792,3.266,5.944,5.944,0,0,1-1.993-3.254c-.247-1.45.059-2.841,1.175-5.346a21.07,21.07,0,0,0,1.346-4.1c-.016-.292-.015-.038.823.238a15,15,0,0,0,2.242.444,30.507,30.507,0,0,1,3.683.568,5.488,5.488,0,0,1,3.925,2.783,3.35,3.35,0,0,1,.591,1.627,3.965,3.965,0,0,1-.6,2.538,3.043,3.043,0,0,1-1.3,1.218,2.66,2.66,0,0,1-1.7.5,3.469,3.469,0,0,1-2.2-.749l-.254-.26ZM336.4,346.678a6.014,6.014,0,0,1-4.547-1.478,10.817,10.817,0,0,1-3.656-5.54l-.723-2.61a63.557,63.557,0,0,0,9.692-9.723l1.671.429a10.808,10.808,0,0,1,5.544,3.653c1.794,2.289,2.426,4.312,2.3,5.018a31.493,31.493,0,0,0,.29,10.534A31.464,31.464,0,0,0,336.4,346.678Zm-24.252,1.17a10.807,10.807,0,0,1,2.975,5.936c.409,2.879-.055,4.947-.515,5.5a31.48,31.48,0,0,0-5.015,9.267,31.494,31.494,0,0,0-9.016-5.532,6.011,6.011,0,0,1-3.2-3.553,10.817,10.817,0,0,1-.4-6.626l.667-2.576a62.375,62.375,0,0,0,13.286-3.6ZM297.529,539.8c-.051-.112-.105-.221-.152-.338a10.678,10.678,0,0,1-.682-5.009,20.162,20.162,0,0,0,3.345.284c.183,0,.365,0,.569-.008,1.022,0,3.089,1.618,5.287,4.615Q301.731,539.638,297.529,539.8ZM224.055,398.381A3.705,3.705,0,0,1,218.332,395a5.936,5.936,0,0,1,1.821-3.352c1.133-.939,2.49-1.37,5.217-1.656a21.03,21.03,0,0,0,4.227-.887c.245-.159.026-.032.2.833a15.17,15.17,0,0,0,.737,2.163,30.473,30.473,0,0,1,1.35,3.473,5.488,5.488,0,0,1-.448,4.791,3.349,3.349,0,0,1-1.114,1.326,3.969,3.969,0,0,1-2.5.75,3.034,3.034,0,0,1-1.7-.514,2.647,2.647,0,0,1-1.282-1.219,3.474,3.474,0,0,1-.454-2.284l.1-.35Zm4.984-51.408a31.464,31.464,0,0,0,.283-10.574,6.014,6.014,0,0,1,1.478-4.547,10.817,10.817,0,0,1,5.54-3.656l2.61-.723a63.557,63.557,0,0,0,9.723,9.692l-.429,1.671a10.808,10.808,0,0,1-3.653,5.544c-2.289,1.794-4.312,2.426-5.018,2.3A31.493,31.493,0,0,0,229.039,346.973Zm-51.607,4.648a3.706,3.706,0,0,1-3.266-5.792,5.944,5.944,0,0,1,3.254-1.993c1.45-.247,2.841.059,5.346,1.175a21.07,21.07,0,0,0,4.1,1.346c.292-.016.038-.015-.238.823a15,15,0,0,0-.444,2.242,30.507,30.507,0,0,1-.568,3.683,5.488,5.488,0,0,1-2.783,3.925,3.35,3.35,0,0,1-1.628.591,3.969,3.969,0,0,1-2.537-.6,3.043,3.043,0,0,1-1.218-1.3,2.66,2.66,0,0,1-.5-1.7,3.469,3.469,0,0,1,.749-2.2l.26-.254Zm8.11-19.014c-4.082-3.414-13.913-8.168-22.908-6.387-5.976,1.183-10.837,5.052-14.058,11.188a4.459,4.459,0,0,0,3.863,6.609c5.084.153,8.483,1.374,9.111,2.461q.123.228.253.452a20.119,20.119,0,0,0,1.949,2.79,10.463,10.463,0,0,1-3.889,1.4c-2.88.409-4.948-.055-5.5-.515-4.082-3.414-13.912-8.168-22.908-6.387-5.976,1.183-10.837,5.052-14.058,11.188a4.459,4.459,0,0,0,3.863,6.609c5.084.153,8.483,1.374,9.111,2.461q.123.228.253.452a20.119,20.119,0,0,0,1.949,2.79,10.463,10.463,0,0,1-3.889,1.4c-2.88.409-4.948-.055-5.5-.515-4.082-3.414-13.912-8.168-22.908-6.387-5.976,1.183-10.837,5.052-14.058,11.188a4.459,4.459,0,0,0,3.863,6.609c5.084.153,8.483,1.374,9.111,2.461q.123.228.253.452a20.119,20.119,0,0,0,1.949,2.79,10.457,10.457,0,0,1-3.889,1.4c-2.879.409-4.948-.055-5.5-.515-4.083-3.414-13.913-8.168-22.909-6.387a19.445,19.445,0,0,0-12.264,8.251,250.015,250.015,0,0,1-10.357-28.33,5.6,5.6,0,0,0,2.629-2.68,30.789,30.789,0,0,0,1.5-3.41A15.04,15.04,0,0,1,51.621,352c.484-.739.729-.673.443-.734a21.109,21.109,0,0,1-3.616-2.362c-2.131-1.726-3.394-2.381-4.86-2.518a4,4,0,0,0-.774.018,251.756,251.756,0,0,1-5.192-29.823,19.445,19.445,0,0,0,14.747.994c8.674-2.965,14.8-12,16.615-17a6.011,6.011,0,0,1,3.553-3.2,10.685,10.685,0,0,1,5.009-.681,20.25,20.25,0,0,0-.283,3.345c0,.183,0,.364.008.568,0,1.236-2.33,3.993-6.651,6.671a4.459,4.459,0,0,0-.03,7.654c5.865,3.7,12.013,4.612,17.779,2.641,8.674-2.965,14.8-12,16.615-17a6.011,6.011,0,0,1,3.553-3.2,10.685,10.685,0,0,1,5.009-.681,20.25,20.25,0,0,0-.283,3.345c0,.183,0,.364.008.568,0,1.236-2.33,3.993-6.651,6.671a4.459,4.459,0,0,0-.03,7.654c5.865,3.7,12.013,4.612,17.779,2.641,8.674-2.965,14.795-12,16.615-17a6.011,6.011,0,0,1,3.553-3.2,10.685,10.685,0,0,1,5.009-.681,20.25,20.25,0,0,0-.283,3.345c0,.183,0,.364.008.568,0,1.236-2.33,3.993-6.651,6.671a4.459,4.459,0,0,0-.03,7.654c5.865,3.7,12.013,4.612,17.779,2.641,8.674-2.965,14.795-12,16.615-17a6.011,6.011,0,0,1,3.553-3.2,10.685,10.685,0,0,1,5.009-.681,20.25,20.25,0,0,0-.283,3.345c0,.183,0,.364.008.568,0,1.236-2.33,3.993-6.651,6.671a4.459,4.459,0,0,0-.03,7.654,26.662,26.662,0,0,0,2.918,1.593,26.275,26.275,0,0,0-1.755,2.881,4.458,4.458,0,0,0,3.863,6.609c5.083.153,8.483,1.374,9.111,2.461q.123.228.252.452a20.213,20.213,0,0,0,1.95,2.79,10.463,10.463,0,0,1-3.889,1.4C188.16,333.531,186.092,333.067,185.542,332.607Zm-39.287,37.014a3.706,3.706,0,0,1-3.266-5.792,5.944,5.944,0,0,1,3.254-1.993c1.45-.247,2.841.059,5.346,1.175a21.07,21.07,0,0,0,4.1,1.346c.292-.016.038-.015-.238.823a15,15,0,0,0-.444,2.242,30.8,30.8,0,0,1-.567,3.683,5.489,5.489,0,0,1-2.784,3.925,3.35,3.35,0,0,1-1.627.591,3.971,3.971,0,0,1-2.538-.6,3.043,3.043,0,0,1-1.218-1.3,2.66,2.66,0,0,1-.5-1.7l1.009-2.459Zm-31.177,18a3.706,3.706,0,0,1-3.266-5.792,5.947,5.947,0,0,1,3.254-1.993c1.45-.247,2.841.059,5.346,1.175a21.07,21.07,0,0,0,4.1,1.346c.292-.016.038-.015-.238.823a15,15,0,0,0-.444,2.242,30.8,30.8,0,0,1-.567,3.683,5.491,5.491,0,0,1-2.783,3.925,3.356,3.356,0,0,1-1.628.591,3.974,3.974,0,0,1-2.538-.6,3.043,3.043,0,0,1-1.218-1.3,2.66,2.66,0,0,1-.5-1.7,3.475,3.475,0,0,1,.749-2.2l.26-.254Zm-40.39,34.548c.075-.106.146-.213.228-.317a10.681,10.681,0,0,1,4-3.095,20.111,20.111,0,0,0,1.426,3.038c.092.159.185.316.292.49.512.887.156,3.484-1.349,6.9Q76.93,425.715,74.688,422.169Zm4.578-275.333c1.5,3.4,1.854,5.995,1.334,6.894-.09.147-.178.294-.264.444a20.191,20.191,0,0,0-1.442,3.085,10.508,10.508,0,0,1-3.159-2.668c-.3-.39-.565-.768-.806-1.137Q77.046,150.109,79.266,146.836Zm6.985,55.785c3.229,6.135,8.1,10,14.076,11.176,8.994,1.769,18.813-3,22.889-6.414a6.013,6.013,0,0,1,4.676-.994,10.7,10.7,0,0,1,4.679,1.915,20.169,20.169,0,0,0-1.918,2.755c-.092.158-.18.317-.277.5-.618,1.069-4.015,2.292-9.1,2.451a4.458,4.458,0,0,0-3.852,6.614c3.229,6.135,8.1,10,14.075,11.176,9,1.769,18.814-3,22.889-6.414a6.017,6.017,0,0,1,4.677-.994,10.7,10.7,0,0,1,4.678,1.915,20.348,20.348,0,0,0-1.918,2.755c-.091.158-.179.317-.277.5-.617,1.069-4.014,2.292-9.095,2.451a4.459,4.459,0,0,0-3.853,6.614c3.229,6.135,8.1,10,14.076,11.176,9,1.769,18.814-3,22.889-6.414a6.017,6.017,0,0,1,4.677-.994,10.7,10.7,0,0,1,4.678,1.915,20.348,20.348,0,0,0-1.918,2.755c-.091.158-.179.317-.277.5-.617,1.069-4.014,2.292-9.1,2.451a4.459,4.459,0,0,0-3.853,6.614,26.615,26.615,0,0,0,1.731,2.838,26.527,26.527,0,0,0-2.961,1.617,4.459,4.459,0,0,0,.041,7.655c4.326,2.675,6.66,5.432,6.66,6.687,0,.173-.007.346-.007.519a20.1,20.1,0,0,0,.293,3.39,10.464,10.464,0,0,1-4.069-.73c-2.7-1.086-4.258-2.522-4.5-3.195-1.828-5-7.965-14.03-16.645-16.985-5.767-1.964-11.911-1.044-17.769,2.659a4.459,4.459,0,0,0,.041,7.655c4.326,2.675,6.66,5.432,6.66,6.687,0,.173-.007.346-.007.519a20.1,20.1,0,0,0,.293,3.39,10.464,10.464,0,0,1-4.069-.73c-2.7-1.086-4.258-2.522-4.5-3.195-1.828-5-7.965-14.03-16.645-16.985-5.767-1.964-11.911-1.044-17.769,2.659a4.459,4.459,0,0,0,.041,7.655c4.326,2.675,6.66,5.432,6.66,6.687,0,.173-.007.346-.007.519a20.1,20.1,0,0,0,.293,3.39,10.464,10.464,0,0,1-4.069-.73c-2.7-1.086-4.258-2.522-4.5-3.195-1.828-5-7.965-14.03-16.645-16.985-5.767-1.964-11.911-1.044-17.769,2.659a4.459,4.459,0,0,0,.041,7.655c4.326,2.675,6.66,5.432,6.66,6.687,0,.173-.007.346-.007.519a20.1,20.1,0,0,0,.293,3.39,10.464,10.464,0,0,1-4.069-.73c-2.7-1.086-4.258-2.522-4.5-3.195-1.828-5-7.965-14.03-16.645-16.985a19.429,19.429,0,0,0-14.7.989,252.087,252.087,0,0,1,5.163-29.687,5.6,5.6,0,0,0,3.6-1.009,30.812,30.812,0,0,0,3.006-2.2,14.993,14.993,0,0,1,1.9-1.272c.788-.4.967-.218.75-.414a21.071,21.071,0,0,1-1.95-3.854c-.983-2.559-1.749-3.759-2.95-4.611a4.083,4.083,0,0,0-.68-.371,250.257,250.257,0,0,1,10.393-28.457,19.452,19.452,0,0,0,12.3,8.268c8.995,1.769,18.813-3,22.889-6.414a6.013,6.013,0,0,1,4.676-.994,10.7,10.7,0,0,1,4.679,1.915,20.169,20.169,0,0,0-1.918,2.755c-.092.158-.18.317-.277.5-.618,1.069-4.015,2.292-9.1,2.451a4.458,4.458,0,0,0-3.852,6.614Zm29.014-14.566a3.706,3.706,0,0,1,3.383-5.724A5.938,5.938,0,0,1,122,184.153c.94,1.133,1.37,2.49,1.657,5.217a21.055,21.055,0,0,0,.886,4.227c.159.245.032.026-.832.2a15.087,15.087,0,0,0-2.163.737,30.462,30.462,0,0,1-3.474,1.35,5.486,5.486,0,0,1-4.79-.448,3.346,3.346,0,0,1-1.327-1.114,3.975,3.975,0,0,1-.75-2.5,3.034,3.034,0,0,1,.514-1.7,2.652,2.652,0,0,1,1.219-1.282,3.474,3.474,0,0,1,2.284-.454l.35.1Zm31.177,18a3.706,3.706,0,0,1,3.383-5.724,5.941,5.941,0,0,1,3.352,1.822c.94,1.133,1.37,2.49,1.656,5.217a21.03,21.03,0,0,0,.887,4.227c.159.245.032.026-.833.2a15.17,15.17,0,0,0-2.163.737,30.473,30.473,0,0,1-3.473,1.35,5.488,5.488,0,0,1-4.791-.448,3.349,3.349,0,0,1-1.326-1.114,3.969,3.969,0,0,1-.75-2.5,3.034,3.034,0,0,1,.514-1.7,2.652,2.652,0,0,1,1.219-1.282l2.634-.356Zm31.177,18A3.706,3.706,0,0,1,181,218.331a5.944,5.944,0,0,1,3.352,1.822c.939,1.133,1.37,2.49,1.656,5.217a21.03,21.03,0,0,0,.887,4.227c.159.245.032.026-.833.2a15.17,15.17,0,0,0-2.163.737,30.473,30.473,0,0,1-3.473,1.35,5.488,5.488,0,0,1-4.791-.448,3.349,3.349,0,0,1-1.326-1.114,3.969,3.969,0,0,1-.75-2.5,3.034,3.034,0,0,1,.514-1.7,2.647,2.647,0,0,1,1.219-1.282,3.474,3.474,0,0,1,2.284-.454l.35.1Zm46.76-46.623a3.706,3.706,0,0,1,5.792-3.266,5.944,5.944,0,0,1,1.993,3.254c.247,1.45-.059,2.841-1.175,5.346a21.07,21.07,0,0,0-1.346,4.1c.016.292.015.038-.823-.239a15.142,15.142,0,0,0-2.242-.443,30.507,30.507,0,0,1-3.683-.568,5.488,5.488,0,0,1-3.925-2.783,3.35,3.35,0,0,1-.591-1.628,3.963,3.963,0,0,1,.6-2.537,3.043,3.043,0,0,1,1.3-1.218,2.66,2.66,0,0,1,1.7-.5,3.469,3.469,0,0,1,2.2.749l.254.26Zm15.222,51.89a6.014,6.014,0,0,1,4.547,1.478,10.817,10.817,0,0,1,3.656,5.54l.723,2.61a63.557,63.557,0,0,0-9.692,9.723l-1.671-.429a10.808,10.808,0,0,1-5.544-3.653c-1.794-2.289-2.426-4.312-2.3-5.018a31.493,31.493,0,0,0-.29-10.534A31.464,31.464,0,0,0,239.6,229.322Zm24.252-1.17a10.807,10.807,0,0,1-2.975-5.936c-.409-2.879.055-4.947.515-5.5a31.48,31.48,0,0,0,5.015-9.267,31.494,31.494,0,0,0,9.016,5.532,6.011,6.011,0,0,1,3.2,3.553,10.817,10.817,0,0,1,.4,6.626l-.667,2.576a62.375,62.375,0,0,0-13.286,3.6ZM278.471,36.2c.051.113.105.222.152.339a10.678,10.678,0,0,1,.682,5.009,20.162,20.162,0,0,0-3.345-.284c-.183,0-.365,0-.569.008-1.023,0-3.089-1.618-5.288-4.616Q274.27,36.361,278.471,36.2Zm73.474,141.42A3.705,3.705,0,0,1,357.668,181a5.936,5.936,0,0,1-1.821,3.352c-1.133.939-2.49,1.37-5.217,1.656a21.03,21.03,0,0,0-4.227.887c-.245.159-.026.032-.205-.833a15.17,15.17,0,0,0-.737-2.163,30.473,30.473,0,0,1-1.35-3.473,5.488,5.488,0,0,1,.448-4.791,3.349,3.349,0,0,1,1.114-1.326,3.969,3.969,0,0,1,2.5-.75,3.034,3.034,0,0,1,1.7.514,2.647,2.647,0,0,1,1.282,1.219,3.474,3.474,0,0,1,.454,2.284l-.1.35Zm-4.984,51.408a31.464,31.464,0,0,0-.283,10.574,6.014,6.014,0,0,1-1.478,4.547,10.817,10.817,0,0,1-5.54,3.656l-2.612.723a63.679,63.679,0,0,0-9.721-9.692l.429-1.671a10.808,10.808,0,0,1,3.653-5.544c2.289-1.794,4.312-2.426,5.018-2.3A31.493,31.493,0,0,0,346.961,229.027Zm3.278,49.32a62.747,62.747,0,0,0-3.588-13.272l1.2-1.222a10.807,10.807,0,0,1,5.936-2.975c2.879-.409,4.947.055,5.5.515a31.48,31.48,0,0,0,9.267,5.015,31.494,31.494,0,0,0-5.532,9.016,6.011,6.011,0,0,1-3.553,3.2,10.817,10.817,0,0,1-6.626.4Zm-21.422-21.1.988,1.453a2.536,2.536,0,0,0,.265.389l.626.92.932,1.386c.193.3.363.617.532.933a2.016,2.016,0,0,1-3.023.615c-.441-.525.682-.221.625-.551a1.994,1.994,0,0,0-2.928,1.118,3.417,3.417,0,0,0,.562,3.459,5.935,5.935,0,0,0,3.9,1.5c.87-.047,1.958-1.1,2.761-1.07a2.027,2.027,0,0,1,.747.161c.181.438.358.877.544,1.311.072.154.126.314.193.47a12.024,12.024,0,0,1-.31,1.6,13.09,13.09,0,0,0-.395,1.607,2,2,0,0,0,1.164.944c-.591.605-1.054-.632-1.8-.63-1.163.007-1.553,1.8-1.7,3.292-.029.465-.029.988-.014,1.529s.094,1.09.169,1.617a8.328,8.328,0,0,1,.2,2.562,2.289,2.289,0,0,1-1.929,2.024c-2.485.194-2.144-2.483-.023-1.459.214-.729-.287-1.3-1.011-1.613a3.835,3.835,0,0,0-2.4-.187,3.044,3.044,0,0,0-2.066,1.9,3.572,3.572,0,0,0-.182,2.677,5.529,5.529,0,0,0,2.457,2.528,7.507,7.507,0,0,0,4.29,1.073,15.864,15.864,0,0,0,2.968-.953c1.1-.395,2.163-.7,2.722-.237.638.524.153,1.524-.413,2.075-1.859,1.72-4.494,1.214-6.563,2.179a6.91,6.91,0,0,0-2.656,2.234,3.534,3.534,0,0,0-.756,3.133,7.328,7.328,0,0,0,2.434,3.464c1.233,1.062,2.713,1.855,3.986,1.6a4.382,4.382,0,0,0,2.544-2.023,2.418,2.418,0,0,0-.158-3.069c.1,1.8-1.051,2.054-1.91,1.548a1.721,1.721,0,0,1-.234-2.915c.93-.953,2.777-.491,3.76.279a1.89,1.89,0,0,1,.508,1.112l-.22,1.172c-.109.546-.2,1.1-.326,1.638l-.462,1.606c-.317,1.068-.605,2.147-.957,3.2l-1.234,3.108c-.217.509-.391,1.038-.645,1.531a2.5,2.5,0,0,0-.256.5l-.51,1c-.432.813-.841,1.639-1.289,2.443a2.1,2.1,0,0,1-2.065-2.341c.249-.638.529.479.792.268a1.975,1.975,0,0,0-2.419-1.972,3.434,3.434,0,0,0-2.693,2.226,5.554,5.554,0,0,0,.663,4.144c.471.727,1.935,1.148,2.3,1.856a2.011,2.011,0,0,1,.226.718c-.283.38-.572.757-.883,1.117-.106.13-.209.263-.314.4a11.383,11.383,0,0,1-1.289.436L292.5,286.136V241.153a3.731,3.731,0,0,0,.23-.388c.4-.788.025-2.24.457-2.931a2.179,2.179,0,0,1,.513-.578l1.413.133.5.093c.831.643,1.636,1.679,2.42,2.246a2.09,2.09,0,0,0,1.408-.582c.232.8-1.08.631-1.453,1.287-.584,1.05.807,2.124,1.993,3.136a10.128,10.128,0,0,0,2.826,1.371,12.578,12.578,0,0,1,2.293,1.181,2.165,2.165,0,0,1,.824,2.608c-1.071,2.252-3.27.738-1.3-.646-1.119-1-2.857.494-3.246,2.012a3.227,3.227,0,0,0,.587,2.811,4.269,4.269,0,0,0,2.245,1.448,5.02,5.02,0,0,0,3.432-.9,7.455,7.455,0,0,0,3.057-3.162,15.67,15.67,0,0,0,.672-3.074c.2-1.138.462-2.2,1.148-2.47.8-.341,1.371.673,1.56,1.448.557,2.484-1.173,4.473-1.355,6.722a7.27,7.27,0,0,0,.562,3.47,4.182,4.182,0,0,0,.958,1.353,3.638,3.638,0,0,0,1.364.869,7.51,7.51,0,0,0,4.276-.425c1.528-.527,2.925-1.382,3.378-2.641a4.109,4.109,0,0,0-.522-3.169c-.61-1.012-1.533-1.813-2.692-1.452,1.593.825,1.181,2.016.336,2.479-.868.482-2.089.323-2.616-1.28-.386-1.251.944-2.625,2.116-3.106a1.931,1.931,0,0,1,1.228.087c.312.253.626.5.924.773l2.4,2.334c.391.4.81.769,1.177,1.186l1.075,1.278Zm-30.343,77.5a3.538,3.538,0,0,0,1.293.883,4.4,4.4,0,0,0,1.723.291,2.5,2.5,0,0,0,2.6-1.62c-1.528.917-2.332.035-2.319-.952.01-1.009.754-2,2.426-1.6,1.269.271,1.8,2.113,1.633,3.379a1.851,1.851,0,0,1-.66,1c-1.442.5-2.922.9-4.377,1.359-1.077.285-2.182.462-3.272.693l-1.642.322c-.546.11-1.106.131-1.659.2l-1.721.171v-40l18.8,18.8a4.439,4.439,0,0,0-2.281,1.167,3.364,3.364,0,0,0-.7,1.457,9.555,9.555,0,0,0-.232,1.98,7.33,7.33,0,0,0,1.2,4.215,16.371,16.371,0,0,0,2.33,2.119c.9.767,1.7,1.541,1.575,2.241-.142.8-1.267.856-2.036.627-2.422-.745-3.259-3.186-5.143-4.524a6.639,6.639,0,0,0-3.286-1.232,4.115,4.115,0,0,0-3.088.888,8.135,8.135,0,0,0-1.767,3.9C297.565,332.07,297.613,333.737,298.474,334.737ZM281.164,523.5a5.94,5.94,0,0,1-.1-3.814c.511-1.379,1.471-2.431,3.69-4.043a21.1,21.1,0,0,0,3.217-2.88c.133-.261.006-.041.594.618a15.042,15.042,0,0,0,1.72,1.5,30.566,30.566,0,0,1,2.906,2.334,5.488,5.488,0,0,1,2.007,4.372,3.343,3.343,0,0,1-.3,1.706,3.97,3.97,0,0,1-1.787,1.9,3.037,3.037,0,0,1-1.731.406,2.648,2.648,0,0,1-1.72-.415,3.8,3.8,0,0,1-1.069-.936,2.387,2.387,0,0,1-.466-.815l-.312.133A3.706,3.706,0,0,1,281.164,523.5Zm13.734-36.2a3.97,3.97,0,0,1-1.787,1.9,3.037,3.037,0,0,1-1.731.406,2.648,2.648,0,0,1-1.72-.415,3.471,3.471,0,0,1-1.535-1.751l-.09-.352-.222.485a3.706,3.706,0,0,1-6.649-.068,5.94,5.94,0,0,1-.1-3.814c.511-1.379,1.471-2.431,3.69-4.043a21.1,21.1,0,0,0,3.217-2.88c.133-.261.006-.041.594.618a15.042,15.042,0,0,0,1.72,1.5,30.566,30.566,0,0,1,2.906,2.334,5.488,5.488,0,0,1,2.007,4.372A3.343,3.343,0,0,1,294.9,487.294Zm0-36a3.97,3.97,0,0,1-1.787,1.9,3.037,3.037,0,0,1-1.731.406,2.648,2.648,0,0,1-1.72-.415l-1.625-2.1-.222.485a3.706,3.706,0,0,1-6.649-.068,5.94,5.94,0,0,1-.1-3.814c.511-1.379,1.471-2.431,3.69-4.043a21.1,21.1,0,0,0,3.217-2.88c.133-.261.006-.041.594.618a15.042,15.042,0,0,0,1.72,1.5,30.566,30.566,0,0,1,2.906,2.334,5.488,5.488,0,0,1,2.007,4.372A3.343,3.343,0,0,1,294.9,451.294Zm0-36a3.97,3.97,0,0,1-1.787,1.9,3.037,3.037,0,0,1-1.731.406,2.648,2.648,0,0,1-1.72-.415,3.471,3.471,0,0,1-1.535-1.751l-.09-.352-.222.485a3.706,3.706,0,0,1-6.649-.068,5.94,5.94,0,0,1-.1-3.814c.511-1.379,1.471-2.431,3.69-4.043a21.1,21.1,0,0,0,3.217-2.88c.133-.261.006-.041.594.618a15.042,15.042,0,0,0,1.72,1.5,30.566,30.566,0,0,1,2.906,2.334,5.488,5.488,0,0,1,2.007,4.372A3.343,3.343,0,0,1,294.9,415.294Zm-18.877-82.863a10.128,10.128,0,0,0-2.826-1.371,12.578,12.578,0,0,1-2.293-1.181,2.165,2.165,0,0,1-.824-2.608c1.071-2.252,3.27-.738,1.3.646,1.12,1,2.857-.494,3.246-2.012a3.227,3.227,0,0,0-.587-2.811,4.269,4.269,0,0,0-2.245-1.448,5.02,5.02,0,0,0-3.432.9,7.455,7.455,0,0,0-3.057,3.162,15.743,15.743,0,0,0-.672,3.074c-.2,1.138-.462,2.2-1.148,2.47-.8.341-1.371-.673-1.56-1.448-.557-2.484,1.173-4.473,1.355-6.722a7.276,7.276,0,0,0-.553-3.444L283.5,298.864v35.983a3.731,3.731,0,0,0-.23.388c-.4.788-.025,2.24-.457,2.931a2.179,2.179,0,0,1-.513.578l-1.413-.133-.5-.093c-.831-.643-1.636-1.679-2.42-2.246a2.09,2.09,0,0,0-1.408.582c-.232-.8,1.08-.631,1.453-1.287C278.6,334.517,277.207,333.443,276.021,332.431ZM245.3,316l-.932-1.386c-.193-.3-.363-.617-.532-.933a2.016,2.016,0,0,1,3.023-.615c.441.525-.682.221-.625.551a1.994,1.994,0,0,0,2.928-1.118,3.417,3.417,0,0,0-.562-3.459,5.935,5.935,0,0,0-3.9-1.5c-.87.047-1.958,1.1-2.761,1.07a2.027,2.027,0,0,1-.747-.161c-.181-.438-.358-.877-.544-1.311-.072-.154-.126-.314-.193-.47a12.024,12.024,0,0,1,.31-1.6,13.09,13.09,0,0,0,.4-1.607,2,2,0,0,0-1.164-.944c.591-.605,1.054.632,1.8.63,1.163-.007,1.553-1.8,1.705-3.292.029-.465.029-.988.014-1.53s-.094-1.089-.169-1.616a8.328,8.328,0,0,1-.2-2.562,2.288,2.288,0,0,1,1.929-2.024c2.485-.194,2.144,2.483.023,1.459-.214.729.287,1.3,1.011,1.613a3.835,3.835,0,0,0,2.4.187,3.043,3.043,0,0,0,2.066-1.9,3.575,3.575,0,0,0,.183-2.676,5.544,5.544,0,0,0-2.458-2.529,7.514,7.514,0,0,0-4.29-1.072,15.864,15.864,0,0,0-2.968.953c-1.1.395-2.163.7-2.722.237-.638-.524-.153-1.524.413-2.075,1.859-1.72,4.494-1.214,6.563-2.179a6.91,6.91,0,0,0,2.656-2.234,3.534,3.534,0,0,0,.756-3.133,7.335,7.335,0,0,0-2.434-3.465c-1.233-1.061-2.713-1.854-3.986-1.6a4.378,4.378,0,0,0-2.543,2.023,2.417,2.417,0,0,0,.157,3.069c-.1-1.8,1.051-2.054,1.91-1.548a1.721,1.721,0,0,1,.234,2.915c-.93.953-2.777.491-3.76-.279a1.89,1.89,0,0,1-.508-1.112l.22-1.172c.109-.546.2-1.1.326-1.638l.462-1.607c.317-1.067.6-2.146.957-3.2l1.234-3.108c.217-.51.391-1.039.645-1.531a2.478,2.478,0,0,0,.256-.5l.51-1c.432-.813.841-1.639,1.289-2.443a2.1,2.1,0,0,1,2.065,2.341c-.249.638-.529-.479-.792-.268a1.975,1.975,0,0,0,2.419,1.972,3.434,3.434,0,0,0,2.693-2.226,5.554,5.554,0,0,0-.663-4.144c-.47-.727-1.935-1.148-2.3-1.856a2.011,2.011,0,0,1-.226-.718c.283-.38.572-.757.883-1.117.106-.13.21-.263.314-.4.959-.411,2.2-.639,3.108-1.016a1.937,1.937,0,0,0,.254-1.463c.825.215-.033,1.216.338,1.859.581,1,2.348.466,3.741-.13a6.408,6.408,0,0,0,1.3-.789c.441-.305.908-.612,1.331-.935a12.815,12.815,0,0,1,2.125-1.45,2.5,2.5,0,0,1,1.6-.114,1.9,1.9,0,0,1,1.111.763c.7,1.031.417,1.777-.044,2-.436.251-1.113-.033-1.214-1.261-1.4.5-.956,2.782.16,3.877,1.588,1.557,3.891.847,5.1-.337a3.364,3.364,0,0,0,.7-1.457,9.555,9.555,0,0,0,.232-1.98,7.33,7.33,0,0,0-1.2-4.215,16.371,16.371,0,0,0-2.33-2.119c-.9-.767-1.7-1.541-1.575-2.241.142-.8,1.267-.856,2.036-.627,2.422.745,3.259,3.186,5.143,4.523a6.631,6.631,0,0,0,3.286,1.233,4.115,4.115,0,0,0,3.088-.888,8.135,8.135,0,0,0,1.767-3.9c.311-1.57.263-3.237-.6-4.237a3.552,3.552,0,0,0-1.293-.884,4.414,4.414,0,0,0-1.723-.29,2.5,2.5,0,0,0-2.6,1.62c1.528-.917,2.332-.035,2.319.952-.01,1.009-.754,2-2.426,1.6-1.269-.271-1.8-2.113-1.633-3.379a1.851,1.851,0,0,1,.66-1c1.442-.5,2.922-.9,4.377-1.359,1.077-.285,2.182-.462,3.272-.693l1.642-.322c.546-.111,1.106-.131,1.659-.2l1.721-.171v49l-34.638,34.639-1.679-2.017-.989-1.454a2.571,2.571,0,0,0-.264-.388ZM294.836,52.5a5.94,5.94,0,0,1,.1,3.814c-.511,1.379-1.471,2.431-3.69,4.043a21.1,21.1,0,0,0-3.217,2.88c-.133.261-.006.041-.594-.618a15.042,15.042,0,0,0-1.72-1.5,30.566,30.566,0,0,1-2.906-2.334,5.488,5.488,0,0,1-2.007-4.372,3.343,3.343,0,0,1,.3-1.706,3.97,3.97,0,0,1,1.787-1.9,3.037,3.037,0,0,1,1.731-.406,2.648,2.648,0,0,1,1.72.415,3.8,3.8,0,0,1,1.069.936,2.387,2.387,0,0,1,.466.815l.312-.133A3.706,3.706,0,0,1,294.836,52.5ZM281.1,88.706a3.97,3.97,0,0,1,1.787-1.9,3.037,3.037,0,0,1,1.731-.406,2.648,2.648,0,0,1,1.72.415,3.471,3.471,0,0,1,1.535,1.751l.09.352.222-.485a3.706,3.706,0,0,1,6.649.068,5.94,5.94,0,0,1,.1,3.814c-.511,1.379-1.471,2.431-3.69,4.043a21.1,21.1,0,0,0-3.217,2.88c-.133.261-.006.041-.594-.618a15.042,15.042,0,0,0-1.72-1.5,30.566,30.566,0,0,1-2.906-2.334,5.488,5.488,0,0,1-2.007-4.372A3.343,3.343,0,0,1,281.1,88.706Zm0,36a3.97,3.97,0,0,1,1.787-1.9,3.037,3.037,0,0,1,1.731-.406,2.648,2.648,0,0,1,1.72.415l1.625,2.1.222-.485a3.706,3.706,0,0,1,6.649.068,5.94,5.94,0,0,1,.1,3.814c-.511,1.379-1.471,2.431-3.69,4.043a21.1,21.1,0,0,0-3.217,2.88c-.133.261-.006.041-.594-.618a15.042,15.042,0,0,0-1.72-1.5,30.566,30.566,0,0,1-2.906-2.334,5.488,5.488,0,0,1-2.007-4.372A3.343,3.343,0,0,1,281.1,124.706Zm0,36a3.97,3.97,0,0,1,1.787-1.9,3.037,3.037,0,0,1,1.731-.406,2.648,2.648,0,0,1,1.72.415,3.471,3.471,0,0,1,1.535,1.751l.09.352.222-.485a3.706,3.706,0,0,1,6.649.068,5.94,5.94,0,0,1,.1,3.814c-.511,1.379-1.471,2.431-3.69,4.043a21.1,21.1,0,0,0-3.217,2.88c-.133.261-.006.041-.594-.618a15.042,15.042,0,0,0-1.72-1.5,30.566,30.566,0,0,1-2.906-2.334,5.488,5.488,0,0,1-2.007-4.372A3.343,3.343,0,0,1,281.1,160.706ZM256.12,326.983a1.443,1.443,0,0,1-.767.029l2.915-2.916C258.45,325.285,257.224,326.53,256.12,326.983Zm56.944-5.873c.436-.251,1.113.033,1.214,1.261a1.254,1.254,0,0,0,.8-.932l1.687,1.688a5.255,5.255,0,0,1-1.032.633,2.5,2.5,0,0,1-1.6.114,1.9,1.9,0,0,1-1.111-.763C312.316,322.08,312.6,321.334,313.064,321.11Zm-3.489-113.663a31.49,31.49,0,0,0,5.042,9.3,6.016,6.016,0,0,1,.994,4.677,10.816,10.816,0,0,1-2.97,5.936l-1.881,1.913a62.813,62.813,0,0,0-13.293-3.545l-.455-1.63a10.811,10.811,0,0,1,.391-6.628c1.086-2.7,2.522-4.258,3.195-4.5A31.459,31.459,0,0,0,309.575,207.447ZM297.4,37.469c.183-.453.376-.862.573-1.25q3.963.156,7.894.434c-2.192,2.986-4.253,4.6-5.289,4.6-.172-.005-.344-.007-.517-.007a20.136,20.136,0,0,0-3.392.293A10.49,10.49,0,0,1,297.4,37.469ZM216.746,261.383a6.016,6.016,0,0,1,4.677-.994,10.816,10.816,0,0,1,5.936,2.97l1.913,1.881a62.412,62.412,0,0,0-3.56,13.3l-1.615.451a10.811,10.811,0,0,1-6.628-.391c-2.7-1.086-4.258-2.522-4.5-3.195a31.459,31.459,0,0,0-5.518-8.977A31.49,31.49,0,0,0,216.746,261.383Zm-56.311,26.43a3.706,3.706,0,0,1,.068-6.649,5.94,5.94,0,0,1,3.814-.1c1.379.511,2.431,1.471,4.043,3.69a21.1,21.1,0,0,0,2.88,3.217c.261.133.041.006-.618.594a15.042,15.042,0,0,0-1.5,1.72,30.566,30.566,0,0,1-2.334,2.906,5.488,5.488,0,0,1-4.372,2.007,3.343,3.343,0,0,1-1.706-.3,3.97,3.97,0,0,1-1.9-1.787,3.037,3.037,0,0,1-.406-1.731,2.648,2.648,0,0,1,.415-1.72,3.471,3.471,0,0,1,1.751-1.535l.352-.09Zm-36,0a3.706,3.706,0,0,1,.068-6.649,5.94,5.94,0,0,1,3.814-.1c1.379.511,2.431,1.471,4.043,3.69a21.1,21.1,0,0,0,2.88,3.217c.261.133.041.006-.618.594a15.042,15.042,0,0,0-1.5,1.72,30.566,30.566,0,0,1-2.334,2.906,5.488,5.488,0,0,1-4.372,2.007,3.343,3.343,0,0,1-1.706-.3,3.97,3.97,0,0,1-1.9-1.787,3.037,3.037,0,0,1-.406-1.731,2.648,2.648,0,0,1,.415-1.72l2.1-1.625Zm-36,0a3.706,3.706,0,0,1,.068-6.649,5.94,5.94,0,0,1,3.814-.1c1.379.511,2.431,1.471,4.043,3.69a21.1,21.1,0,0,0,2.88,3.217c.261.133.041.006-.618.594a15.042,15.042,0,0,0-1.5,1.72,30.566,30.566,0,0,1-2.334,2.906,5.488,5.488,0,0,1-4.372,2.007,3.343,3.343,0,0,1-1.706-.3,3.97,3.97,0,0,1-1.9-1.787,3.037,3.037,0,0,1-.406-1.731,2.648,2.648,0,0,1,.415-1.72,3.471,3.471,0,0,1,1.751-1.535l.352-.09Zm-36,0a3.706,3.706,0,0,1,.068-6.649,5.94,5.94,0,0,1,3.814-.1c1.379.511,2.431,1.471,4.043,3.69a21.1,21.1,0,0,0,2.88,3.217c.261.133.041.006-.618.594a15.042,15.042,0,0,0-1.5,1.72,30.566,30.566,0,0,1-2.334,2.906,5.488,5.488,0,0,1-4.372,2.007,3.343,3.343,0,0,1-1.706-.3,3.97,3.97,0,0,1-1.9-1.787,3.037,3.037,0,0,1-.406-1.731,2.648,2.648,0,0,1,.415-1.72,3.8,3.8,0,0,1,.936-1.069,2.387,2.387,0,0,1,.815-.466Zm-11.164,12.8c0,1.023-1.618,3.089-4.617,5.288q-.294-4.166-.455-8.368c.113-.051.222-.105.339-.152a10.678,10.678,0,0,1,5.009-.682,20.162,20.162,0,0,0-.284,3.345C41.263,300.223,41.265,300.4,41.271,300.609Zm.267-21.281a10.49,10.49,0,0,1-4.069-.731c-.453-.183-.862-.376-1.25-.573q.156-3.963.434-7.894c2.986,2.192,4.6,4.253,4.6,5.289-.005.172-.007.344-.007.517A20.136,20.136,0,0,0,41.538,279.328Zm51-103.526a15.128,15.128,0,0,0-2.163.737,30.462,30.462,0,0,1-3.474,1.35,5.486,5.486,0,0,1-4.79-.448,3.335,3.335,0,0,1-1.326-1.114,3.962,3.962,0,0,1-.75-2.5,3.024,3.024,0,0,1,.513-1.7,2.656,2.656,0,0,1,1.219-1.282,3.821,3.821,0,0,1,1.345-.458,2.386,2.386,0,0,1,.939,0l.041-.337a3.706,3.706,0,0,1,3.383-5.724,5.943,5.943,0,0,1,3.353,1.822c.939,1.133,1.37,2.49,1.656,5.217a21.055,21.055,0,0,0,.886,4.227C93.525,175.842,93.4,175.623,92.534,175.8Zm-27-5.413a10.7,10.7,0,0,1,4.679,1.915,20.141,20.141,0,0,0-1.919,2.754c-.091.158-.18.318-.277.5-.514.889-2.955,1.883-6.684,2.284q1.84-3.782,3.8-7.491C65.271,170.362,65.4,170.37,65.539,170.389Zm-4.2,227.794c3.72.4,6.157,1.392,6.678,2.3q.123.227.252.451a20.178,20.178,0,0,0,1.951,2.791,10.513,10.513,0,0,1-3.89,1.4c-.5.071-.962.107-1.408.13Q63.077,401.751,61.341,398.183Zm22.583,11.543a2.656,2.656,0,0,1-.5-1.7,3.8,3.8,0,0,1,.277-1.393,2.379,2.379,0,0,1,.472-.812l-.271-.2a3.706,3.706,0,0,1-3.265-5.792,5.941,5.941,0,0,1,3.253-1.993c1.451-.247,2.841.059,5.347,1.175a21.047,21.047,0,0,0,4.1,1.346c.292-.016.038-.015-.238.823a15.014,15.014,0,0,0-.443,2.242,30.938,30.938,0,0,1-.568,3.683,5.491,5.491,0,0,1-2.783,3.925,3.353,3.353,0,0,1-1.628.591,3.974,3.974,0,0,1-2.538-.6A3.036,3.036,0,0,1,83.924,409.726Zm129.06-109.15a6.011,6.011,0,0,1,3.553-3.2,10.817,10.817,0,0,1,6.626-.4l2.576.667a62.375,62.375,0,0,0,3.6,13.286l-1.189,1.213a10.807,10.807,0,0,1-5.936,2.975c-2.879.409-4.947-.055-5.5-.515a31.48,31.48,0,0,0-9.267-5.015A31.494,31.494,0,0,0,212.984,300.576Zm53.441,67.977a31.49,31.49,0,0,0-5.042-9.3,6.016,6.016,0,0,1-.994-4.677,10.816,10.816,0,0,1,2.97-5.936l1.881-1.913a62.412,62.412,0,0,0,13.3,3.56l.451,1.615a10.811,10.811,0,0,1-.391,6.628c-1.086,2.7-2.522,4.258-3.195,4.5A31.459,31.459,0,0,0,266.425,368.553ZM278.6,538.531c-.183.453-.376.862-.573,1.25q-3.963-.156-7.894-.434c2.192-2.986,4.253-4.6,5.289-4.6.172,0,.344.007.517.007a20.136,20.136,0,0,0,3.392-.293A10.49,10.49,0,0,1,278.6,538.531Zm80.657-223.914a6.016,6.016,0,0,1-4.677.994,10.816,10.816,0,0,1-5.936-2.97l-1.913-1.881a62.428,62.428,0,0,0,3.56-13.3l1.615-.451a10.811,10.811,0,0,1,6.628.391c2.7,1.086,4.258,2.522,4.5,3.195a31.459,31.459,0,0,0,5.518,8.977A31.49,31.49,0,0,0,359.254,314.617Zm56.311-26.43a3.706,3.706,0,0,1-.068,6.649,5.94,5.94,0,0,1-3.814.1c-1.379-.511-2.431-1.471-4.043-3.69a21.1,21.1,0,0,0-2.88-3.217c-.261-.133-.041-.006.618-.594a15.042,15.042,0,0,0,1.5-1.72,30.566,30.566,0,0,1,2.334-2.906,5.488,5.488,0,0,1,4.372-2.007,3.343,3.343,0,0,1,1.706.3,3.97,3.97,0,0,1,1.9,1.787,3.037,3.037,0,0,1,.406,1.731,2.648,2.648,0,0,1-.415,1.72,3.471,3.471,0,0,1-1.751,1.535l-.352.09Zm36,0a3.706,3.706,0,0,1-.068,6.649,5.94,5.94,0,0,1-3.814.1c-1.379-.511-2.431-1.471-4.043-3.69a21.1,21.1,0,0,0-2.88-3.217c-.261-.133-.041-.006.618-.594a15.042,15.042,0,0,0,1.5-1.72,30.566,30.566,0,0,1,2.334-2.906,5.488,5.488,0,0,1,4.372-2.007,3.343,3.343,0,0,1,1.706.3,3.97,3.97,0,0,1,1.9,1.787,3.037,3.037,0,0,1,.406,1.731,2.648,2.648,0,0,1-.415,1.72l-2.1,1.625Zm36,0a3.706,3.706,0,0,1-.068,6.649,5.94,5.94,0,0,1-3.814.1c-1.379-.511-2.431-1.471-4.043-3.69a21.1,21.1,0,0,0-2.88-3.217c-.261-.133-.041-.006.618-.594a15.042,15.042,0,0,0,1.5-1.72,30.566,30.566,0,0,1,2.334-2.906,5.488,5.488,0,0,1,4.372-2.007,3.343,3.343,0,0,1,1.706.3,3.97,3.97,0,0,1,1.9,1.787,3.037,3.037,0,0,1,.406,1.731,2.648,2.648,0,0,1-.415,1.72,3.471,3.471,0,0,1-1.751,1.535l-.352.09Zm36,0a3.706,3.706,0,0,1-.068,6.649,5.94,5.94,0,0,1-3.814.1c-1.379-.511-2.431-1.471-4.043-3.69a21.1,21.1,0,0,0-2.88-3.217c-.261-.133-.041-.006.618-.594a15.042,15.042,0,0,0,1.5-1.72,30.566,30.566,0,0,1,2.334-2.906,5.488,5.488,0,0,1,4.372-2.007,3.343,3.343,0,0,1,1.706.3,3.97,3.97,0,0,1,1.9,1.787,3.037,3.037,0,0,1,.406,1.731,2.648,2.648,0,0,1-.415,1.72,3.8,3.8,0,0,1-.936,1.069,2.387,2.387,0,0,1-.815.466Zm11.164-12.8c0-1.022,1.618-3.089,4.615-5.287q.294,4.166.456,8.367c-.112.051-.221.105-.338.152a10.678,10.678,0,0,1-5.009.682,20.162,20.162,0,0,0,.284-3.345C534.737,275.777,534.735,275.6,534.729,275.391Zm-.267,21.281a10.49,10.49,0,0,1,4.069.731c.453.183.862.376,1.25.573q-.156,3.963-.434,7.894c-2.986-2.192-4.6-4.253-4.6-5.289,0-.172.007-.344.007-.517A20.136,20.136,0,0,0,534.462,296.672Zm-51,103.526a15.128,15.128,0,0,0,2.163-.737,30.462,30.462,0,0,1,3.474-1.35,5.486,5.486,0,0,1,4.79.448,3.327,3.327,0,0,1,1.326,1.114,3.962,3.962,0,0,1,.75,2.5,3.024,3.024,0,0,1-.513,1.7,2.656,2.656,0,0,1-1.219,1.282,3.8,3.8,0,0,1-1.345.457,2.369,2.369,0,0,1-.939,0l-.041.337a3.705,3.705,0,0,1-3.383,5.723,5.936,5.936,0,0,1-3.353-1.821c-.939-1.133-1.37-2.49-1.656-5.217a21.055,21.055,0,0,0-.886-4.227C482.475,400.158,482.6,400.377,483.466,400.2Zm27,5.413a10.7,10.7,0,0,1-4.679-1.915,20.141,20.141,0,0,0,1.919-2.754c.091-.158.18-.318.277-.5.514-.889,2.952-1.882,6.678-2.283q-1.841,3.78-3.8,7.489C510.724,405.638,510.594,405.629,510.461,405.611Zm-.793-234.733c.5-.071.959-.107,1.4-.13q1.846,3.5,3.582,7.068c-3.717-.4-6.152-1.392-6.673-2.3q-.123-.226-.252-.451a20.178,20.178,0,0,0-1.951-2.791A10.513,10.513,0,0,1,509.668,170.878Zm-2.771,24.9a19.445,19.445,0,0,0,12.261-8.247,250.038,250.038,0,0,1,10.357,28.327,5.61,5.61,0,0,0-2.626,2.679,30.789,30.789,0,0,0-1.5,3.41A15.04,15.04,0,0,1,524.379,224c-.484.739-.729.673-.443.734a21.109,21.109,0,0,1,3.616,2.362c2.131,1.726,3.394,2.381,4.86,2.518a3.981,3.981,0,0,0,.765-.017,251.918,251.918,0,0,1,5.2,29.82,19.443,19.443,0,0,0-14.743-.992c-8.674,2.965-14.795,12-16.615,17a6.011,6.011,0,0,1-3.553,3.2,10.685,10.685,0,0,1-5.009.681,20.25,20.25,0,0,0,.283-3.345c0-.183,0-.364-.008-.568,0-1.236,2.33-3.993,6.651-6.671a4.459,4.459,0,0,0,.03-7.654c-5.865-3.7-12.013-4.612-17.779-2.641-8.674,2.965-14.795,12-16.615,17a6.011,6.011,0,0,1-3.553,3.2,10.685,10.685,0,0,1-5.009.681,20.25,20.25,0,0,0,.283-3.345c0-.183,0-.364-.008-.568,0-1.236,2.33-3.993,6.651-6.671a4.459,4.459,0,0,0,.03-7.654c-5.865-3.7-12.013-4.612-17.779-2.641-8.674,2.965-14.795,12-16.615,17a6.011,6.011,0,0,1-3.553,3.2,10.685,10.685,0,0,1-5.009.681,20.25,20.25,0,0,0,.283-3.345c0-.183,0-.364-.008-.568,0-1.236,2.33-3.993,6.651-6.671a4.459,4.459,0,0,0,.03-7.654c-5.865-3.7-12.013-4.612-17.779-2.641-8.674,2.965-14.795,12-16.615,17a6.011,6.011,0,0,1-3.553,3.2,10.685,10.685,0,0,1-5.009.681,20.25,20.25,0,0,0,.283-3.345c0-.183,0-.364-.008-.568,0-1.236,2.33-3.993,6.651-6.671a4.459,4.459,0,0,0,.03-7.654,26.662,26.662,0,0,0-2.918-1.593,26.431,26.431,0,0,0,1.755-2.881,4.458,4.458,0,0,0-3.863-6.609c-5.083-.153-8.483-1.374-9.111-2.461q-.123-.228-.252-.452a20.213,20.213,0,0,0-1.95-2.79,10.463,10.463,0,0,1,3.889-1.4c2.88-.409,4.948.055,5.5.515,4.082,3.414,13.913,8.168,22.908,6.387,5.976-1.183,10.837-5.052,14.058-11.188a4.459,4.459,0,0,0-3.863-6.609c-5.084-.153-8.483-1.374-9.111-2.461q-.123-.228-.253-.452a20.119,20.119,0,0,0-1.949-2.79,10.463,10.463,0,0,1,3.889-1.4c2.88-.409,4.948.055,5.5.515,4.082,3.414,13.912,8.168,22.908,6.387,5.976-1.183,10.837-5.052,14.058-11.188a4.459,4.459,0,0,0-3.863-6.609c-5.084-.153-8.483-1.374-9.111-2.461q-.123-.228-.253-.452a20.119,20.119,0,0,0-1.949-2.79,10.463,10.463,0,0,1,3.889-1.4c2.88-.409,4.948.055,5.5.515,4.082,3.414,13.912,8.168,22.908,6.387,5.976-1.183,10.837-5.052,14.058-11.188a4.459,4.459,0,0,0-3.863-6.609c-5.084-.153-8.483-1.374-9.111-2.461q-.123-.228-.253-.452a20.119,20.119,0,0,0-1.949-2.79,10.457,10.457,0,0,1,3.889-1.4c2.879-.409,4.948.055,5.5.515C488.071,192.807,497.9,197.561,506.9,195.78Zm-108.329,28.6a3.706,3.706,0,0,1,3.266,5.792,5.944,5.944,0,0,1-3.254,1.993c-1.45.247-2.841-.059-5.346-1.175a21.07,21.07,0,0,0-4.1-1.346c-.292.016-.038.015.238-.823a15,15,0,0,0,.444-2.242,30.507,30.507,0,0,1,.568-3.683,5.488,5.488,0,0,1,2.783-3.925,3.339,3.339,0,0,1,1.628-.591,3.963,3.963,0,0,1,2.537.6,3.043,3.043,0,0,1,1.218,1.3,2.66,2.66,0,0,1,.5,1.7,3.469,3.469,0,0,1-.749,2.2l-.26.254Zm31.177-18a3.706,3.706,0,0,1,3.266,5.792,5.944,5.944,0,0,1-3.254,1.993c-1.45.247-2.841-.059-5.346-1.175a21.07,21.07,0,0,0-4.1-1.346c-.292.016-.038.015.238-.823a15,15,0,0,0,.444-2.242,30.8,30.8,0,0,1,.567-3.683,5.489,5.489,0,0,1,2.784-3.925,3.34,3.34,0,0,1,1.627-.591,3.965,3.965,0,0,1,2.538.6,3.043,3.043,0,0,1,1.218,1.3,2.66,2.66,0,0,1,.5,1.7l-1.009,2.459Zm31.177-18a3.706,3.706,0,0,1,3.266,5.792,5.947,5.947,0,0,1-3.254,1.993c-1.45.247-2.841-.059-5.346-1.175a21.07,21.07,0,0,0-4.1-1.346c-.292.016-.038.015.238-.823a15,15,0,0,0,.444-2.242,30.8,30.8,0,0,1,.567-3.683,5.491,5.491,0,0,1,2.783-3.925,3.346,3.346,0,0,1,1.628-.591,3.968,3.968,0,0,1,2.538.6,3.043,3.043,0,0,1,1.218,1.3,2.66,2.66,0,0,1,.5,1.7,3.475,3.475,0,0,1-.749,2.2l-.26.254Zm35.795-41.56q2.352,3.468,4.594,7.014c-.075.1-.146.211-.227.315a10.681,10.681,0,0,1-4,3.095,20.111,20.111,0,0,0-1.426-3.038c-.092-.159-.185-.316-.292-.49C494.857,152.828,495.212,150.232,496.717,146.819Zm-4.641,19.455a2.656,2.656,0,0,1,.5,1.7,3.8,3.8,0,0,1-.277,1.393,2.379,2.379,0,0,1-.472.812l.271.2a3.706,3.706,0,0,1,3.265,5.792,5.941,5.941,0,0,1-3.253,1.993c-1.451.247-2.841-.059-5.347-1.175a21.047,21.047,0,0,0-4.1-1.346c-.292.016-.038.015.238-.823a15.014,15.014,0,0,0,.443-2.242,30.938,30.938,0,0,1,.568-3.683,5.491,5.491,0,0,1,2.783-3.925,3.343,3.343,0,0,1,1.628-.591,3.968,3.968,0,0,1,2.538.6A3.036,3.036,0,0,1,492.076,166.274ZM421.409,75.735c.387-.3.761-.561,1.127-.8q3.345,2.117,6.615,4.336c-3.4,1.5-5.983,1.848-6.881,1.329-.147-.09-.294-.178-.444-.264a20.191,20.191,0,0,0-3.085-1.442A10.508,10.508,0,0,1,421.409,75.735ZM405.65,65.145c-.012.131-.021.261-.039.394a10.7,10.7,0,0,1-1.915,4.679,20.141,20.141,0,0,0-2.754-1.919c-.158-.091-.318-.18-.5-.277-.889-.514-1.882-2.952-2.283-6.678Q401.941,63.185,405.65,65.145Zm-7.091,16.962a3.346,3.346,0,0,1,1.114-1.327,3.967,3.967,0,0,1,2.5-.749,3.024,3.024,0,0,1,1.7.513,2.656,2.656,0,0,1,1.282,1.219,3.8,3.8,0,0,1,.457,1.345,2.369,2.369,0,0,1,0,.939l.337.041a3.705,3.705,0,0,1,5.723,3.383,5.936,5.936,0,0,1-1.821,3.353c-1.133.939-2.49,1.37-5.217,1.656a21.055,21.055,0,0,0-4.227.886c-.245.159-.026.032-.205-.832a15.087,15.087,0,0,0-.737-2.163,30.462,30.462,0,0,1-1.35-3.474A5.486,5.486,0,0,1,398.559,82.107Zm14.9,47.756c4.584-4.012,6.859-9.793,6.581-16.717a4.459,4.459,0,0,0-6.65-3.792c-4.479,2.408-8.034,3.051-9.121,2.424-.147-.091-.295-.179-.445-.266a20.209,20.209,0,0,0-3.083-1.441,10.483,10.483,0,0,1,2.667-3.159c2.289-1.793,4.312-2.426,5.018-2.3,5.243.916,16.133.118,23.033-5.923a19.425,19.425,0,0,0,6.489-13.192,253.554,253.554,0,0,1,23.089,19.34,5.637,5.637,0,0,0-.884,3.567,30.649,30.649,0,0,0,.4,3.7,14.856,14.856,0,0,1,.152,2.281c-.05.882-.294.947-.017.857a21.044,21.044,0,0,1,4.313.238c2.708.429,4.13.364,5.468-.249a4.01,4.01,0,0,0,.605-.364,253.442,253.442,0,0,1,19.44,23.194,19.442,19.442,0,0,0-13.244,6.51c-6.029,6.906-6.812,17.791-5.889,23.03a6.014,6.014,0,0,1-1.478,4.547,10.689,10.689,0,0,1-4,3.094,20.166,20.166,0,0,0-1.427-3.039c-.091-.158-.184-.313-.291-.488-.618-1.069.022-4.622,2.425-9.1a4.458,4.458,0,0,0-3.8-6.643c-6.928-.272-12.709,2.011-16.717,6.6-6.029,6.906-6.812,17.791-5.889,23.03a6.014,6.014,0,0,1-1.478,4.547,10.689,10.689,0,0,1-4,3.094,20.166,20.166,0,0,0-1.427-3.039c-.091-.158-.184-.313-.291-.488-.618-1.069.022-4.622,2.425-9.1a4.458,4.458,0,0,0-3.8-6.643c-6.928-.272-12.709,2.011-16.717,6.6-6.029,6.906-6.812,17.791-5.889,23.03a6.014,6.014,0,0,1-1.478,4.547,10.689,10.689,0,0,1-4,3.094,20.26,20.26,0,0,0-1.426-3.039c-.092-.158-.185-.313-.292-.488-.618-1.069.022-4.622,2.425-9.1a4.458,4.458,0,0,0-3.8-6.643c-6.928-.272-12.709,2.011-16.717,6.6-6.029,6.906-6.812,17.791-5.889,23.03a6.014,6.014,0,0,1-1.478,4.547,10.689,10.689,0,0,1-4,3.094,20.26,20.26,0,0,0-1.426-3.039c-.092-.158-.185-.313-.292-.488-.617-1.069.022-4.622,2.425-9.1a4.458,4.458,0,0,0-3.8-6.643,26.42,26.42,0,0,0-3.323.079,26.439,26.439,0,0,0,.08-3.372,4.459,4.459,0,0,0-6.65-3.793c-4.479,2.409-8.034,3.052-9.121,2.425q-.221-.137-.445-.266a20.115,20.115,0,0,0-3.083-1.441,10.483,10.483,0,0,1,2.667-3.159c2.289-1.793,4.312-2.426,5.018-2.3,5.243.915,16.133.117,23.033-5.923,4.584-4.012,6.859-9.793,6.581-16.717a4.459,4.459,0,0,0-6.65-3.793c-4.479,2.409-8.034,3.052-9.121,2.425q-.221-.137-.445-.266a20.209,20.209,0,0,0-3.083-1.441,10.483,10.483,0,0,1,2.667-3.159c2.289-1.793,4.312-2.426,5.018-2.3,5.243.915,16.133.117,23.033-5.923,4.584-4.012,6.859-9.793,6.581-16.717a4.459,4.459,0,0,0-6.65-3.792c-4.479,2.408-8.034,3.051-9.121,2.424-.147-.091-.295-.179-.445-.266a20.209,20.209,0,0,0-3.083-1.441,10.483,10.483,0,0,1,2.667-3.159c2.289-1.793,4.312-2.426,5.018-2.3C395.67,136.7,406.56,135.9,413.46,129.863ZM364.2,154.887a15.17,15.17,0,0,0-.737-2.163,30.473,30.473,0,0,1-1.35-3.473,5.488,5.488,0,0,1,.448-4.791,3.349,3.349,0,0,1,1.114-1.326,3.969,3.969,0,0,1,2.5-.75,3.034,3.034,0,0,1,1.7.514,2.652,2.652,0,0,1,1.282,1.219l.356,2.634.435-.309a3.705,3.705,0,0,1,5.723,3.383,5.933,5.933,0,0,1-1.821,3.352c-1.133.94-2.49,1.37-5.217,1.656a21.03,21.03,0,0,0-4.227.887C364.158,155.879,364.377,155.752,364.2,154.887Zm29.47-36.239A5.93,5.93,0,0,1,391.847,122c-1.133.94-2.49,1.37-5.217,1.657a21.055,21.055,0,0,0-4.227.886c-.245.159-.026.032-.205-.832a15.087,15.087,0,0,0-.737-2.163,30.462,30.462,0,0,1-1.35-3.474,5.488,5.488,0,0,1,.448-4.791,3.349,3.349,0,0,1,1.114-1.326,3.975,3.975,0,0,1,2.5-.75,3.034,3.034,0,0,1,1.7.514,2.652,2.652,0,0,1,1.282,1.219,3.474,3.474,0,0,1,.454,2.284l-.1.35.435-.309A3.705,3.705,0,0,1,393.668,118.648ZM347.29,46.385a30.812,30.812,0,0,0,2.2,3.006,14.993,14.993,0,0,1,1.272,1.9c.4.788.218.967.414.75a21.071,21.071,0,0,1,3.854-1.95c2.559-.983,3.759-1.749,4.611-2.95a4.083,4.083,0,0,0,.371-.68,250.074,250.074,0,0,1,28.454,10.394,19.452,19.452,0,0,0-8.265,12.3c-1.769,8.994,3,18.813,6.414,22.889a6.013,6.013,0,0,1,.994,4.676,10.7,10.7,0,0,1-1.915,4.679,20.169,20.169,0,0,0-2.755-1.918c-.158-.092-.317-.18-.5-.277-1.069-.618-2.292-4.015-2.451-9.1a4.458,4.458,0,0,0-6.614-3.852c-6.136,3.229-10,8.1-11.176,14.076-1.769,8.994,3,18.813,6.414,22.889a6.013,6.013,0,0,1,.994,4.676,10.7,10.7,0,0,1-1.915,4.679,20.169,20.169,0,0,0-2.755-1.918c-.158-.092-.317-.18-.5-.277-1.069-.618-2.292-4.015-2.451-9.1a4.458,4.458,0,0,0-6.614-3.852c-6.136,3.229-10,8.1-11.176,14.075-1.769,9,3,18.814,6.414,22.889a6.017,6.017,0,0,1,.994,4.677,10.7,10.7,0,0,1-1.915,4.678,20.348,20.348,0,0,0-2.755-1.918c-.158-.091-.317-.179-.5-.277-1.069-.617-2.292-4.014-2.451-9.095a4.459,4.459,0,0,0-6.614-3.853c-6.136,3.229-10,8.1-11.176,14.076-1.769,9,3,18.814,6.414,22.889a6.017,6.017,0,0,1,.994,4.677,10.7,10.7,0,0,1-1.915,4.678,20.348,20.348,0,0,0-2.755-1.918c-.158-.091-.317-.179-.5-.277-1.069-.617-2.292-4.014-2.451-9.1a4.459,4.459,0,0,0-6.614-3.853,26.615,26.615,0,0,0-2.838,1.731,26.527,26.527,0,0,0-1.617-2.961,4.459,4.459,0,0,0-7.655.041c-2.675,4.326-5.432,6.66-6.687,6.66-.173,0-.346-.007-.519-.007a20.1,20.1,0,0,0-3.39.293,10.464,10.464,0,0,1,.73-4.069c1.086-2.7,2.522-4.258,3.195-4.5,5-1.828,14.03-7.965,16.985-16.645,1.964-5.767,1.044-11.911-2.659-17.769a4.459,4.459,0,0,0-7.655.041c-2.675,4.326-5.432,6.66-6.687,6.66-.173,0-.346-.007-.519-.007a20.1,20.1,0,0,0-3.39.293,10.464,10.464,0,0,1,.73-4.069c1.086-2.7,2.522-4.258,3.195-4.5,5-1.828,14.03-7.965,16.985-16.645,1.964-5.767,1.044-11.911-2.659-17.769a4.459,4.459,0,0,0-7.655.041c-2.675,4.326-5.432,6.66-6.687,6.66-.173,0-.346-.007-.519-.007a20.1,20.1,0,0,0-3.39.293,10.464,10.464,0,0,1,.73-4.069c1.086-2.7,2.522-4.258,3.195-4.5,5-1.828,14.03-7.965,16.985-16.645,1.964-5.767,1.044-11.911-2.659-17.769a4.459,4.459,0,0,0-7.655.041c-2.675,4.326-5.432,6.66-6.687,6.66-.173,0-.346-.007-.519-.007a20.1,20.1,0,0,0-3.39.293,10.464,10.464,0,0,1,.73-4.069c1.086-2.7,2.522-4.258,3.195-4.5,5-1.828,14.03-7.965,16.985-16.645a19.429,19.429,0,0,0-.989-14.7,252.087,252.087,0,0,1,29.687,5.163A5.6,5.6,0,0,0,347.29,46.385ZM218.539,49.111a30.789,30.789,0,0,0,3.41,1.5A15.04,15.04,0,0,1,224,51.621c.739.484.673.729.734.443a21.109,21.109,0,0,1,2.362-3.616c1.726-2.131,2.381-3.4,2.518-4.86a4.044,4.044,0,0,0-.017-.771,251.928,251.928,0,0,1,29.821-5.193,19.444,19.444,0,0,0-.993,14.745c2.965,8.674,12,14.8,17,16.615a6.011,6.011,0,0,1,3.2,3.553,10.685,10.685,0,0,1,.681,5.009,20.25,20.25,0,0,0-3.345-.283c-.183,0-.364,0-.568.008-1.236,0-3.993-2.33-6.671-6.651a4.459,4.459,0,0,0-7.654-.03c-3.7,5.865-4.612,12.013-2.641,17.779,2.965,8.674,12,14.8,17,16.615a6.011,6.011,0,0,1,3.2,3.553,10.685,10.685,0,0,1,.681,5.009,20.25,20.25,0,0,0-3.345-.283c-.183,0-.364,0-.568.008-1.236,0-3.993-2.33-6.671-6.651a4.459,4.459,0,0,0-7.654-.03c-3.7,5.865-4.612,12.013-2.641,17.779,2.965,8.674,12,14.795,17,16.615a6.011,6.011,0,0,1,3.2,3.553,10.685,10.685,0,0,1,.681,5.009,20.25,20.25,0,0,0-3.345-.283c-.183,0-.364,0-.568.008-1.236,0-3.993-2.33-6.671-6.651a4.459,4.459,0,0,0-7.654-.03c-3.7,5.865-4.612,12.013-2.641,17.779,2.965,8.674,12,14.795,17,16.615a6.011,6.011,0,0,1,3.2,3.553,10.685,10.685,0,0,1,.681,5.009,20.25,20.25,0,0,0-3.345-.283c-.183,0-.364,0-.568.008-1.236,0-3.993-2.33-6.671-6.651a4.459,4.459,0,0,0-7.654-.03,26.662,26.662,0,0,0-1.593,2.918,26.431,26.431,0,0,0-2.881-1.755,4.458,4.458,0,0,0-6.609,3.863c-.153,5.083-1.374,8.483-2.461,9.111q-.228.123-.452.252a20.213,20.213,0,0,0-2.79,1.95,10.463,10.463,0,0,1-1.4-3.889c-.409-2.88.055-4.948.515-5.5,3.414-4.082,8.168-13.913,6.387-22.908-1.183-5.976-5.052-10.837-11.188-14.058a4.459,4.459,0,0,0-6.609,3.863c-.153,5.083-1.374,8.483-2.461,9.111q-.228.123-.452.253a20.119,20.119,0,0,0-2.79,1.949,10.463,10.463,0,0,1-1.4-3.889c-.409-2.88.055-4.948.515-5.5,3.414-4.082,8.168-13.912,6.387-22.908-1.183-5.976-5.052-10.837-11.188-14.058a4.459,4.459,0,0,0-6.609,3.863c-.153,5.084-1.374,8.483-2.461,9.111q-.228.123-.452.253a20.119,20.119,0,0,0-2.79,1.949,10.463,10.463,0,0,1-1.4-3.889c-.409-2.88.055-4.948.515-5.5,3.414-4.082,8.168-13.912,6.387-22.908-1.183-5.976-5.052-10.837-11.188-14.058a4.459,4.459,0,0,0-6.609,3.863c-.153,5.084-1.374,8.483-2.461,9.111q-.228.123-.452.253a20.119,20.119,0,0,0-2.79,1.949,10.457,10.457,0,0,1-1.4-3.889c-.409-2.879.055-4.948.515-5.5,3.414-4.083,8.168-13.913,6.387-22.909a19.442,19.442,0,0,0-8.241-12.257A250.181,250.181,0,0,1,215.865,46.5,5.61,5.61,0,0,0,218.539,49.111ZM210.82,155.455a15,15,0,0,0-2.242-.444,30.8,30.8,0,0,1-3.683-.567,5.489,5.489,0,0,1-3.925-2.784,3.35,3.35,0,0,1-.591-1.627,3.965,3.965,0,0,1,.6-2.538,3.043,3.043,0,0,1,1.3-1.218,2.66,2.66,0,0,1,1.7-.5l2.459,1.009-.051-.531a3.706,3.706,0,0,1,5.792-3.266,5.944,5.944,0,0,1,1.993,3.254c.247,1.45-.059,2.841-1.175,5.346a21.07,21.07,0,0,0-1.346,4.1C211.659,155.985,211.658,155.731,210.82,155.455Zm-18-31.177a15,15,0,0,0-2.242-.444,30.8,30.8,0,0,1-3.683-.567,5.489,5.489,0,0,1-3.925-2.784,3.35,3.35,0,0,1-.591-1.627,3.968,3.968,0,0,1,.6-2.538,3.043,3.043,0,0,1,1.3-1.218,2.66,2.66,0,0,1,1.7-.5,3.475,3.475,0,0,1,2.2.749l.254.26-.051-.531a3.706,3.706,0,0,1,5.792-3.266,5.947,5.947,0,0,1,1.993,3.254c.247,1.45-.059,2.841-1.175,5.346a21.07,21.07,0,0,0-1.346,4.1C193.659,124.808,193.658,124.554,192.82,124.278Zm-18-31.177a14.887,14.887,0,0,0-2.242-.443,30.938,30.938,0,0,1-3.683-.568,5.491,5.491,0,0,1-3.925-2.783,3.353,3.353,0,0,1-.591-1.628,3.968,3.968,0,0,1,.6-2.538,3.036,3.036,0,0,1,1.3-1.217,2.656,2.656,0,0,1,1.7-.5,3.8,3.8,0,0,1,1.393.277,2.379,2.379,0,0,1,.812.472l.2-.271a3.706,3.706,0,0,1,5.792-3.265,5.941,5.941,0,0,1,1.993,3.253c.247,1.451-.059,2.841-1.175,5.347a21.047,21.047,0,0,0-1.346,4.1C175.659,93.631,175.658,93.377,174.82,93.1ZM154.148,74.916a10.681,10.681,0,0,1,3.095,4,20.111,20.111,0,0,0-3.038,1.426c-.159.092-.316.185-.49.292-.887.512-3.486.156-6.9-1.351q3.47-2.351,7.017-4.593C153.936,74.762,154.043,74.834,154.148,74.916Zm21.373-6.9q-.226.123-.451.252a20.178,20.178,0,0,0-2.791,1.951,10.513,10.513,0,0,1-1.4-3.89c-.071-.5-.107-.958-.13-1.4q3.5-1.843,7.068-3.579C177.416,65.065,176.424,67.5,175.521,68.019ZM108.4,115.846a30.649,30.649,0,0,0,3.7-.4,14.856,14.856,0,0,1,2.281-.152c.882.05.947.294.857.017a21.044,21.044,0,0,1,.238-4.313c.429-2.708.364-4.13-.249-5.468a4,4,0,0,0-.371-.616,253.2,253.2,0,0,1,23.2-19.438,19.441,19.441,0,0,0,6.511,13.253c6.906,6.029,17.791,6.812,23.03,5.889a6.014,6.014,0,0,1,4.547,1.478,10.689,10.689,0,0,1,3.094,4,20.109,20.109,0,0,0-3.038,1.427c-.159.091-.314.184-.489.291-1.069.618-4.622-.022-9.1-2.425a4.458,4.458,0,0,0-6.643,3.8c-.272,6.928,2.011,12.709,6.6,16.717,6.906,6.029,17.791,6.812,23.03,5.889a6.014,6.014,0,0,1,4.547,1.478,10.689,10.689,0,0,1,3.094,4,20.109,20.109,0,0,0-3.038,1.427c-.159.091-.314.184-.489.291-1.069.618-4.622-.022-9.1-2.425a4.458,4.458,0,0,0-6.643,3.8c-.272,6.928,2.011,12.709,6.6,16.717,6.906,6.029,17.791,6.812,23.03,5.889a6.014,6.014,0,0,1,4.547,1.478,10.689,10.689,0,0,1,3.094,4,20.2,20.2,0,0,0-3.038,1.426c-.159.092-.314.185-.489.292-1.069.617-4.622-.022-9.1-2.425a4.458,4.458,0,0,0-6.643,3.8c-.272,6.928,2.011,12.709,6.6,16.717,6.906,6.029,17.791,6.812,23.03,5.889a6.014,6.014,0,0,1,4.547,1.478,10.689,10.689,0,0,1,3.094,4,20.2,20.2,0,0,0-3.038,1.426c-.159.092-.314.185-.489.292-1.069.617-4.622-.022-9.1-2.425a4.458,4.458,0,0,0-6.643,3.8,26.436,26.436,0,0,0,.079,3.324,26.439,26.439,0,0,0-3.372-.08,4.459,4.459,0,0,0-3.793,6.65c2.409,4.479,3.052,8.034,2.425,9.121q-.137.221-.266.445a20.115,20.115,0,0,0-1.441,3.083,10.483,10.483,0,0,1-3.159-2.667c-1.793-2.289-2.426-4.312-2.3-5.018.915-5.243.117-16.133-5.923-23.033-4.012-4.584-9.793-6.859-16.717-6.581a4.459,4.459,0,0,0-3.792,6.65c2.408,4.479,3.051,8.034,2.424,9.121-.091.147-.179.3-.266.445a20.209,20.209,0,0,0-1.441,3.083,10.483,10.483,0,0,1-3.159-2.667c-1.793-2.289-2.426-4.312-2.3-5.018.915-5.243.117-16.133-5.923-23.033-4.012-4.584-9.793-6.859-16.717-6.581a4.459,4.459,0,0,0-3.792,6.65c2.408,4.479,3.051,8.034,2.424,9.121-.091.147-.179.3-.266.445a20.209,20.209,0,0,0-1.441,3.083,10.483,10.483,0,0,1-3.159-2.667c-1.793-2.289-2.426-4.312-2.3-5.018.916-5.243.118-16.133-5.923-23.033-4.012-4.584-9.793-6.859-16.717-6.581a4.459,4.459,0,0,0-3.792,6.65c2.408,4.479,3.051,8.034,2.424,9.121-.091.147-.179.3-.266.445a20.209,20.209,0,0,0-1.441,3.083,10.483,10.483,0,0,1-3.159-2.667c-1.793-2.289-2.426-4.312-2.3-5.018.916-5.243.118-16.133-5.923-23.033a19.427,19.427,0,0,0-13.207-6.49,252.93,252.93,0,0,1,19.344-23.1A5.63,5.63,0,0,0,108.4,115.846Zm7.041,348.05a14.856,14.856,0,0,1-.152-2.281c.05-.882.294-.947.017-.857a21.044,21.044,0,0,1-4.313-.238c-2.708-.429-4.13-.364-5.468.249a4.01,4.01,0,0,0-.6.364A253.453,253.453,0,0,1,85.48,437.939a19.44,19.44,0,0,0,13.245-6.51c6.029-6.906,6.812-17.791,5.889-23.03a6.014,6.014,0,0,1,1.478-4.547,10.689,10.689,0,0,1,4-3.094,20.109,20.109,0,0,0,1.427,3.038c.091.159.184.314.291.489.618,1.069-.022,4.622-2.425,9.1a4.458,4.458,0,0,0,3.8,6.643c6.928.272,12.709-2.011,16.717-6.6,6.029-6.906,6.812-17.791,5.889-23.03a6.014,6.014,0,0,1,1.478-4.547,10.689,10.689,0,0,1,4-3.094,20.109,20.109,0,0,0,1.427,3.038c.091.159.184.314.291.489.618,1.069-.022,4.622-2.425,9.1a4.458,4.458,0,0,0,3.8,6.643c6.928.272,12.709-2.011,16.717-6.6,6.029-6.906,6.812-17.791,5.889-23.03a6.014,6.014,0,0,1,1.478-4.547,10.689,10.689,0,0,1,4-3.094,20.2,20.2,0,0,0,1.426,3.038c.092.159.185.314.292.489.618,1.069-.022,4.622-2.425,9.1a4.458,4.458,0,0,0,3.8,6.643c6.928.272,12.709-2.011,16.717-6.6,6.029-6.906,6.812-17.791,5.889-23.03a6.014,6.014,0,0,1,1.478-4.547,10.689,10.689,0,0,1,4-3.094,20.2,20.2,0,0,0,1.426,3.038c.092.159.185.314.292.489.617,1.069-.022,4.622-2.425,9.1a4.458,4.458,0,0,0,3.8,6.643,26.42,26.42,0,0,0,3.323-.079,26.439,26.439,0,0,0-.08,3.372,4.459,4.459,0,0,0,6.65,3.793c4.479-2.409,8.034-3.052,9.121-2.425q.221.137.445.266a20.115,20.115,0,0,0,3.083,1.441,10.483,10.483,0,0,1-2.667,3.159c-2.289,1.793-4.312,2.426-5.018,2.3-5.243-.915-16.133-.117-23.033,5.923-4.584,4.012-6.859,9.793-6.581,16.717a4.459,4.459,0,0,0,6.65,3.792c4.479-2.408,8.034-3.051,9.121-2.424.147.091.3.179.445.266a20.209,20.209,0,0,0,3.083,1.441,10.483,10.483,0,0,1-2.667,3.159c-2.289,1.793-4.312,2.426-5.018,2.3-5.243-.915-16.133-.117-23.033,5.923-4.584,4.012-6.859,9.793-6.581,16.717a4.459,4.459,0,0,0,6.65,3.792c4.479-2.408,8.034-3.051,9.121-2.424.147.091.3.179.445.266a20.209,20.209,0,0,0,3.083,1.441,10.483,10.483,0,0,1-2.667,3.159c-2.289,1.793-4.312,2.426-5.018,2.3-5.243-.916-16.133-.118-23.033,5.923-4.584,4.012-6.859,9.793-6.581,16.717a4.459,4.459,0,0,0,6.65,3.792c4.479-2.408,8.034-3.051,9.121-2.424.147.091.3.179.445.266a20.209,20.209,0,0,0,3.083,1.441,10.483,10.483,0,0,1-2.667,3.159c-2.289,1.793-4.312,2.426-5.018,2.3-5.243-.916-16.133-.118-23.033,5.922a19.429,19.429,0,0,0-6.489,13.193,253.554,253.554,0,0,1-23.089-19.34,5.637,5.637,0,0,0,.884-3.567A30.649,30.649,0,0,0,115.442,463.9Zm96.36-42.783a15.17,15.17,0,0,0,.737,2.163,30.4,30.4,0,0,1,1.35,3.473,5.488,5.488,0,0,1-.448,4.791,3.349,3.349,0,0,1-1.114,1.326,3.969,3.969,0,0,1-2.5.75,3.034,3.034,0,0,1-1.7-.514,2.652,2.652,0,0,1-1.282-1.219l-.356-2.634-.435.309a3.705,3.705,0,0,1-5.723-3.383,5.933,5.933,0,0,1,1.821-3.352c1.133-.94,2.49-1.37,5.217-1.656a21.03,21.03,0,0,0,4.227-.887C211.842,420.121,211.623,420.248,211.8,421.113Zm-23.747,39.622a3.705,3.705,0,0,1-5.723-3.383A5.936,5.936,0,0,1,184.153,454c1.133-.939,2.49-1.369,5.217-1.656a21.055,21.055,0,0,0,4.227-.886c.245-.159.026-.032.2.832a15.087,15.087,0,0,0,.737,2.163,30.462,30.462,0,0,1,1.35,3.474,5.486,5.486,0,0,1-.448,4.79,3.346,3.346,0,0,1-1.114,1.327,3.967,3.967,0,0,1-2.5.749,3.024,3.024,0,0,1-1.7-.513,2.656,2.656,0,0,1-1.282-1.219,3.474,3.474,0,0,1-.454-2.284l.1-.35Zm-41.206,35.994c3.4-1.5,5.983-1.848,6.881-1.329.147.09.294.178.444.264a20.191,20.191,0,0,0,3.085,1.442,10.508,10.508,0,0,1-2.668,3.159c-.387.3-.761.561-1.127.8Q150.119,498.949,146.849,496.729ZM175.8,483.466a15.128,15.128,0,0,0,.737,2.163,30.462,30.462,0,0,1,1.35,3.474,5.486,5.486,0,0,1-.448,4.79,3.335,3.335,0,0,1-1.114,1.326,3.962,3.962,0,0,1-2.5.75,3.024,3.024,0,0,1-1.7-.513,2.656,2.656,0,0,1-1.282-1.219,3.8,3.8,0,0,1-.457-1.345,2.369,2.369,0,0,1,0-.939l-.337-.041a3.705,3.705,0,0,1-5.723-3.383,5.936,5.936,0,0,1,1.821-3.353c1.133-.939,2.49-1.37,5.217-1.656a21.055,21.055,0,0,0,4.227-.886C175.842,482.475,175.623,482.6,175.8,483.466Zm-5.452,27.389c.012-.131.021-.261.039-.394a10.7,10.7,0,0,1,1.915-4.679,20.141,20.141,0,0,0,2.754,1.919c.158.091.318.18.5.277.889.514,1.882,2.952,2.283,6.678Q174.059,512.815,170.35,510.855Zm58.36,18.76a30.812,30.812,0,0,0-2.2-3.006,14.993,14.993,0,0,1-1.272-1.9c-.4-.788-.218-.967-.414-.75a21.139,21.139,0,0,1-3.854,1.95c-2.559.983-3.759,1.749-4.611,2.95a4.083,4.083,0,0,0-.371.68,250.074,250.074,0,0,1-28.454-10.394,19.452,19.452,0,0,0,8.265-12.3c1.769-9-3-18.813-6.414-22.889a6.013,6.013,0,0,1-.994-4.676,10.694,10.694,0,0,1,1.915-4.679,20.169,20.169,0,0,0,2.755,1.918c.158.092.317.18.5.277,1.069.618,2.292,4.015,2.451,9.1a4.458,4.458,0,0,0,6.614,3.852c6.136-3.229,10-8.1,11.176-14.076,1.769-8.994-3-18.813-6.414-22.889a6.013,6.013,0,0,1-.994-4.676,10.7,10.7,0,0,1,1.915-4.679,20.169,20.169,0,0,0,2.755,1.918c.158.092.317.18.5.277,1.069.618,2.292,4.015,2.451,9.1a4.458,4.458,0,0,0,6.614,3.852c6.136-3.229,10-8.1,11.176-14.076,1.769-8.994-3-18.813-6.414-22.888a6.017,6.017,0,0,1-.994-4.677,10.7,10.7,0,0,1,1.915-4.678,20.348,20.348,0,0,0,2.755,1.918c.158.091.317.179.5.277,1.069.617,2.292,4.014,2.451,9.1a4.459,4.459,0,0,0,6.614,3.853c6.136-3.229,10-8.1,11.176-14.076,1.769-9-3-18.814-6.414-22.889a6.017,6.017,0,0,1-.994-4.677,10.7,10.7,0,0,1,1.915-4.678,20.348,20.348,0,0,0,2.755,1.918c.158.091.317.179.5.277,1.069.617,2.292,4.014,2.451,9.095a4.459,4.459,0,0,0,6.614,3.853,26.615,26.615,0,0,0,2.838-1.731,26.527,26.527,0,0,0,1.617,2.961,4.459,4.459,0,0,0,7.655-.041c2.675-4.326,5.432-6.66,6.687-6.66.173,0,.346.007.519.007a20.1,20.1,0,0,0,3.39-.293,10.464,10.464,0,0,1-.73,4.069c-1.086,2.7-2.522,4.258-3.195,4.5-5,1.828-14.03,7.965-16.985,16.645-1.964,5.767-1.044,11.911,2.659,17.769a4.459,4.459,0,0,0,7.655-.041c2.675-4.326,5.432-6.66,6.687-6.66.173,0,.346.007.519.007a20.1,20.1,0,0,0,3.39-.293,10.464,10.464,0,0,1-.73,4.069c-1.086,2.7-2.522,4.258-3.195,4.5-5,1.828-14.03,7.965-16.985,16.645-1.964,5.767-1.044,11.911,2.659,17.769a4.459,4.459,0,0,0,7.655-.041c2.675-4.326,5.432-6.66,6.687-6.66.173,0,.346.007.519.007a20.1,20.1,0,0,0,3.39-.293,10.464,10.464,0,0,1-.73,4.069c-1.086,2.7-2.522,4.258-3.195,4.5-5,1.828-14.03,7.965-16.985,16.645-1.964,5.767-1.044,11.911,2.659,17.769a4.459,4.459,0,0,0,7.655-.041c2.675-4.326,5.432-6.66,6.687-6.66.173,0,.346.007.519.007a20.1,20.1,0,0,0,3.39-.293,10.464,10.464,0,0,1-.73,4.069c-1.086,2.7-2.522,4.258-3.195,4.5-5,1.828-14.03,7.965-16.985,16.645a19.429,19.429,0,0,0,.989,14.7,252.087,252.087,0,0,1-29.687-5.163A5.6,5.6,0,0,0,228.71,529.615Zm128.751-2.726a30.789,30.789,0,0,0-3.41-1.5A15.04,15.04,0,0,1,352,524.379c-.739-.484-.673-.729-.734-.443a21.109,21.109,0,0,1-2.362,3.616c-1.726,2.131-2.381,3.394-2.518,4.86a3.982,3.982,0,0,0,.017.765,251.918,251.918,0,0,1-29.82,5.2,19.443,19.443,0,0,0,.992-14.743c-2.965-8.674-12-14.795-17-16.615a6.011,6.011,0,0,1-3.2-3.553,10.685,10.685,0,0,1-.681-5.009,20.25,20.25,0,0,0,3.345.283c.183,0,.364,0,.568-.008,1.236,0,3.993,2.33,6.671,6.651a4.459,4.459,0,0,0,7.654.03c3.7-5.865,4.612-12.013,2.641-17.779-2.965-8.674-12-14.795-17-16.615a6.011,6.011,0,0,1-3.2-3.553,10.685,10.685,0,0,1-.681-5.009,20.25,20.25,0,0,0,3.345.283c.183,0,.364,0,.568-.008,1.236,0,3.993,2.33,6.671,6.651a4.459,4.459,0,0,0,7.654.03c3.7-5.865,4.612-12.013,2.641-17.779-2.965-8.674-12-14.795-17-16.615a6.011,6.011,0,0,1-3.2-3.553,10.685,10.685,0,0,1-.681-5.009,20.25,20.25,0,0,0,3.345.283c.183,0,.364,0,.568-.008,1.236,0,3.993,2.33,6.671,6.651a4.459,4.459,0,0,0,7.654.03c3.7-5.865,4.612-12.013,2.641-17.779-2.965-8.674-12-14.795-17-16.615a6.011,6.011,0,0,1-3.2-3.553,10.685,10.685,0,0,1-.681-5.009,20.25,20.25,0,0,0,3.345.283c.183,0,.364,0,.568-.008,1.236,0,3.993,2.33,6.671,6.651a4.459,4.459,0,0,0,7.654.03,26.662,26.662,0,0,0,1.593-2.918,26.431,26.431,0,0,0,2.881,1.755,4.458,4.458,0,0,0,6.609-3.863c.153-5.083,1.374-8.483,2.461-9.111q.228-.123.452-.252a20.213,20.213,0,0,0,2.79-1.95,10.463,10.463,0,0,1,1.4,3.889c.409,2.88-.055,4.948-.515,5.5-3.414,4.082-8.168,13.913-6.387,22.908,1.183,5.976,5.052,10.837,11.188,14.058a4.459,4.459,0,0,0,6.609-3.863c.153-5.084,1.374-8.483,2.461-9.111q.228-.123.452-.253a20.119,20.119,0,0,0,2.79-1.949,10.463,10.463,0,0,1,1.4,3.889c.409,2.88-.055,4.948-.515,5.5-3.414,4.082-8.168,13.912-6.387,22.908,1.183,5.976,5.052,10.837,11.188,14.058a4.459,4.459,0,0,0,6.609-3.863c.153-5.084,1.374-8.483,2.461-9.111q.228-.123.452-.253a20.119,20.119,0,0,0,2.79-1.949,10.463,10.463,0,0,1,1.4,3.889c.409,2.88-.055,4.948-.515,5.5-3.414,4.083-8.168,13.913-6.387,22.909,1.183,5.976,5.052,10.837,11.188,14.058a4.459,4.459,0,0,0,6.609-3.863c.153-5.084,1.374-8.483,2.461-9.111q.228-.123.452-.253a20.119,20.119,0,0,0,2.79-1.949,10.457,10.457,0,0,1,1.4,3.889c.409,2.879-.055,4.948-.515,5.5-3.414,4.083-8.168,13.913-6.387,22.908a19.445,19.445,0,0,0,8.247,12.262,250.038,250.038,0,0,1-28.327,10.357A5.61,5.61,0,0,0,357.461,526.889Zm7.719-106.344a15,15,0,0,0,2.242.444,30.8,30.8,0,0,1,3.683.567,5.489,5.489,0,0,1,3.925,2.784,3.35,3.35,0,0,1,.591,1.627,3.965,3.965,0,0,1-.6,2.538,3.043,3.043,0,0,1-1.3,1.218,2.66,2.66,0,0,1-1.7.5l-2.459-1.009.051.531a3.706,3.706,0,0,1-5.792,3.266,5.944,5.944,0,0,1-1.993-3.254c-.247-1.45.059-2.841,1.175-5.346a21.07,21.07,0,0,0,1.346-4.1C364.341,420.015,364.342,420.269,365.18,420.545Zm18,31.177a15,15,0,0,0,2.242.444,30.8,30.8,0,0,1,3.683.567,5.491,5.491,0,0,1,3.925,2.783,3.353,3.353,0,0,1,.591,1.628,3.968,3.968,0,0,1-.6,2.538,3.036,3.036,0,0,1-1.3,1.217,2.656,2.656,0,0,1-1.7.5,3.475,3.475,0,0,1-2.2-.749l-.254-.26.051.531a3.706,3.706,0,0,1-5.792,3.265,5.941,5.941,0,0,1-1.993-3.253c-.247-1.45.059-2.841,1.175-5.346a21.07,21.07,0,0,0,1.346-4.1C382.341,451.192,382.342,451.446,383.18,451.722Zm18,31.177a15.014,15.014,0,0,0,2.242.443,30.938,30.938,0,0,1,3.683.568,5.491,5.491,0,0,1,3.925,2.783,3.353,3.353,0,0,1,.591,1.628,3.968,3.968,0,0,1-.6,2.538,3.036,3.036,0,0,1-1.3,1.217,2.656,2.656,0,0,1-1.7.5,3.8,3.8,0,0,1-1.393-.277,2.379,2.379,0,0,1-.812-.472l-.2.271a3.706,3.706,0,0,1-5.792,3.265,5.941,5.941,0,0,1-1.993-3.253c-.247-1.451.059-2.841,1.175-5.347a21.069,21.069,0,0,0,1.346-4.1C400.341,482.369,400.342,482.623,401.18,482.9Zm20.672,18.185a10.681,10.681,0,0,1-3.095-4,20.111,20.111,0,0,0,3.038-1.426c.159-.092.316-.185.49-.292.886-.512,3.483-.157,6.9,1.348q-3.468,2.352-7.014,4.594C422.062,501.236,421.956,501.165,421.852,501.084Zm-21.373,6.9q.227-.123.451-.252a20.178,20.178,0,0,0,2.791-1.951,10.513,10.513,0,0,1,1.4,3.89c.071.5.107.959.13,1.4q-3.5,1.845-7.068,3.582C398.584,510.937,399.576,508.5,400.479,507.981Zm67.12-47.827a30.649,30.649,0,0,0-3.7.4,14.856,14.856,0,0,1-2.281.152c-.882-.05-.947-.294-.857-.017a21.044,21.044,0,0,1-.238,4.313c-.429,2.708-.364,4.13.249,5.468a4.01,4.01,0,0,0,.364.605,253.442,253.442,0,0,1-23.194,19.44,19.442,19.442,0,0,0-6.51-13.244c-6.906-6.029-17.791-6.812-23.03-5.889a6.014,6.014,0,0,1-4.547-1.478,10.689,10.689,0,0,1-3.094-4,20.109,20.109,0,0,0,3.038-1.427c.159-.091.314-.184.489-.291,1.069-.618,4.622.022,9.1,2.425a4.458,4.458,0,0,0,6.643-3.8c.272-6.928-2.011-12.709-6.6-16.717-6.906-6.029-17.791-6.812-23.03-5.889a6.014,6.014,0,0,1-4.547-1.478,10.689,10.689,0,0,1-3.094-4,20.109,20.109,0,0,0,3.038-1.427c.159-.091.314-.184.489-.291,1.069-.618,4.622.022,9.1,2.425a4.458,4.458,0,0,0,6.643-3.8c.272-6.928-2.011-12.709-6.6-16.717-6.906-6.029-17.791-6.812-23.03-5.889a6.014,6.014,0,0,1-4.547-1.478,10.689,10.689,0,0,1-3.094-4,20.2,20.2,0,0,0,3.038-1.426c.159-.092.314-.185.489-.292,1.069-.618,4.622.022,9.1,2.425a4.458,4.458,0,0,0,6.643-3.8c.272-6.928-2.011-12.709-6.6-16.717-6.906-6.029-17.791-6.812-23.03-5.889a6.014,6.014,0,0,1-4.547-1.478,10.689,10.689,0,0,1-3.094-4,20.2,20.2,0,0,0,3.038-1.426c.159-.092.314-.185.489-.292,1.069-.617,4.622.022,9.1,2.425a4.458,4.458,0,0,0,6.643-3.8,26.42,26.42,0,0,0-.079-3.323,26.439,26.439,0,0,0,3.372.08,4.459,4.459,0,0,0,3.793-6.65c-2.409-4.479-3.052-8.034-2.425-9.121q.137-.221.266-.445a20.115,20.115,0,0,0,1.441-3.083,10.483,10.483,0,0,1,3.159,2.667c1.793,2.289,2.426,4.312,2.3,5.018-.915,5.243-.117,16.133,5.923,23.033,4.012,4.584,9.793,6.859,16.717,6.581a4.459,4.459,0,0,0,3.792-6.65c-2.408-4.479-3.051-8.034-2.424-9.121.091-.147.179-.295.266-.445a20.209,20.209,0,0,0,1.441-3.083,10.483,10.483,0,0,1,3.159,2.667c1.793,2.289,2.426,4.312,2.3,5.018-.915,5.243-.117,16.133,5.923,23.033,4.012,4.584,9.793,6.859,16.717,6.581a4.459,4.459,0,0,0,3.792-6.65c-2.408-4.479-3.051-8.034-2.424-9.121.091-.147.179-.295.266-.445a20.209,20.209,0,0,0,1.441-3.083,10.483,10.483,0,0,1,3.159,2.667c1.793,2.289,2.426,4.312,2.3,5.018-.916,5.243-.118,16.133,5.923,23.033,4.012,4.584,9.793,6.859,16.717,6.581a4.459,4.459,0,0,0,3.792-6.65c-2.408-4.479-3.051-8.034-2.424-9.121.091-.147.179-.295.266-.445a20.209,20.209,0,0,0,1.441-3.083,10.483,10.483,0,0,1,3.159,2.667c1.793,2.289,2.426,4.312,2.3,5.018-.916,5.243-.118,16.133,5.923,23.033a19.425,19.425,0,0,0,13.192,6.489,253.554,253.554,0,0,1-19.34,23.089A5.637,5.637,0,0,0,467.6,460.154Z" transform="translate(0.5 0.5)"/><rect class="cls-2" x="0.5" y="0.5" width="576" height="576"/></svg>