<svg id="peace_4" data-name="peace 4" xmlns="http://www.w3.org/2000/svg" width="8.014in" height="8.014in" viewBox="0 0 577 577"><defs><style>.cls-1,.cls-2{fill:none;stroke-miterlimit:10;}.cls-1{stroke:blue;}.cls-2{stroke:red;}</style></defs><title>alien-love-worm-v1-layer-4</title><path class="cls-1" d="M482.093,448.724a22.3,22.3,0,0,0-8.683-1.147c-3.64.151-4.785.275-12.978,1.417a52.638,52.638,0,0,1-7.991.533c-3.09-.176-3.318-1.033-3-.06.273.843.154,8.885-.835,15.112-1.322,8.355-1.3,13.216.187,17.458-.431.358-.865.711-1.3,1.066a29.527,29.527,0,0,0-8.96-13.963,32.918,32.918,0,0,0-7.768-5.022c.027-.292.047-.586.058-.88.51-13.018-5.314-20.931-10.29-25.275a32.918,32.918,0,0,0-7.768-5.022c.027-.292.047-.586.058-.88.51-13.018-5.314-20.93-10.29-25.275a32.883,32.883,0,0,0-7.768-5.021c.027-.293.047-.586.058-.881a37.237,37.237,0,0,0-.282-6.334,37.313,37.313,0,0,0,6.394.282q.426-.016.851-.056a33.017,33.017,0,0,0,5.048,7.8c4.35,4.969,12.266,10.781,25.278,10.258q.426-.016.851-.056a33.017,33.017,0,0,0,5.048,7.8c4.35,4.969,12.265,10.781,25.278,10.258.284-.011.568-.03.85-.056a33.052,33.052,0,0,0,5.049,7.8A29.537,29.537,0,0,0,483.1,447.5C482.764,447.906,482.431,448.317,482.093,448.724ZM375.768,524.282a22.25,22.25,0,0,0-6.987-5.379c-3.228-1.689-4.281-2.155-11.948-5.262a52.678,52.678,0,0,1-7.186-3.534c-2.588-1.7-2.357-2.554-2.571-1.553-.186.866-4.31,7.771-8.279,12.669-5.332,6.586-7.745,10.808-8.571,15.236q-.828.14-1.659.275a29.53,29.53,0,0,0-.772-16.6,32.949,32.949,0,0,0-4.217-8.233q.255-.36.491-.734c6.951-11.019,5.863-20.783,3.726-27.033a32.949,32.949,0,0,0-4.217-8.233q.255-.36.491-.734c6.951-11.019,5.863-20.783,3.726-27.033a32.949,32.949,0,0,0-4.217-8.233q.255-.36.491-.734a37.325,37.325,0,0,0,2.923-5.626,37.194,37.194,0,0,0,5.395,3.441c.253.133.508.258.766.377a33.023,33.023,0,0,0,.472,9.278c1.283,6.477,5.232,15.469,16.762,21.522.253.133.508.258.766.377a33.023,33.023,0,0,0,.472,9.278c1.283,6.477,5.232,15.469,16.762,21.522.253.133.508.258.766.377a33.023,33.023,0,0,0,.472,9.278,29.544,29.544,0,0,0,7.625,14.724C376.756,523.906,376.264,524.1,375.768,524.282Zm-133.261,4.076c-1.951-3.077-2.63-4.006-7.716-10.531a52.754,52.754,0,0,1-4.457-6.654c-1.392-2.763-.764-3.389-1.45-2.63-.593.657-7.618,4.576-13.5,6.833-7.933,3.046-12.134,5.5-15.065,8.938-.525-.195-1.047-.4-1.571-.6a29.537,29.537,0,0,0,7.651-14.781,32.976,32.976,0,0,0,.464-9.239q.4-.183.792-.389c11.529-6.068,15.469-15.068,16.744-21.549a32.976,32.976,0,0,0,.464-9.239q.4-.183.792-.389c11.529-6.068,15.469-15.068,16.744-21.549a32.976,32.976,0,0,0,.464-9.239q.4-.183.792-.389A37.421,37.421,0,0,0,249,433.542a37.351,37.351,0,0,0,2.952,5.678c.153.24.311.477.475.708a33.049,33.049,0,0,0-4.23,8.272c-2.128,6.251-3.2,16.012,3.755,27.02.153.24.311.477.475.708a33.049,33.049,0,0,0-4.23,8.272c-2.128,6.251-3.2,16.012,3.755,27.02.153.24.311.477.475.708a33.049,33.049,0,0,0-4.23,8.272,29.545,29.545,0,0,0-.766,16.532q-.783-.126-1.566-.259A22.28,22.28,0,0,0,242.507,528.358ZM127.276,482.093a22.3,22.3,0,0,0,1.147-8.683c-.151-3.64-.275-4.785-1.417-12.978a52.638,52.638,0,0,1-.533-7.991c.176-3.09,1.033-3.318.06-3-.843.272-8.886.154-15.112-.835-8.355-1.322-13.216-1.3-17.458.187-.358-.431-.711-.865-1.066-1.3a29.527,29.527,0,0,0,13.963-8.96,32.9,32.9,0,0,0,5.022-7.769c.292.028.586.048.88.059,13.018.51,20.931-5.314,25.275-10.29a32.869,32.869,0,0,0,5.021-7.769q.44.042.881.059c13.018.51,20.93-5.314,25.275-10.29a32.9,32.9,0,0,0,5.021-7.769c.293.028.586.048.881.059a37.237,37.237,0,0,0,6.334-.282,37.313,37.313,0,0,0-.282,6.394q.017.426.056.851a33.017,33.017,0,0,0-7.8,5.048c-4.969,4.35-10.781,12.266-10.258,25.278q.017.426.056.851a33.017,33.017,0,0,0-7.8,5.048c-4.969,4.35-10.781,12.265-10.258,25.278.011.284.03.568.056.85a33.052,33.052,0,0,0-7.8,5.049A29.537,29.537,0,0,0,128.5,483.1C128.094,482.764,127.683,482.431,127.276,482.093ZM93.907,127.276a22.3,22.3,0,0,0,8.683,1.147c3.64-.151,4.785-.275,12.978-1.417a52.638,52.638,0,0,1,7.991-.533c3.09.176,3.318,1.033,3,.06-.273-.843-.154-8.886.835-15.112,1.322-8.355,1.3-13.216-.187-17.458.431-.358.865-.711,1.3-1.066a29.527,29.527,0,0,0,8.96,13.963,32.918,32.918,0,0,0,7.768,5.022c-.027.292-.047.586-.058.88-.51,13.018,5.314,20.931,10.29,25.275a32.883,32.883,0,0,0,7.768,5.021c-.027.293-.047.587-.058.881-.51,13.018,5.314,20.93,10.29,25.275a32.914,32.914,0,0,0,7.768,5.021c-.027.293-.047.586-.058.881a37.237,37.237,0,0,0,.282,6.334,37.313,37.313,0,0,0-6.394-.282q-.426.017-.851.056a33.017,33.017,0,0,0-5.048-7.8c-4.35-4.969-12.266-10.781-25.278-10.258q-.426.017-.851.056a33.017,33.017,0,0,0-5.048-7.8c-4.35-4.969-12.265-10.781-25.278-10.258-.284.011-.568.03-.85.056a33.052,33.052,0,0,0-5.049-7.8A29.537,29.537,0,0,0,92.9,128.5C93.236,128.094,93.569,127.683,93.907,127.276ZM200.232,51.718a22.25,22.25,0,0,0,6.987,5.379c3.228,1.689,4.281,2.154,11.948,5.262a52.678,52.678,0,0,1,7.186,3.534c2.588,1.7,2.357,2.554,2.571,1.553.186-.866,4.31-7.771,8.279-12.669,5.332-6.586,7.745-10.808,8.571-15.236q.828-.139,1.659-.275a29.53,29.53,0,0,0,.772,16.6,32.949,32.949,0,0,0,4.217,8.233q-.255.36-.491.734c-6.951,11.019-5.863,20.783-3.726,27.033a32.949,32.949,0,0,0,4.217,8.233q-.255.36-.491.734c-6.951,11.019-5.863,20.783-3.726,27.033a32.949,32.949,0,0,0,4.217,8.233q-.255.36-.491.734a37.325,37.325,0,0,0-2.923,5.626,37.282,37.282,0,0,0-5.4-3.442q-.379-.2-.766-.376a33.023,33.023,0,0,0-.472-9.278c-1.283-6.477-5.232-15.469-16.762-21.522-.253-.133-.508-.258-.766-.377a33.023,33.023,0,0,0-.472-9.278c-1.283-6.477-5.232-15.469-16.762-21.522-.253-.133-.508-.258-.766-.377a33.023,33.023,0,0,0-.472-9.278,29.544,29.544,0,0,0-7.625-14.724C199.244,52.094,199.737,51.9,200.232,51.718Zm133.261-4.076c1.951,3.077,2.63,4.006,7.716,10.531a52.754,52.754,0,0,1,4.457,6.654c1.392,2.763.764,3.389,1.45,2.63.593-.657,7.618-4.576,13.5-6.833,7.933-3.046,12.134-5.5,15.065-8.938.525.2,1.047.4,1.571.6a29.533,29.533,0,0,0-7.651,14.781,32.976,32.976,0,0,0-.464,9.239q-.4.183-.792.389c-11.529,6.068-15.469,15.068-16.744,21.549a32.976,32.976,0,0,0-.464,9.239q-.4.183-.792.389c-11.529,6.068-15.469,15.068-16.744,21.549a32.974,32.974,0,0,0-.464,9.239q-.4.183-.792.389a37.421,37.421,0,0,0-5.344,3.411,37.351,37.351,0,0,0-2.952-5.678c-.153-.24-.311-.477-.475-.708a33.049,33.049,0,0,0,4.23-8.272c2.128-6.251,3.2-16.012-3.755-27.02-.153-.24-.311-.477-.475-.708a33.049,33.049,0,0,0,4.23-8.272c2.128-6.251,3.2-16.012-3.755-27.02-.153-.24-.311-.477-.475-.708a33.049,33.049,0,0,0,4.23-8.272,29.545,29.545,0,0,0,.766-16.532q.783.126,1.566.259A22.28,22.28,0,0,0,333.493,47.642ZM448.724,93.907a22.3,22.3,0,0,0-1.147,8.683c.151,3.64.275,4.785,1.417,12.978a52.638,52.638,0,0,1,.533,7.991c-.176,3.09-1.033,3.318-.06,3,.843-.273,8.886-.154,15.112.835,8.355,1.322,13.216,1.3,17.458-.187.357.431.711.865,1.066,1.3a29.527,29.527,0,0,0-13.963,8.96,32.918,32.918,0,0,0-5.022,7.768c-.292-.027-.586-.047-.88-.058-13.018-.51-20.931,5.314-25.275,10.29a32.883,32.883,0,0,0-5.021,7.768c-.293-.027-.587-.047-.881-.058-13.018-.51-20.93,5.314-25.275,10.29a32.914,32.914,0,0,0-5.021,7.768c-.293-.027-.586-.047-.881-.058a37.237,37.237,0,0,0-6.334.282,37.313,37.313,0,0,0,.282-6.394q-.016-.426-.056-.851a33.017,33.017,0,0,0,7.8-5.048c4.969-4.35,10.781-12.266,10.258-25.278q-.016-.426-.056-.851a33.017,33.017,0,0,0,7.8-5.048c4.969-4.35,10.781-12.266,10.258-25.278-.011-.284-.03-.568-.056-.85a33.052,33.052,0,0,0,7.8-5.049A29.537,29.537,0,0,0,447.5,92.9C447.906,93.236,448.317,93.569,448.724,93.907Zm75.558,106.325a22.25,22.25,0,0,0-5.379,6.987c-1.689,3.228-2.155,4.281-5.262,11.948a52.678,52.678,0,0,1-3.534,7.186c-1.7,2.588-2.554,2.357-1.553,2.571.866.186,7.771,4.31,12.669,8.279,6.586,5.332,10.808,7.745,15.236,8.571q.14.828.275,1.659a29.53,29.53,0,0,0-16.6.772,32.949,32.949,0,0,0-8.233,4.217q-.36-.255-.734-.491c-11.019-6.951-20.783-5.863-27.033-3.726a32.949,32.949,0,0,0-8.233,4.217q-.36-.255-.734-.491c-11.019-6.951-20.783-5.863-27.033-3.726a32.949,32.949,0,0,0-8.233,4.217q-.36-.255-.734-.491a37.325,37.325,0,0,0-5.626-2.923,37.282,37.282,0,0,0,3.442-5.4q.2-.379.376-.766a33.023,33.023,0,0,0,9.278-.472c6.477-1.283,15.469-5.232,21.522-16.762.133-.253.258-.508.377-.766a33.023,33.023,0,0,0,9.278-.472c6.477-1.283,15.469-5.232,21.522-16.762.133-.253.258-.508.377-.766a33.023,33.023,0,0,0,9.278-.472,29.544,29.544,0,0,0,14.724-7.625C523.906,199.244,524.1,199.736,524.282,200.232Zm-.717,87.955a3.706,3.706,0,0,1-.068,6.649,5.94,5.94,0,0,1-3.814.1c-1.379-.511-2.431-1.471-4.043-3.69a21.1,21.1,0,0,0-2.88-3.217c-.261-.133-.041-.006.618-.594a15.042,15.042,0,0,0,1.5-1.72,30.566,30.566,0,0,1,2.334-2.906,5.488,5.488,0,0,1,4.372-2.007,3.343,3.343,0,0,1,1.706.3,3.97,3.97,0,0,1,1.9,1.787,3.037,3.037,0,0,1,.406,1.731,2.648,2.648,0,0,1-.415,1.72,3.471,3.471,0,0,1-1.751,1.535Zm-206.1,1.357a32.775,32.775,0,0,1-.477,3.826c-.128.63-.241,1.264-.391,1.889l-.552,1.85c-.182.584-.389,1.159-.611,1.727a.356.356,0,0,0-.029.041,3.944,3.944,0,0,0-.244.6,28.486,28.486,0,0,1-2.082,4.01,1.828,1.828,0,0,1-1.174-.366,2.084,2.084,0,0,1-.747-2.123c.29-.7.515.5.8.262a1.872,1.872,0,0,0-2.384-2.024,3.751,3.751,0,0,0-1.663.753,3.2,3.2,0,0,0-.781.777L292.5,286.136v-22a5.189,5.189,0,0,0,1.52-1.339c.534-.729.3-2.216.867-2.843a2,2,0,0,1,.65-.469l1.572.469c.2.062.392.141.589.208.827.82,1.52,2.028,2.237,2.791a2.32,2.32,0,0,0,1.633-.087c.056.868-1.3.244-1.836.771-.422.408-.329,1.023-.024,1.677a15.994,15.994,0,0,0,1.308,2c1.236,1.533,3.617,3.3,4.119,4.379a2.529,2.529,0,0,1,.286,1.619,1.81,1.81,0,0,1-.677,1.159c-.991.762-1.747.556-1.994.133-.272-.393-.059-1.106,1.147-1.322a1.451,1.451,0,0,0-1.762-.695,3.778,3.778,0,0,0-1.981,1.352,3.227,3.227,0,0,0-.6,1.344,3.5,3.5,0,0,0-.038,1.344,3.115,3.115,0,0,0,1.151,1.987,3,3,0,0,0,1.321.527,7.661,7.661,0,0,0,.918.1c.314.026.639.043.984.039a8.363,8.363,0,0,0,4.274-1.075,13.168,13.168,0,0,0,2.167-2.267c.775-.9,1.541-1.721,2.273-1.527.827.228.96,1.461.686,2.282a5.424,5.424,0,0,1-2.254,2.736,18.131,18.131,0,0,0-2.732,2.106,8.446,8.446,0,0,0-1.732,2.957,5.971,5.971,0,0,0-.241,1.538,3.184,3.184,0,0,0,.412,1.454,4.977,4.977,0,0,0,1.269,1.41,13.256,13.256,0,0,0,1.9,1.349c1.407.809,3,1.387,4.211.842a4.242,4.242,0,0,0,2.057-2.815,2.806,2.806,0,0,0-.953-3.29,1.965,1.965,0,0,1-.116,1.939,1.251,1.251,0,0,1-1.307.274,2.01,2.01,0,0,1-1.167-.979,2.288,2.288,0,0,1,.124-1.977c.511-1.266,2.412-1.461,3.632-.961a1.987,1.987,0,0,1,.863,1.026c.049.463.094.925.139,1.388A32.819,32.819,0,0,1,317.468,289.544Zm-14.242,20.782c-.145-.573-.721-.794-1.434-.847a6.5,6.5,0,0,0-1.148.035c-.413.017-.839.049-1.239.1a10.311,10.311,0,0,0-1.567.365c-.552.136-1.107.314-1.636.494a10.753,10.753,0,0,1-2.638.551,3.45,3.45,0,0,1-1.064-.3v-3.2c.373.173.647.7.3,1.6.742.111,1.257-.481,1.474-1.194a3.643,3.643,0,0,0-.171-2.359,3.444,3.444,0,0,0-1.606-1.718v-5l11.889,11.889c-.233.024-.465.047-.674.089a2.385,2.385,0,0,0-.725,1.478C302.215,311.942,303.419,311.057,303.226,310.326Zm-26.677,4.85a29,29,0,0,1-5.966-3.395l1.76-1.759a5.4,5.4,0,0,0,1.318,2.273c.99.87,2.269,1.471,3.342.8A1.851,1.851,0,0,1,275.391,312a1.228,1.228,0,0,1,.412-1.261,1.819,1.819,0,0,1,1.42-.5,2.333,2.333,0,0,1,1.662,1.072c.821,1.128.048,2.862-.985,3.644A2.187,2.187,0,0,1,276.549,315.176Zm2.528-10.7a3.686,3.686,0,0,0-.876.125c-.191.04-.39.092-.592.151l5.891-5.892v10.174c-.021-.076-.032-.155-.056-.23a7.973,7.973,0,0,0-1.708-2.952A3.564,3.564,0,0,0,279.077,304.48Zm-14.854.933a30.947,30.947,0,0,1-2.168-3.429,1.955,1.955,0,0,1,3.1-.416c.472.592-.693.2-.622.558a1.886,1.886,0,0,0,2.954-1.062,3.742,3.742,0,0,0-.56-3.589,5.233,5.233,0,0,0-1.614-1.3,5.635,5.635,0,0,0-2.134-.789c-.886-.1-2.077.849-2.89.664a2.087,2.087,0,0,1-.75-.329c-.141-.527-.274-1.055-.382-1.59l-.108-.578a10.793,10.793,0,0,1,.607-1.711,13.617,13.617,0,0,0,.711-1.657,2.669,2.669,0,0,0-.923-1.366c.371-.244.577.013.779.348.224.335.466.751.832.854.575.161,1.044-.225,1.429-.814a10.532,10.532,0,0,0,1.093-2.133c.787-1.824.98-4.8,1.736-5.756a2.129,2.129,0,0,1,2.588-1.055c1.146.474,1.339,1.225,1.141,1.666-.22.426-.954.6-1.725-.333a1.364,1.364,0,0,0,.285,1.869,3.764,3.764,0,0,0,2.156,1.035,3.478,3.478,0,0,0,2.629-.8,2.749,2.749,0,0,0,.772-.919,2.351,2.351,0,0,0,.391-1.048,3.826,3.826,0,0,0-.218-1.409,10.1,10.1,0,0,0-.841-1.726,8.228,8.228,0,0,0-3.044-3.155,13.363,13.363,0,0,0-3.063-.757c-1.176-.229-2.259-.477-2.461-1.21-.216-.833.832-1.531,1.647-1.727a5.4,5.4,0,0,1,3.5.6,16.617,16.617,0,0,0,3.169,1.3,7.88,7.88,0,0,0,3.44.023,3.665,3.665,0,0,0,1.446-.582,2.563,2.563,0,0,0,1.067-1.06,6.285,6.285,0,0,0,.587-1.787,14.625,14.625,0,0,0,.2-2.355c.008-1.6-.282-3.254-1.37-4.054a4.3,4.3,0,0,0-3.475-.378,2.9,2.9,0,0,0-2.376,2.469c1.373-1.449,2.433-.832,2.646.145a1.869,1.869,0,0,1-.267,1.5,1.717,1.717,0,0,1-.674.555,2.736,2.736,0,0,1-1.088.341c-1.372.166-2.489-1.376-2.658-2.669a2.13,2.13,0,0,1,.445-1.252,29.253,29.253,0,0,1,11.712-5.382l1.628-.3v27.287Zm30.711-249.1c-.511,1.379-1.471,2.431-3.69,4.043a21.1,21.1,0,0,0-3.217,2.88c-.133.261-.006.041-.594-.618a15.042,15.042,0,0,0-1.72-1.5,30.566,30.566,0,0,1-2.906-2.334,5.488,5.488,0,0,1-2.007-4.372,3.343,3.343,0,0,1,.3-1.706,3.97,3.97,0,0,1,1.787-1.9,3.037,3.037,0,0,1,1.731-.406,2.648,2.648,0,0,1,1.72.415,3.471,3.471,0,0,1,1.535,1.751l.312-.133a3.706,3.706,0,0,1,6.649.068A5.94,5.94,0,0,1,294.934,56.317ZM281.066,519.683c.511-1.379,1.471-2.431,3.69-4.043a21.1,21.1,0,0,0,3.217-2.88c.133-.261.006-.041.594.618a15.042,15.042,0,0,0,1.72,1.5,30.566,30.566,0,0,1,2.906,2.334,5.488,5.488,0,0,1,2.007,4.372,3.343,3.343,0,0,1-.3,1.706,3.97,3.97,0,0,1-1.787,1.9,3.037,3.037,0,0,1-1.731.406,2.648,2.648,0,0,1-1.72-.415,3.471,3.471,0,0,1-1.535-1.751l-.312.133a3.706,3.706,0,0,1-6.649-.068A5.94,5.94,0,0,1,281.066,519.683ZM492.1,170.379a3.706,3.706,0,0,1,3.265,5.792,5.941,5.941,0,0,1-3.253,1.993c-1.451.247-2.841-.059-5.347-1.175a21.047,21.047,0,0,0-4.1-1.346c-.292.016-.038.015.238-.823a15.014,15.014,0,0,0,.443-2.242,30.938,30.938,0,0,1,.568-3.683,5.491,5.491,0,0,1,2.783-3.925,3.343,3.343,0,0,1,1.628-.591,3.968,3.968,0,0,1,2.538.6,3.036,3.036,0,0,1,1.217,1.3,2.656,2.656,0,0,1,.5,1.7,3.475,3.475,0,0,1-.749,2.2ZM405.945,84.088a3.705,3.705,0,0,1,5.723,3.383,5.936,5.936,0,0,1-1.821,3.353c-1.133.939-2.49,1.37-5.217,1.656a21.055,21.055,0,0,0-4.227.886c-.245.159-.026.032-.205-.832a15.087,15.087,0,0,0-.737-2.163,30.462,30.462,0,0,1-1.35-3.474,5.486,5.486,0,0,1,.448-4.79,3.346,3.346,0,0,1,1.114-1.327,3.967,3.967,0,0,1,2.5-.749,3.024,3.024,0,0,1,1.7.513,2.656,2.656,0,0,1,1.282,1.219,3.474,3.474,0,0,1,.454,2.284ZM174.82,93.1a14.887,14.887,0,0,0-2.242-.443,30.938,30.938,0,0,1-3.683-.568,5.491,5.491,0,0,1-3.925-2.783,3.353,3.353,0,0,1-.591-1.628,3.968,3.968,0,0,1,.6-2.538,3.036,3.036,0,0,1,1.3-1.217,2.656,2.656,0,0,1,1.7-.5,3.475,3.475,0,0,1,2.2.749l.2-.271a3.706,3.706,0,0,1,5.792-3.265,5.941,5.941,0,0,1,1.993,3.253c.247,1.451-.059,2.841-1.175,5.347a21.047,21.047,0,0,0-1.346,4.1C175.659,93.631,175.658,93.377,174.82,93.1Zm-87.349,71.23a5.943,5.943,0,0,1,3.353,1.822c.939,1.133,1.37,2.49,1.656,5.217a21.055,21.055,0,0,0,.886,4.227c.159.245.032.026-.832.2a15.128,15.128,0,0,0-2.163.737,30.462,30.462,0,0,1-3.474,1.35,5.486,5.486,0,0,1-4.79-.448,3.335,3.335,0,0,1-1.326-1.114,3.962,3.962,0,0,1-.75-2.5,3.024,3.024,0,0,1,.513-1.7,2.656,2.656,0,0,1,1.219-1.282,3.474,3.474,0,0,1,2.284-.454l.041-.337A3.706,3.706,0,0,1,87.471,164.331ZM67.065,206.4a32.976,32.976,0,0,0,9.239.464q.183.4.389.792C82.761,219.18,91.761,223.12,98.242,224.4a32.976,32.976,0,0,0,9.239.464q.183.4.389.792c6.068,11.529,15.068,15.469,21.549,16.744a32.974,32.974,0,0,0,9.239.464q.183.4.389.792A37.421,37.421,0,0,0,142.458,249a37.351,37.351,0,0,0-5.678,2.952c-.24.153-.477.311-.708.475a33.049,33.049,0,0,0-8.272-4.23c-6.251-2.128-16.012-3.2-27.02,3.755-.24.153-.477.311-.708.475a33.049,33.049,0,0,0-8.272-4.23c-6.251-2.128-16.012-3.2-27.02,3.755-.24.153-.477.311-.708.475a33.049,33.049,0,0,0-8.272-4.23,29.545,29.545,0,0,0-16.532-.766q.126-.783.259-1.566a22.28,22.28,0,0,0,8.115-3.353c3.077-1.951,4.006-2.63,10.531-7.716a52.754,52.754,0,0,1,6.654-4.457c2.763-1.392,3.389-.764,2.63-1.45-.657-.593-4.576-7.618-6.833-13.5-3.046-7.933-5.5-12.134-8.938-15.065.2-.525.4-1.047.6-1.571A29.537,29.537,0,0,0,67.065,206.4Zm-14.63,81.418a3.706,3.706,0,0,1,.068-6.649,5.94,5.94,0,0,1,3.814-.1c1.379.511,2.431,1.471,4.043,3.69a21.1,21.1,0,0,0,2.88,3.217c.261.133.041.006-.618.594a15.042,15.042,0,0,0-1.5,1.72,30.566,30.566,0,0,1-2.334,2.906,5.488,5.488,0,0,1-4.372,2.007,3.343,3.343,0,0,1-1.706-.3,3.97,3.97,0,0,1-1.9-1.787,3.037,3.037,0,0,1-.406-1.731,2.648,2.648,0,0,1,.415-1.72,3.471,3.471,0,0,1,1.751-1.535Zm-.717,87.955a22.25,22.25,0,0,0,5.379-6.987c1.689-3.228,2.155-4.281,5.262-11.948a52.678,52.678,0,0,1,3.534-7.186c1.7-2.588,2.554-2.357,1.553-2.571-.866-.186-7.771-4.31-12.669-8.279-6.586-5.332-10.808-7.745-15.236-8.571q-.139-.828-.275-1.659a29.53,29.53,0,0,0,16.6-.772,32.949,32.949,0,0,0,8.233-4.217q.36.255.734.491c11.019,6.951,20.783,5.863,27.033,3.726a32.949,32.949,0,0,0,8.233-4.217q.36.255.734.491c11.019,6.951,20.783,5.863,27.033,3.726a32.949,32.949,0,0,0,8.233-4.217q.36.255.734.491a37.325,37.325,0,0,0,5.626,2.923,37.282,37.282,0,0,0-3.442,5.395q-.2.379-.376.766a33.023,33.023,0,0,0-9.278.472c-6.477,1.283-15.469,5.232-21.522,16.762-.133.253-.258.508-.377.766a33.023,33.023,0,0,0-9.278.472c-6.477,1.283-15.469,5.232-21.522,16.762-.133.253-.258.508-.377.766a33.023,33.023,0,0,0-9.278.472,29.544,29.544,0,0,0-14.724,7.625C52.094,376.756,51.9,376.264,51.718,375.768ZM83.9,405.621a3.706,3.706,0,0,1-3.265-5.792,5.941,5.941,0,0,1,3.253-1.993c1.451-.247,2.841.059,5.347,1.175a21.047,21.047,0,0,0,4.1,1.346c.292-.016.038-.015-.238.823a15.014,15.014,0,0,0-.443,2.242,30.938,30.938,0,0,1-.568,3.683,5.491,5.491,0,0,1-2.783,3.925,3.353,3.353,0,0,1-1.628.591,3.974,3.974,0,0,1-2.538-.6,3.036,3.036,0,0,1-1.217-1.3,2.656,2.656,0,0,1-.5-1.7,3.475,3.475,0,0,1,.749-2.2Zm86.154,86.291a3.705,3.705,0,0,1-5.723-3.383,5.936,5.936,0,0,1,1.821-3.353c1.133-.939,2.49-1.37,5.217-1.656a21.055,21.055,0,0,0,4.227-.886c.245-.159.026-.032.2.832a15.128,15.128,0,0,0,.737,2.163,30.462,30.462,0,0,1,1.35,3.474,5.486,5.486,0,0,1-.448,4.79,3.335,3.335,0,0,1-1.114,1.326,3.962,3.962,0,0,1-2.5.75,3.024,3.024,0,0,1-1.7-.513,2.656,2.656,0,0,1-1.282-1.219,3.475,3.475,0,0,1-.454-2.284ZM401.18,482.9a15.014,15.014,0,0,0,2.242.443,30.938,30.938,0,0,1,3.683.568,5.491,5.491,0,0,1,3.925,2.783,3.353,3.353,0,0,1,.591,1.628,3.968,3.968,0,0,1-.6,2.538,3.036,3.036,0,0,1-1.3,1.217,2.656,2.656,0,0,1-1.7.5,3.475,3.475,0,0,1-2.2-.749l-.2.271a3.706,3.706,0,0,1-5.792,3.265,5.941,5.941,0,0,1-1.993-3.253c-.247-1.451.059-2.841,1.175-5.347a21.069,21.069,0,0,0,1.346-4.1C400.341,482.369,400.342,482.623,401.18,482.9Zm87.349-71.231a5.936,5.936,0,0,1-3.353-1.821c-.939-1.133-1.37-2.49-1.656-5.217a21.055,21.055,0,0,0-.886-4.227c-.159-.245-.032-.026.832-.205a15.128,15.128,0,0,0,2.163-.737,30.462,30.462,0,0,1,3.474-1.35,5.486,5.486,0,0,1,4.79.448,3.327,3.327,0,0,1,1.326,1.114,3.962,3.962,0,0,1,.75,2.5,3.024,3.024,0,0,1-.513,1.7,2.656,2.656,0,0,1-1.219,1.282,3.474,3.474,0,0,1-2.284.454l-.041.337A3.705,3.705,0,0,1,488.529,411.668Zm20.406-42.063a32.976,32.976,0,0,0-9.239-.464q-.183-.4-.389-.792c-6.068-11.529-15.068-15.469-21.549-16.744a32.976,32.976,0,0,0-9.239-.464q-.183-.4-.389-.792c-6.068-11.529-15.068-15.469-21.549-16.744a32.974,32.974,0,0,0-9.239-.464q-.183-.4-.389-.792a37.421,37.421,0,0,0-3.411-5.344,37.351,37.351,0,0,0,5.678-2.952c.24-.153.477-.311.708-.475a33.049,33.049,0,0,0,8.272,4.23c6.251,2.128,16.012,3.2,27.02-3.755.24-.153.477-.311.708-.475a33.049,33.049,0,0,0,8.272,4.23c6.251,2.128,16.012,3.2,27.02-3.755.24-.153.477-.311.708-.475a33.049,33.049,0,0,0,8.272,4.23,29.545,29.545,0,0,0,16.532.766q-.126.783-.259,1.566a22.28,22.28,0,0,0-8.115,3.353c-3.077,1.951-4.006,2.63-10.531,7.716a52.754,52.754,0,0,1-6.654,4.457c-2.763,1.392-3.389.764-2.63,1.45.657.593,4.576,7.618,6.833,13.5,3.046,7.933,5.5,12.134,8.938,15.065-.195.525-.4,1.047-.6,1.571A29.533,29.533,0,0,0,508.935,369.605Z" transform="translate(0.5 0.5)"/><rect class="cls-2" x="0.5" y="0.5" width="576" height="576"/></svg>