<svg id="peace_2" data-name="peace 2" xmlns="http://www.w3.org/2000/svg" width="8.014in" height="8.014in" viewBox="0 0 577 577"><defs><style>.cls-1,.cls-2{fill:none;stroke-miterlimit:10;}.cls-1{stroke:blue;}.cls-2{stroke:red;}</style></defs><title>alien-love-worm-v1-layer-2</title><path class="cls-1" d="M474.974,456.944a10.941,10.941,0,0,0-5.436-.986,56.377,56.377,0,0,0-6.8.742,27.553,27.553,0,0,1-4.186.279c-1.618-.092-1.738-.541-1.573-.031a38.613,38.613,0,0,1-.437,7.916c-.787,4.97-.668,7.58.458,10.036l.009.015q-7.607,6.882-15.768,13.13a22.652,22.652,0,0,0-7.446-13.482,28.619,28.619,0,0,0-12.554-6.107,8.161,8.161,0,0,0,2.385-5.5c.4-10.175-4.039-16.258-7.831-19.57a28.619,28.619,0,0,0-12.554-6.107,8.161,8.161,0,0,0,2.385-5.5c.4-10.175-4.039-16.258-7.831-19.57a28.619,28.619,0,0,0-12.554-6.107,8.161,8.161,0,0,0,2.385-5.5c.4-10.175-4.039-16.258-7.831-19.57a28.619,28.619,0,0,0-12.554-6.107,8.145,8.145,0,0,0,2.368-5.3,8.138,8.138,0,0,0,5.333-2.366,28.652,28.652,0,0,0,6.13,12.571c3.315,3.787,9.4,8.216,19.571,7.807a8.15,8.15,0,0,0,5.476-2.378,28.652,28.652,0,0,0,6.13,12.571c3.315,3.787,9.4,8.216,19.571,7.807a8.15,8.15,0,0,0,5.476-2.378,28.652,28.652,0,0,0,6.13,12.571c3.315,3.787,9.4,8.216,19.571,7.807a8.145,8.145,0,0,0,5.475-2.378,28.665,28.665,0,0,0,6.131,12.571,22.64,22.64,0,0,0,13.434,7.42Q481.817,449.36,474.974,456.944Zm-109.487,70.9a10.9,10.9,0,0,0-4.249-3.618,56.232,56.232,0,0,0-6.259-2.756,27.657,27.657,0,0,1-3.764-1.852c-1.356-.889-1.235-1.337-1.347-.813a38.645,38.645,0,0,1-4.336,6.636c-3.167,3.912-4.37,6.231-4.622,8.921,0,.018,0,.039,0,.057q-9.976,2.133-20.23,3.476a22.657,22.657,0,0,0,.3-15.427,28.613,28.613,0,0,0-7.818-11.566,8.16,8.16,0,0,0,4.815-3.57c5.433-8.613,4.631-16.1,3-20.864a28.613,28.613,0,0,0-7.818-11.566,8.16,8.16,0,0,0,4.815-3.57c5.433-8.613,4.631-16.1,3-20.864a28.613,28.613,0,0,0-7.818-11.566,8.16,8.16,0,0,0,4.815-3.57c5.433-8.613,4.631-16.1,3-20.864a28.613,28.613,0,0,0-7.818-11.566,8.147,8.147,0,0,0,4.7-3.405,8.146,8.146,0,0,0,5.8.617,28.632,28.632,0,0,0-.977,13.952c.977,4.938,4.034,11.816,13.045,16.547a8.151,8.151,0,0,0,5.932.678,28.632,28.632,0,0,0-.977,13.952c.977,4.937,4.034,11.816,13.045,16.547a8.146,8.146,0,0,0,5.932.677,28.636,28.636,0,0,0-.977,13.953c.977,4.937,4.034,11.816,13.045,16.547a8.146,8.146,0,0,0,5.932.677,28.636,28.636,0,0,0-.977,13.953,22.652,22.652,0,0,0,7.974,13.184Q375.261,524.688,365.487,527.843Zm-130.305,6.6a10.917,10.917,0,0,0-1.869-5.243,56.539,56.539,0,0,0-4.042-5.516,27.624,27.624,0,0,1-2.334-3.485c-.73-1.448-.4-1.776-.76-1.378A38.619,38.619,0,0,1,219.1,522.4c-4.7,1.8-6.9,3.212-8.463,5.415-.013.019-.025.043-.038.062q-9.819-3.166-19.275-7.1a22.661,22.661,0,0,0,8-13.231,28.6,28.6,0,0,0-.988-13.925,8.157,8.157,0,0,0,5.955-.685c9.011-4.742,12.061-11.627,13.033-16.567a28.6,28.6,0,0,0-.988-13.925,8.157,8.157,0,0,0,5.955-.685c9.011-4.742,12.061-11.627,13.033-16.567a28.6,28.6,0,0,0-.988-13.925,8.157,8.157,0,0,0,5.955-.685c9.011-4.742,12.061-11.626,13.033-16.567a28.6,28.6,0,0,0-.988-13.925,8.146,8.146,0,0,0,5.773-.6,8.136,8.136,0,0,0,4.716,3.435,28.652,28.652,0,0,0-7.822,11.595c-1.622,4.765-2.414,12.251,3.024,20.853a8.147,8.147,0,0,0,4.8,3.552,28.652,28.652,0,0,0-7.822,11.595c-1.622,4.765-2.414,12.251,3.024,20.853a8.147,8.147,0,0,0,4.8,3.552,28.652,28.652,0,0,0-7.822,11.595c-1.622,4.765-2.414,12.251,3.024,20.853a8.147,8.147,0,0,0,4.8,3.552,28.652,28.652,0,0,0-7.822,11.595,22.645,22.645,0,0,0,.3,15.372Q245.111,536.57,235.182,534.438ZM119.056,474.974a10.941,10.941,0,0,0,.986-5.436,56.377,56.377,0,0,0-.742-6.8,27.553,27.553,0,0,1-.279-4.186c.092-1.618.541-1.738.031-1.573a38.613,38.613,0,0,1-7.916-.437c-4.97-.787-7.58-.668-10.036.458l-.015.008q-6.882-7.605-13.13-15.767a22.652,22.652,0,0,0,13.482-7.446,28.619,28.619,0,0,0,6.107-12.554,8.161,8.161,0,0,0,5.5,2.385c10.175.4,16.258-4.039,19.57-7.831a28.619,28.619,0,0,0,6.107-12.554,8.161,8.161,0,0,0,5.5,2.385c10.175.4,16.258-4.039,19.57-7.831a28.619,28.619,0,0,0,6.107-12.554,8.161,8.161,0,0,0,5.5,2.385c10.176.4,16.259-4.039,19.571-7.831a28.619,28.619,0,0,0,6.107-12.554,8.145,8.145,0,0,0,5.3,2.368,8.138,8.138,0,0,0,2.366,5.333,28.647,28.647,0,0,0-12.571,6.13c-3.787,3.315-8.216,9.4-7.807,19.571a8.15,8.15,0,0,0,2.378,5.476,28.647,28.647,0,0,0-12.571,6.13c-3.787,3.315-8.216,9.4-7.807,19.571a8.15,8.15,0,0,0,2.378,5.476,28.647,28.647,0,0,0-12.571,6.13c-3.787,3.315-8.216,9.4-7.807,19.571a8.145,8.145,0,0,0,2.378,5.475,28.66,28.66,0,0,0-12.571,6.131,22.64,22.64,0,0,0-7.42,13.434Q126.64,481.817,119.056,474.974Zm-18.03-355.918a10.941,10.941,0,0,0,5.436.986,56.377,56.377,0,0,0,6.8-.742,27.553,27.553,0,0,1,4.186-.279c1.618.092,1.738.541,1.573.031a38.613,38.613,0,0,1,.437-7.916c.787-4.97.668-7.58-.458-10.036l-.008-.015q7.605-6.882,15.767-13.13a22.652,22.652,0,0,0,7.446,13.482,28.619,28.619,0,0,0,12.554,6.107,8.161,8.161,0,0,0-2.385,5.5c-.4,10.175,4.039,16.258,7.831,19.57a28.619,28.619,0,0,0,12.554,6.107,8.161,8.161,0,0,0-2.385,5.5c-.4,10.175,4.039,16.258,7.831,19.57a28.619,28.619,0,0,0,12.554,6.107,8.159,8.159,0,0,0-2.385,5.5c-.4,10.176,4.039,16.259,7.831,19.57a28.61,28.61,0,0,0,12.554,6.108,8.145,8.145,0,0,0-2.368,5.3,8.138,8.138,0,0,0-5.333,2.366,28.647,28.647,0,0,0-6.13-12.571c-3.315-3.787-9.4-8.216-19.571-7.807a8.15,8.15,0,0,0-5.476,2.378,28.647,28.647,0,0,0-6.13-12.571c-3.315-3.787-9.4-8.216-19.571-7.807a8.15,8.15,0,0,0-5.476,2.378,28.647,28.647,0,0,0-6.13-12.571c-3.315-3.787-9.4-8.216-19.571-7.807a8.145,8.145,0,0,0-5.475,2.378,28.66,28.66,0,0,0-6.131-12.571,22.64,22.64,0,0,0-13.434-7.42Q94.183,126.64,101.026,119.056Zm109.487-70.9a10.911,10.911,0,0,0,4.249,3.618,56.232,56.232,0,0,0,6.259,2.756,27.657,27.657,0,0,1,3.764,1.852c1.356.889,1.235,1.337,1.347.813a38.6,38.6,0,0,1,4.336-6.636c3.167-3.912,4.37-6.231,4.622-8.921,0-.018,0-.039,0-.057q9.976-2.133,20.23-3.476a22.657,22.657,0,0,0-.3,15.427A28.613,28.613,0,0,0,262.836,65.1a8.16,8.16,0,0,0-4.815,3.57c-5.433,8.613-4.631,16.1-3,20.864a28.613,28.613,0,0,0,7.818,11.566,8.16,8.16,0,0,0-4.815,3.57c-5.433,8.613-4.631,16.1-3,20.864a28.613,28.613,0,0,0,7.818,11.566,8.16,8.16,0,0,0-4.815,3.57c-5.433,8.613-4.631,16.1-3,20.864a28.613,28.613,0,0,0,7.818,11.566,8.147,8.147,0,0,0-4.7,3.405,8.14,8.14,0,0,0-5.8-.617,28.632,28.632,0,0,0,.977-13.952c-.977-4.938-4.034-11.816-13.045-16.547a8.151,8.151,0,0,0-5.932-.678,28.632,28.632,0,0,0,.977-13.952c-.977-4.937-4.034-11.816-13.045-16.547a8.151,8.151,0,0,0-5.932-.678,28.632,28.632,0,0,0,.977-13.952c-.977-4.937-4.034-11.816-13.045-16.547a8.146,8.146,0,0,0-5.932-.677,28.636,28.636,0,0,0,.977-13.953,22.652,22.652,0,0,0-7.974-13.184Q200.739,51.313,210.513,48.157Zm130.3-6.595a10.917,10.917,0,0,0,1.869,5.243,56.539,56.539,0,0,0,4.042,5.516,27.624,27.624,0,0,1,2.334,3.485c.73,1.448.4,1.776.76,1.378a38.619,38.619,0,0,1,7.073-3.579c4.7-1.8,6.9-3.212,8.463-5.415.013-.019.025-.043.038-.062q9.819,3.166,19.275,7.1a22.661,22.661,0,0,0-8,13.231,28.6,28.6,0,0,0,.988,13.925,8.157,8.157,0,0,0-5.955.685c-9.011,4.742-12.061,11.627-13.033,16.567a28.6,28.6,0,0,0,.988,13.925,8.157,8.157,0,0,0-5.955.685c-9.011,4.742-12.061,11.627-13.033,16.567a28.6,28.6,0,0,0,.988,13.925,8.162,8.162,0,0,0-5.955.684c-9.011,4.743-12.061,11.627-13.033,16.568a28.6,28.6,0,0,0,.988,13.925,8.146,8.146,0,0,0-5.773.6,8.136,8.136,0,0,0-4.716-3.435,28.652,28.652,0,0,0,7.822-11.595c1.622-4.765,2.414-12.251-3.024-20.853a8.147,8.147,0,0,0-4.8-3.552,28.652,28.652,0,0,0,7.822-11.595c1.622-4.765,2.414-12.251-3.024-20.853a8.147,8.147,0,0,0-4.8-3.552,28.652,28.652,0,0,0,7.822-11.595c1.622-4.765,2.414-12.251-3.024-20.853a8.147,8.147,0,0,0-4.8-3.552,28.652,28.652,0,0,0,7.822-11.6,22.645,22.645,0,0,0-.3-15.372Q330.889,39.43,340.818,41.562Zm116.126,59.464a10.941,10.941,0,0,0-.986,5.436,56.377,56.377,0,0,0,.742,6.8,27.553,27.553,0,0,1,.279,4.186c-.092,1.618-.541,1.738-.031,1.573a38.613,38.613,0,0,1,7.916.437c4.97.786,7.58.668,10.036-.458l.015-.008q6.882,7.605,13.13,15.767a22.652,22.652,0,0,0-13.482,7.446,28.619,28.619,0,0,0-6.107,12.554,8.161,8.161,0,0,0-5.5-2.385c-10.175-.4-16.258,4.039-19.57,7.831a28.619,28.619,0,0,0-6.107,12.554,8.161,8.161,0,0,0-5.5-2.385c-10.175-.4-16.258,4.039-19.57,7.831a28.619,28.619,0,0,0-6.107,12.554,8.161,8.161,0,0,0-5.5-2.385c-10.176-.4-16.259,4.039-19.571,7.831a28.619,28.619,0,0,0-6.107,12.554,8.145,8.145,0,0,0-5.3-2.368,8.138,8.138,0,0,0-2.366-5.333,28.647,28.647,0,0,0,12.571-6.13c3.787-3.315,8.216-9.4,7.807-19.571a8.15,8.15,0,0,0-2.378-5.476,28.647,28.647,0,0,0,12.571-6.13c3.787-3.315,8.216-9.4,7.807-19.571a8.15,8.15,0,0,0-2.378-5.476,28.647,28.647,0,0,0,12.571-6.13c3.787-3.315,8.216-9.4,7.807-19.571a8.145,8.145,0,0,0-2.378-5.475,28.66,28.66,0,0,0,12.571-6.131,22.64,22.64,0,0,0,7.42-13.434Q449.36,94.183,456.944,101.026Zm70.9,109.487a10.911,10.911,0,0,0-3.618,4.249,56.232,56.232,0,0,0-2.756,6.259,27.657,27.657,0,0,1-1.852,3.764c-.889,1.356-1.337,1.235-.813,1.347a38.6,38.6,0,0,1,6.636,4.336c3.912,3.167,6.231,4.37,8.921,4.622h.057q2.133,9.976,3.476,20.23a22.657,22.657,0,0,0-15.427-.3,28.613,28.613,0,0,0-11.566,7.818,8.16,8.16,0,0,0-3.57-4.815c-8.613-5.433-16.1-4.631-20.864-3a28.613,28.613,0,0,0-11.566,7.818,8.16,8.16,0,0,0-3.57-4.815c-8.613-5.433-16.1-4.631-20.864-3a28.613,28.613,0,0,0-11.566,7.818,8.16,8.16,0,0,0-3.57-4.815c-8.613-5.433-16.1-4.631-20.864-3a28.613,28.613,0,0,0-11.566,7.818,8.147,8.147,0,0,0-3.405-4.7,8.14,8.14,0,0,0,.617-5.8,28.632,28.632,0,0,0,13.952.977c4.938-.977,11.816-4.034,16.547-13.045a8.151,8.151,0,0,0,.678-5.932,28.632,28.632,0,0,0,13.952.977c4.937-.977,11.816-4.034,16.547-13.045a8.151,8.151,0,0,0,.678-5.932,28.632,28.632,0,0,0,13.952.977c4.937-.977,11.816-4.034,16.547-13.045a8.146,8.146,0,0,0,.677-5.932,28.636,28.636,0,0,0,13.953.977,22.652,22.652,0,0,0,13.184-7.974Q524.688,200.739,527.843,210.513Zm-4.278,77.674a3.706,3.706,0,0,1-.068,6.649,5.94,5.94,0,0,1-3.814.1c-1.379-.511-2.431-1.471-4.043-3.69a21.1,21.1,0,0,0-2.88-3.217c-.261-.133-.041-.006.618-.594a15.042,15.042,0,0,0,1.5-1.72,30.566,30.566,0,0,1,2.334-2.906,5.488,5.488,0,0,1,4.372-2.007,3.343,3.343,0,0,1,1.706.3,3.97,3.97,0,0,1,1.9,1.787,3.037,3.037,0,0,1,.406,1.731,2.648,2.648,0,0,1-.415,1.72,3.471,3.471,0,0,1-1.751,1.535Zm-36,0a3.706,3.706,0,0,1-.068,6.649,5.94,5.94,0,0,1-3.814.1c-1.379-.511-2.431-1.471-4.043-3.69a21.1,21.1,0,0,0-2.88-3.217c-.261-.133-.041-.006.618-.594a15.042,15.042,0,0,0,1.5-1.72,30.566,30.566,0,0,1,2.334-2.906,5.488,5.488,0,0,1,4.372-2.007,3.343,3.343,0,0,1,1.706.3,3.97,3.97,0,0,1,1.9,1.787,3.037,3.037,0,0,1,.406,1.731,2.648,2.648,0,0,1-.415,1.72,3.471,3.471,0,0,1-1.751,1.535l-.352.09Zm-36,0a3.706,3.706,0,0,1-.068,6.649,5.94,5.94,0,0,1-3.814.1c-1.379-.511-2.431-1.471-4.043-3.69a21.1,21.1,0,0,0-2.88-3.217c-.261-.133-.041-.006.618-.594a15.042,15.042,0,0,0,1.5-1.72,30.566,30.566,0,0,1,2.334-2.906,5.488,5.488,0,0,1,4.372-2.007,3.343,3.343,0,0,1,1.706.3,3.97,3.97,0,0,1,1.9,1.787,3.037,3.037,0,0,1,.406,1.731,2.648,2.648,0,0,1-.415,1.72,3.471,3.471,0,0,1-1.751,1.535l-.352.09ZM369.621,429.745a3.706,3.706,0,0,1-5.792,3.266,5.944,5.944,0,0,1-1.993-3.254c-.247-1.45.059-2.841,1.175-5.346a21.07,21.07,0,0,0,1.346-4.1c-.016-.292-.015-.038.823.238a15,15,0,0,0,2.242.444,30.8,30.8,0,0,1,3.683.567,5.489,5.489,0,0,1,3.925,2.784,3.35,3.35,0,0,1,.591,1.627,3.965,3.965,0,0,1-.6,2.538,3.043,3.043,0,0,1-1.3,1.218,2.66,2.66,0,0,1-1.7.5,3.469,3.469,0,0,1-2.2-.749l-.254-.26Zm-60-79.334a7.265,7.265,0,0,1,1.938,3.877,9.205,9.205,0,0,1,0,3.037,34.185,34.185,0,0,0-3.471,5.618,32.807,32.807,0,0,0-6.279-3.309,2.915,2.915,0,0,1-1.094-1.52,7.242,7.242,0,0,1-.249-4.375l1.093-4.225q2.853-.628,5.608-1.5Zm-34.1,2.448a7.268,7.268,0,0,1-.26,4.328,9.232,9.232,0,0,1-1.518,2.63,34.073,34.073,0,0,0-5.815,3.13,32.773,32.773,0,0,0-3.783-6.006,2.921,2.921,0,0,1-.188-1.863,7.247,7.247,0,0,1,1.972-3.914l3.054-3.1q2.754.874,5.614,1.491Zm-69.463,76.7a3.705,3.705,0,0,1-5.723-3.383,5.933,5.933,0,0,1,1.821-3.352c1.133-.94,2.49-1.37,5.217-1.656a21.03,21.03,0,0,0,4.227-.887c.245-.159.026-.032.2.833a15.17,15.17,0,0,0,.737,2.163,30.4,30.4,0,0,1,1.35,3.473,5.488,5.488,0,0,1-.448,4.791,3.349,3.349,0,0,1-1.114,1.326,3.969,3.969,0,0,1-2.5.75,3.034,3.034,0,0,1-1.7-.514,2.652,2.652,0,0,1-1.282-1.219,3.474,3.474,0,0,1-.454-2.284l.1-.35Zm.324-283.3a3.706,3.706,0,0,1,5.792-3.266,5.944,5.944,0,0,1,1.993,3.254c.247,1.45-.059,2.841-1.175,5.346a21.07,21.07,0,0,0-1.346,4.1c.016.292.015.038-.823-.238a15,15,0,0,0-2.242-.444,30.8,30.8,0,0,1-3.683-.567,5.489,5.489,0,0,1-3.925-2.784,3.35,3.35,0,0,1-.591-1.627,3.965,3.965,0,0,1,.6-2.538,3.043,3.043,0,0,1,1.3-1.218,2.66,2.66,0,0,1,1.7-.5,3.469,3.469,0,0,1,2.2.749l.254.26Zm60,79.334a7.265,7.265,0,0,1-1.938-3.877,9.205,9.205,0,0,1,0-3.037,34.185,34.185,0,0,0,3.471-5.618,32.807,32.807,0,0,0,6.279,3.309,2.915,2.915,0,0,1,1.094,1.52,7.242,7.242,0,0,1,.249,4.375l-1.093,4.225q-2.853.629-5.608,1.505Zm34.1-2.448a7.268,7.268,0,0,1,.26-4.328,9.232,9.232,0,0,1,1.518-2.63,34.073,34.073,0,0,0,5.815-3.13,32.773,32.773,0,0,0,3.783,6.006,2.921,2.921,0,0,1,.188,1.863,7.247,7.247,0,0,1-1.972,3.914l-3.054,3.1q-2.754-.874-5.614-1.491Zm69.463-76.7a3.705,3.705,0,0,1,5.723,3.383,5.933,5.933,0,0,1-1.821,3.352c-1.133.94-2.49,1.37-5.217,1.656a21.03,21.03,0,0,0-4.227.887c-.245.159-.026.032-.205-.833a15.17,15.17,0,0,0-.737-2.163,30.473,30.473,0,0,1-1.35-3.473,5.488,5.488,0,0,1,.448-4.791,3.349,3.349,0,0,1,1.114-1.326,3.969,3.969,0,0,1,2.5-.75,3.034,3.034,0,0,1,1.7.514,2.652,2.652,0,0,1,1.282,1.219,3.474,3.474,0,0,1,.454,2.284l-.1.35Zm-13,165.416a2.917,2.917,0,0,1-1.863.187,7.239,7.239,0,0,1-3.914-1.971l-3.1-3.054q.874-2.754,1.491-5.614l3.309-.924a7.268,7.268,0,0,1,4.328.26,9.232,9.232,0,0,1,2.63,1.518,34.073,34.073,0,0,0,3.13,5.815A32.773,32.773,0,0,0,356.941,311.858Zm-135.229-.3a9.205,9.205,0,0,1-3.037,0,34.185,34.185,0,0,0-5.618-3.471,32.807,32.807,0,0,0,3.309-6.279,2.915,2.915,0,0,1,1.52-1.094,7.242,7.242,0,0,1,4.375-.249l4.225,1.093q.629,2.853,1.505,5.608l-2.4,2.453A7.265,7.265,0,0,1,221.712,311.558Zm-2.653-47.416a2.921,2.921,0,0,1,1.863-.188,7.247,7.247,0,0,1,3.914,1.972l3.1,3.054q-.874,2.754-1.491,5.614l-3.309.924a7.268,7.268,0,0,1-4.328-.26,9.232,9.232,0,0,1-2.63-1.518,34.073,34.073,0,0,0-3.13-5.815A32.773,32.773,0,0,0,219.059,264.142Zm135.229.3a9.205,9.205,0,0,1,3.037,0,34.185,34.185,0,0,0,5.618,3.471,32.807,32.807,0,0,0-3.309,6.279,2.915,2.915,0,0,1-1.52,1.094,7.242,7.242,0,0,1-4.375.249l-4.225-1.093q-.628-2.853-1.5-5.608l2.4-2.453A7.265,7.265,0,0,1,354.288,264.442Zm-22.478,25.95q-.122,1.938-.4,3.863a2.007,2.007,0,0,1-2.744-1.422c.031-.7.66.249.843-.05a1.933,1.933,0,0,0-2.957-.929,3.255,3.255,0,0,0-1.711,3.093,6.427,6.427,0,0,0,.616,1.919,4.967,4.967,0,0,0,1.409,1.738c.712.529,2.2.39,2.815.94a2.156,2.156,0,0,1,.484.612c-.132.471-.268.941-.415,1.408-.051.161-.111.318-.164.478-.779.744-1.949,1.384-2.647,2.08a2.217,2.217,0,0,0,.241,1.5c-.864.071-.332-1.173-.923-1.674-.865-.752-2.369.36-3.514,1.379a8.491,8.491,0,0,0-1,1.168c-.348.421-.675.877-.979,1.321a8.22,8.22,0,0,1-1.609,2.036,2.272,2.272,0,0,1-2.718.222l-.567-.567c-.991-1.374.7-2.513,1.47-.567a1.2,1.2,0,0,0,.551-.8,2.109,2.109,0,0,0-.2-1.061,3.815,3.815,0,0,0-1.647-1.75,3.128,3.128,0,0,0-2.8-.031,3.6,3.6,0,0,0-.992.6L292.5,286.136V254.587a9.471,9.471,0,0,0,2.271-2.386c.926-1.359,1.568-2.905,1.167-4.143a4.349,4.349,0,0,0-2.365-2.264,3.222,3.222,0,0,0-1.073-.3v-1.126a46.516,46.516,0,0,1,9.064,1.88c.51.162,1.016.337,1.519.52.018.015.048.048.061.055a2.707,2.707,0,0,0,.687.233q1.808.7,3.541,1.569a2.03,2.03,0,0,1-2.21,2.2c-.655-.235.444-.552.214-.815a1.924,1.924,0,0,0-1.8,2.522A3.222,3.222,0,0,0,306,255.088a5.5,5.5,0,0,0,4.108-.79c.726-.518,1.053-1.972,1.769-2.387a2.042,2.042,0,0,1,.677-.257c.416.28.829.564,1.236.856l.417.312c.457.971.767,2.191,1.144,3.143a2.044,2.044,0,0,0,1.5.232c-.188.831-1.244-.017-1.884.368-.994.6-.386,2.362.26,3.733.736,1.781,2.867,3.711,3.168,4.837a2.175,2.175,0,0,1-.646,2.673c-2.086,1.368-3.155-1.056-.773-1.232a1.439,1.439,0,0,0-1.642-.933,3.812,3.812,0,0,0-2.174,1.031,2.929,2.929,0,0,0-.768,1.268,3.541,3.541,0,0,0-.159,1.413,3.476,3.476,0,0,0,.372,1.3,3.428,3.428,0,0,0,.356.55,2.773,2.773,0,0,0,.394.5,5.186,5.186,0,0,0,3.357,1,7.468,7.468,0,0,0,4.257-1.025,15.7,15.7,0,0,0,2.216-2.245c.8-.875,1.6-1.65,2.3-1.486.8.188.817,1.342.558,2.111-.823,2.408-3.349,3.116-4.813,4.928a6.533,6.533,0,0,0-1.4,3.157,3.418,3.418,0,0,0,.634,3.11,7.421,7.421,0,0,0,3.654,2.127c1.569.465,3.249.6,4.3-.161a4.383,4.383,0,0,0,1.451-2.949,4.171,4.171,0,0,0,.006-.9,3.176,3.176,0,0,0-.263-.808,2.075,2.075,0,0,0-1.189-1.084c.861,1.627-.066,2.356-1.061,2.252a1.76,1.76,0,0,1-1.463-2.583c.431-1.279,2.291-1.672,3.511-1.385a1.951,1.951,0,0,1,.949.826A47.527,47.527,0,0,1,331.909,288c-.008.538-.026,1.076-.051,1.614-.006.017-.025.049-.027.061A2.583,2.583,0,0,0,331.81,290.392Zm-35.534,38.584a1.963,1.963,0,0,0-.029-3.128,3.363,3.363,0,0,0-3.468-.675c-.09.04-.185.095-.279.149V298.864l16.3,16.3a6.214,6.214,0,0,0-1.611.039,6.071,6.071,0,0,0-.807.2,3.709,3.709,0,0,0-.766.286,2.955,2.955,0,0,0-1.187,1.078,3.814,3.814,0,0,0-.38.837,6.183,6.183,0,0,0-.29.98,10.286,10.286,0,0,0-.2,2.334c.04,1.624.43,3.259,1.485,4.028a4.475,4.475,0,0,0,3.274.5,2.629,2.629,0,0,0,2.2-2.258c-1.3,1.293-2.283.63-2.49-.344s.251-2.194,2.031-2.141c1.3-.053,2.263,1.606,2.393,2.888a1.64,1.64,0,0,1-.42,1.087,42.764,42.764,0,0,1-10.465,5.06q-.8.251-1.6.472h-.013a2.655,2.655,0,0,0-.616.162q-1.925.5-3.884.836a2,2,0,0,1,.516-3.034C296.641,328.01,295.934,328.89,296.276,328.976Zm-14.018-2.587c-1.67-.878-4.48-1.388-5.424-1.98a2.28,2.28,0,0,1-1.021-2.616c.447-1.162,1.226-1.38,1.665-1.12s.6.953-.342,1.736c1.217.876,2.815-.84,3.044-2.38a3.114,3.114,0,0,0-.833-2.677,3.784,3.784,0,0,0-2.271-1.257,5.6,5.6,0,0,0-3.289,1.139,7.745,7.745,0,0,0-2.871,3.376,15.163,15.163,0,0,0-.457,3.077c-.129,1.163-.318,2.251-.989,2.545-.764.329-1.487-.534-1.721-1.319-.7-2.507.932-4.57,1.02-6.844a7.176,7.176,0,0,0-.153-1.723,6.527,6.527,0,0,0-.544-1.691c-.04-.081-.094-.148-.137-.226L283.5,298.864v28.367A10.973,10.973,0,0,0,282.258,326.389Zm1.242,3.769v.445l-.148.123A.418.418,0,0,1,283.5,330.158Zm-29.557-14.465c-.135-.173-.27-.347-.4-.525l-1.033-1.379a48.1,48.1,0,0,1-3.324-5.334,2.034,2.034,0,0,1,3.065-.459c.422.558-.69.191-.645.531a1.961,1.961,0,0,0,2.965-1,3.537,3.537,0,0,0,.245-1.76,2.89,2.89,0,0,0-.691-1.738,5.371,5.371,0,0,0-1.672-1.171,4.785,4.785,0,0,0-2.13-.591c-.88-.012-2.018.982-2.827.892a2.06,2.06,0,0,1-.78-.232c-.162-.452-.321-.905-.467-1.363-.057-.18-.1-.363-.16-.544.219-1.046.79-2.226.962-3.183a2.169,2.169,0,0,0-1.134-1.062c.623-.557,1.036.738,1.79.8,1.188.09,1.587-1.659,2-3.173a6.7,6.7,0,0,0,.147-1.537c-.01-.54-.051-1.1-.026-1.638a13.15,13.15,0,0,1,.119-2.6,2.5,2.5,0,0,1,.871-1.355,1.882,1.882,0,0,1,1.279-.425c1.247.066,1.67.741,1.572,1.239-.062.494-.7.868-1.738.211-.444,1.43,1.645,2.424,3.189,2.169a3.616,3.616,0,0,0,2.8-4.184,3.349,3.349,0,0,0-.748-1.409,7.251,7.251,0,0,0-1.367-1.371,7.624,7.624,0,0,0-4.08-1.677,15.386,15.386,0,0,0-3.085.519c-1.152.238-2.25.4-2.73-.15-.55-.624.089-1.572.736-2.044a5.656,5.656,0,0,1,3.375-.888A14.773,14.773,0,0,0,253.47,279a7.627,7.627,0,0,0,3.007-1.725,4.108,4.108,0,0,0,.979-1.323,3.094,3.094,0,0,0,.23-.764,2.813,2.813,0,0,0,.1-.8,7.771,7.771,0,0,0-1.76-3.894c-.954-1.275-2.219-2.363-3.55-2.383a4.049,4.049,0,0,0-2.89,1.541,3.715,3.715,0,0,0-.828,1.52,1.994,1.994,0,0,0,.335,1.579,2.647,2.647,0,0,1,.321-1.058,1.249,1.249,0,0,1,.606-.468,1.33,1.33,0,0,1,1.286.342,1.759,1.759,0,0,1,.6,1.326,1.939,1.939,0,0,1-.944,1.617c-1.074.792-2.815.015-3.647-.938a2.042,2.042,0,0,1-.3-1.289,45.1,45.1,0,0,1,5.5-10.072l1.012-1.35a3.4,3.4,0,0,0,.349-.46,10.735,10.735,0,0,1,.761-.9l1.908-2.1a2.064,2.064,0,0,1,1.418,2.794c-.414.562-.392-.595-.707-.453a1.943,1.943,0,0,0,1.853,2.5,3.458,3.458,0,0,0,3.184-1.51,5.889,5.889,0,0,0,.491-4.173c-.257-.834-1.56-1.619-1.721-2.409a2.034,2.034,0,0,1-.019-.768l1.172-.878c.15-.107.3-.209.454-.314,1.016-.19,2.347.028,3.324-.094a2.109,2.109,0,0,0,.669-1.385c.727.426-.388,1.2-.216,1.929.131.574.667.836,1.345.933a13.218,13.218,0,0,0,2.282-.033,10.663,10.663,0,0,0,3.054-.88,13.132,13.132,0,0,1,2.52-.655,2.161,2.161,0,0,1,2.347,1.472c.323,1.21-.195,1.792-.681,1.907-.491.086-1.043-.407-.738-1.591-1.5,0-1.806,2.278-1.084,3.668a3.239,3.239,0,0,0,2.264,1.72,3.547,3.547,0,0,0,1.334.019,3.007,3.007,0,0,0,1.237-.346,5.664,5.664,0,0,0,1.989-2.869,7.565,7.565,0,0,0,.345-4.387,15.523,15.523,0,0,0-1.441-2.786c-.582-1.027-1.069-2.025-.7-2.646.425-.71,1.525-.385,2.173.09a3.894,3.894,0,0,1,.808.8v39.077Zm7.763,6.536a2.013,2.013,0,0,1-1.269-.073c-.043-.033-.087-.065-.13-.1l3.285-3.285a2.8,2.8,0,0,1,.131.285C264.159,320.3,262.878,321.722,261.706,322.229Zm81.426-82a2.914,2.914,0,0,1-.769,1.708,7.244,7.244,0,0,1-3.664,2.4l-4.232,1.173q-1.952-2.133-4.089-4.083l.862-3.354a7.253,7.253,0,0,1,2.388-3.617,9.165,9.165,0,0,1,2.63-1.519,34.12,34.12,0,0,0,6.6.2A32.743,32.743,0,0,0,343.132,240.224ZM281.1,88.706a3.97,3.97,0,0,1,1.787-1.9,3.037,3.037,0,0,1,1.731-.406,2.648,2.648,0,0,1,1.72.415,3.471,3.471,0,0,1,1.535,1.751l.09.352.222-.485a3.706,3.706,0,0,1,6.649.068,5.94,5.94,0,0,1,.1,3.814c-.511,1.379-1.471,2.431-3.69,4.043a21.1,21.1,0,0,0-3.217,2.88c-.133.261-.006.041-.594-.618a15.042,15.042,0,0,0-1.72-1.5,30.566,30.566,0,0,1-2.906-2.334,5.488,5.488,0,0,1-2.007-4.372A3.343,3.343,0,0,1,281.1,88.706Zm-.3-34.294a3.343,3.343,0,0,1,.3-1.706,3.97,3.97,0,0,1,1.787-1.9,3.037,3.037,0,0,1,1.731-.406,2.648,2.648,0,0,1,1.72.415,3.471,3.471,0,0,1,1.535,1.751l.312-.133a3.706,3.706,0,0,1,6.649.068,5.94,5.94,0,0,1,.1,3.814c-.511,1.379-1.471,2.431-3.69,4.043a21.1,21.1,0,0,0-3.217,2.88c-.133.261-.006.041-.594-.618a15.042,15.042,0,0,0-1.72-1.5,30.566,30.566,0,0,1-2.906-2.334A5.488,5.488,0,0,1,280.8,54.412Zm.3,70.294a3.97,3.97,0,0,1,1.787-1.9,3.037,3.037,0,0,1,1.731-.406,2.648,2.648,0,0,1,1.72.415,3.471,3.471,0,0,1,1.535,1.751l.09.352.222-.485a3.706,3.706,0,0,1,6.649.068,5.94,5.94,0,0,1,.1,3.814c-.511,1.379-1.471,2.431-3.69,4.043a21.1,21.1,0,0,0-3.217,2.88c-.133.261-.006.041-.594-.618a15.042,15.042,0,0,0-1.72-1.5,30.566,30.566,0,0,1-2.906-2.334,5.488,5.488,0,0,1-2.007-4.372A3.343,3.343,0,0,1,281.1,124.706ZM241.425,245.622l-3.354-.862a7.253,7.253,0,0,1-3.617-2.388,9.165,9.165,0,0,1-1.519-2.63,34.12,34.12,0,0,0,.2-6.6,32.743,32.743,0,0,0,7.092-.273,2.914,2.914,0,0,1,1.708.769,7.244,7.244,0,0,1,2.4,3.664l1.173,4.232Q243.375,243.485,241.425,245.622Zm-8.557,90.154a2.914,2.914,0,0,1,.769-1.708,7.244,7.244,0,0,1,3.664-2.4l4.233-1.173q1.95,2.133,4.088,4.083l-.862,3.354a7.253,7.253,0,0,1-2.388,3.617,9.165,9.165,0,0,1-2.63,1.519,34.12,34.12,0,0,0-6.6-.2A32.743,32.743,0,0,0,232.868,335.776ZM294.9,487.294a3.97,3.97,0,0,1-1.787,1.9,3.037,3.037,0,0,1-1.731.406,2.648,2.648,0,0,1-1.72-.415,3.471,3.471,0,0,1-1.535-1.751l-.09-.352-.222.485a3.706,3.706,0,0,1-6.649-.068,5.94,5.94,0,0,1-.1-3.814c.511-1.379,1.471-2.431,3.69-4.043a21.1,21.1,0,0,0,3.217-2.88c.133-.261.006-.041.594.618a15.042,15.042,0,0,0,1.72,1.5,30.566,30.566,0,0,1,2.906,2.334,5.488,5.488,0,0,1,2.007,4.372A3.343,3.343,0,0,1,294.9,487.294Zm.3,34.294a3.343,3.343,0,0,1-.3,1.706,3.97,3.97,0,0,1-1.787,1.9,3.037,3.037,0,0,1-1.731.406,2.648,2.648,0,0,1-1.72-.415,3.471,3.471,0,0,1-1.535-1.751l-.312.133a3.706,3.706,0,0,1-6.649-.068,5.94,5.94,0,0,1-.1-3.814c.511-1.379,1.471-2.431,3.69-4.043a21.1,21.1,0,0,0,3.217-2.88c.133-.261.006-.041.594.618a15.042,15.042,0,0,0,1.72,1.5,30.566,30.566,0,0,1,2.906,2.334A5.488,5.488,0,0,1,295.2,521.588Zm-.3-70.294a3.97,3.97,0,0,1-1.787,1.9,3.037,3.037,0,0,1-1.731.406,2.648,2.648,0,0,1-1.72-.415,3.471,3.471,0,0,1-1.535-1.751l-.09-.352-.222.485a3.706,3.706,0,0,1-6.649-.068,5.94,5.94,0,0,1-.1-3.814c.511-1.379,1.471-2.431,3.69-4.043a21.1,21.1,0,0,0,3.217-2.88c.133-.261.006-.041.594.618a15.042,15.042,0,0,0,1.72,1.5,30.566,30.566,0,0,1,2.906,2.334,5.488,5.488,0,0,1,2.007,4.372A3.343,3.343,0,0,1,294.9,451.294Zm39.677-120.916,3.354.862a7.253,7.253,0,0,1,3.617,2.388,9.165,9.165,0,0,1,1.519,2.63,34.12,34.12,0,0,0-.2,6.6,32.743,32.743,0,0,0-7.092.273,2.914,2.914,0,0,1-1.708-.769,7.244,7.244,0,0,1-2.4-3.664l-1.173-4.232Q332.625,332.516,334.575,330.378Zm95.17-124a3.706,3.706,0,0,1,3.266,5.792,5.944,5.944,0,0,1-3.254,1.993c-1.45.247-2.841-.059-5.346-1.175a21.07,21.07,0,0,0-4.1-1.346c-.292.016-.038.015.238-.823a15,15,0,0,0,.444-2.242,30.8,30.8,0,0,1,.567-3.683,5.489,5.489,0,0,1,2.784-3.925,3.34,3.34,0,0,1,1.627-.591,3.965,3.965,0,0,1,2.538.6,3.043,3.043,0,0,1,1.218,1.3,2.66,2.66,0,0,1,.5,1.7,3.469,3.469,0,0,1-.749,2.2l-.26.254Zm31.177-18a3.706,3.706,0,0,1,3.266,5.792,5.947,5.947,0,0,1-3.254,1.993c-1.45.247-2.841-.059-5.346-1.175a21.07,21.07,0,0,0-4.1-1.346c-.292.016-.038.015.238-.823a15,15,0,0,0,.444-2.242,30.8,30.8,0,0,1,.567-3.683,5.491,5.491,0,0,1,2.783-3.925,3.346,3.346,0,0,1,1.628-.591,3.968,3.968,0,0,1,2.538.6,3.043,3.043,0,0,1,1.218,1.3,2.66,2.66,0,0,1,.5,1.7,3.475,3.475,0,0,1-.749,2.2l-.26.254Zm31.177-18a3.706,3.706,0,0,1,3.265,5.792,5.941,5.941,0,0,1-3.253,1.993c-1.451.247-2.841-.059-5.347-1.175a21.047,21.047,0,0,0-4.1-1.346c-.292.016-.038.015.238-.823a15.014,15.014,0,0,0,.443-2.242,30.938,30.938,0,0,1,.568-3.683,5.491,5.491,0,0,1,2.783-3.925,3.343,3.343,0,0,1,1.628-.591,3.968,3.968,0,0,1,2.538.6,3.036,3.036,0,0,1,1.217,1.3,2.656,2.656,0,0,1,.5,1.7,3.475,3.475,0,0,1-.749,2.2ZM387.945,115.265a3.705,3.705,0,0,1,5.723,3.383A5.93,5.93,0,0,1,391.847,122c-1.133.94-2.49,1.37-5.217,1.657a21.055,21.055,0,0,0-4.227.886c-.245.159-.026.032-.205-.832a15.087,15.087,0,0,0-.737-2.163,30.462,30.462,0,0,1-1.35-3.474,5.488,5.488,0,0,1,.448-4.791,3.349,3.349,0,0,1,1.114-1.326,3.975,3.975,0,0,1,2.5-.75,3.034,3.034,0,0,1,1.7.514,2.652,2.652,0,0,1,1.282,1.219,3.474,3.474,0,0,1,.454,2.284l-.1.35Zm18-31.177a3.705,3.705,0,0,1,5.723,3.383,5.936,5.936,0,0,1-1.821,3.353c-1.133.939-2.49,1.37-5.217,1.656a21.055,21.055,0,0,0-4.227.886c-.245.159-.026.032-.205-.832a15.087,15.087,0,0,0-.737-2.163,30.462,30.462,0,0,1-1.35-3.474,5.486,5.486,0,0,1,.448-4.79,3.346,3.346,0,0,1,1.114-1.327,3.967,3.967,0,0,1,2.5-.749,3.024,3.024,0,0,1,1.7.513,2.656,2.656,0,0,1,1.282,1.219,3.474,3.474,0,0,1,.454,2.284ZM192.82,124.278a15,15,0,0,0-2.242-.444,30.8,30.8,0,0,1-3.683-.567,5.489,5.489,0,0,1-3.925-2.784,3.35,3.35,0,0,1-.591-1.627,3.968,3.968,0,0,1,.6-2.538,3.043,3.043,0,0,1,1.3-1.218,2.66,2.66,0,0,1,1.7-.5,3.475,3.475,0,0,1,2.2.749l.254.26-.051-.531a3.706,3.706,0,0,1,5.792-3.266,5.947,5.947,0,0,1,1.993,3.254c.247,1.45-.059,2.841-1.175,5.346a21.07,21.07,0,0,0-1.346,4.1C193.659,124.808,193.658,124.554,192.82,124.278Zm-18-31.177a14.887,14.887,0,0,0-2.242-.443,30.938,30.938,0,0,1-3.683-.568,5.491,5.491,0,0,1-3.925-2.783,3.353,3.353,0,0,1-.591-1.628,3.968,3.968,0,0,1,.6-2.538,3.036,3.036,0,0,1,1.3-1.217,2.656,2.656,0,0,1,1.7-.5,3.475,3.475,0,0,1,2.2.749l.2-.271a3.706,3.706,0,0,1,5.792-3.265,5.941,5.941,0,0,1,1.993,3.253c.247,1.451-.059,2.841-1.175,5.347a21.047,21.047,0,0,0-1.346,4.1C175.659,93.631,175.658,93.377,174.82,93.1ZM146.442,206.055a3.706,3.706,0,0,1,3.383-5.724,5.941,5.941,0,0,1,3.352,1.822c.94,1.133,1.37,2.49,1.656,5.217a21.03,21.03,0,0,0,.887,4.227c.159.245.032.026-.833.2a15.17,15.17,0,0,0-2.163.737,30.473,30.473,0,0,1-3.473,1.35,5.488,5.488,0,0,1-4.791-.448,3.349,3.349,0,0,1-1.326-1.114,3.969,3.969,0,0,1-.75-2.5,3.034,3.034,0,0,1,.514-1.7,2.652,2.652,0,0,1,1.219-1.282,3.474,3.474,0,0,1,2.284-.454l.35.1Zm-31.177-18a3.706,3.706,0,0,1,3.383-5.724A5.938,5.938,0,0,1,122,184.153c.94,1.133,1.37,2.49,1.657,5.217a21.055,21.055,0,0,0,.886,4.227c.159.245.032.026-.832.2a15.087,15.087,0,0,0-2.163.737,30.462,30.462,0,0,1-3.474,1.35,5.486,5.486,0,0,1-4.79-.448,3.346,3.346,0,0,1-1.327-1.114,3.975,3.975,0,0,1-.75-2.5,3.034,3.034,0,0,1,.514-1.7,2.652,2.652,0,0,1,1.219-1.282,3.474,3.474,0,0,1,2.284-.454l.35.1ZM87.471,164.331a5.943,5.943,0,0,1,3.353,1.822c.939,1.133,1.37,2.49,1.656,5.217a21.055,21.055,0,0,0,.886,4.227c.159.245.032.026-.832.2a15.128,15.128,0,0,0-2.163.737,30.462,30.462,0,0,1-3.474,1.35,5.486,5.486,0,0,1-4.79-.448,3.335,3.335,0,0,1-1.326-1.114,3.962,3.962,0,0,1-.75-2.5,3.024,3.024,0,0,1,.513-1.7,2.656,2.656,0,0,1,1.219-1.282,3.474,3.474,0,0,1,2.284-.454l.041-.337A3.706,3.706,0,0,1,87.471,164.331Zm-19.016,35a28.6,28.6,0,0,0,13.925-.988,8.157,8.157,0,0,0,.685,5.955c4.742,9.011,11.627,12.061,16.567,13.033a28.6,28.6,0,0,0,13.925-.988,8.157,8.157,0,0,0,.685,5.955c4.742,9.011,11.627,12.061,16.567,13.033a28.6,28.6,0,0,0,13.925-.988,8.162,8.162,0,0,0,.684,5.955c4.743,9.011,11.627,12.061,16.568,13.033a28.6,28.6,0,0,0,13.925-.988,8.146,8.146,0,0,0,.6,5.773,8.136,8.136,0,0,0-3.435,4.716,28.652,28.652,0,0,0-11.595-7.822c-4.765-1.622-12.251-2.414-20.853,3.024a8.147,8.147,0,0,0-3.552,4.8,28.652,28.652,0,0,0-11.595-7.822c-4.765-1.622-12.251-2.414-20.853,3.024a8.147,8.147,0,0,0-3.552,4.8,28.652,28.652,0,0,0-11.595-7.822c-4.765-1.622-12.251-2.414-20.853,3.024a8.147,8.147,0,0,0-3.552,4.8,28.652,28.652,0,0,0-11.6-7.822,22.645,22.645,0,0,0-15.372.3q1.322-10.2,3.454-20.129a10.917,10.917,0,0,0,5.243-1.869,56.539,56.539,0,0,0,5.516-4.042,27.624,27.624,0,0,1,3.485-2.334c1.448-.73,1.776-.4,1.378-.76a38.619,38.619,0,0,1-3.579-7.073c-1.8-4.7-3.212-6.9-5.415-8.463-.019-.013-.043-.025-.062-.038q3.166-9.819,7.1-19.275A22.661,22.661,0,0,0,68.455,199.33Zm55.98,88.483a3.706,3.706,0,0,1,.068-6.649,5.94,5.94,0,0,1,3.814-.1c1.379.511,2.431,1.471,4.043,3.69a21.1,21.1,0,0,0,2.88,3.217c.261.133.041.006-.618.594a15.042,15.042,0,0,0-1.5,1.72,30.566,30.566,0,0,1-2.334,2.906,5.488,5.488,0,0,1-4.372,2.007,3.343,3.343,0,0,1-1.706-.3,3.97,3.97,0,0,1-1.9-1.787,3.037,3.037,0,0,1-.406-1.731,2.648,2.648,0,0,1,.415-1.72,3.471,3.471,0,0,1,1.751-1.535l.352-.09Zm-36,0a3.706,3.706,0,0,1,.068-6.649,5.94,5.94,0,0,1,3.814-.1c1.379.511,2.431,1.471,4.043,3.69a21.1,21.1,0,0,0,2.88,3.217c.261.133.041.006-.618.594a15.042,15.042,0,0,0-1.5,1.72,30.566,30.566,0,0,1-2.334,2.906,5.488,5.488,0,0,1-4.372,2.007,3.343,3.343,0,0,1-1.706-.3,3.97,3.97,0,0,1-1.9-1.787,3.037,3.037,0,0,1-.406-1.731,2.648,2.648,0,0,1,.415-1.72,3.471,3.471,0,0,1,1.751-1.535l.352-.09Zm-36,0a3.706,3.706,0,0,1,.068-6.649,5.94,5.94,0,0,1,3.814-.1c1.379.511,2.431,1.471,4.043,3.69a21.1,21.1,0,0,0,2.88,3.217c.261.133.041.006-.618.594a15.042,15.042,0,0,0-1.5,1.72,30.566,30.566,0,0,1-2.334,2.906,5.488,5.488,0,0,1-4.372,2.007,3.343,3.343,0,0,1-1.706-.3,3.97,3.97,0,0,1-1.9-1.787,3.037,3.037,0,0,1-.406-1.731,2.648,2.648,0,0,1,.415-1.72,3.471,3.471,0,0,1,1.751-1.535Zm-4.278,77.674a10.911,10.911,0,0,0,3.618-4.249,56.232,56.232,0,0,0,2.756-6.259,27.657,27.657,0,0,1,1.852-3.764c.889-1.356,1.337-1.235.813-1.347a38.6,38.6,0,0,1-6.636-4.336c-3.912-3.167-6.231-4.37-8.921-4.622h-.057q-2.133-9.976-3.476-20.23a22.657,22.657,0,0,0,15.427.3A28.613,28.613,0,0,0,65.1,313.164a8.16,8.16,0,0,0,3.57,4.815c8.613,5.433,16.1,4.631,20.864,3a28.613,28.613,0,0,0,11.566-7.818,8.16,8.16,0,0,0,3.57,4.815c8.613,5.433,16.1,4.631,20.864,3a28.613,28.613,0,0,0,11.566-7.818,8.16,8.16,0,0,0,3.57,4.815c8.613,5.433,16.1,4.631,20.864,3a28.613,28.613,0,0,0,11.566-7.818,8.147,8.147,0,0,0,3.405,4.7,8.14,8.14,0,0,0-.617,5.8,28.632,28.632,0,0,0-13.952-.977c-4.938.977-11.816,4.034-16.547,13.045a8.151,8.151,0,0,0-.678,5.932,28.632,28.632,0,0,0-13.952-.977c-4.937.977-11.816,4.034-16.547,13.045a8.151,8.151,0,0,0-.678,5.932,28.632,28.632,0,0,0-13.952-.977c-4.937.977-11.816,4.034-16.547,13.045a8.146,8.146,0,0,0-.677,5.932,28.636,28.636,0,0,0-13.953-.977,22.652,22.652,0,0,0-13.184,7.974Q51.313,375.261,48.157,365.487Zm98.1,4.134a3.706,3.706,0,0,1-3.266-5.792,5.944,5.944,0,0,1,3.254-1.993c1.45-.247,2.841.059,5.346,1.175a21.07,21.07,0,0,0,4.1,1.346c.292-.016.038-.015-.238.823a15,15,0,0,0-.444,2.242,30.8,30.8,0,0,1-.567,3.683,5.489,5.489,0,0,1-2.784,3.925,3.35,3.35,0,0,1-1.627.591,3.971,3.971,0,0,1-2.538-.6,3.043,3.043,0,0,1-1.218-1.3,2.66,2.66,0,0,1-.5-1.7,3.469,3.469,0,0,1,.749-2.2l.26-.254Zm-31.177,18a3.706,3.706,0,0,1-3.266-5.792,5.947,5.947,0,0,1,3.254-1.993c1.45-.247,2.841.059,5.346,1.175a21.07,21.07,0,0,0,4.1,1.346c.292-.016.038-.015-.238.823a15,15,0,0,0-.444,2.242,30.8,30.8,0,0,1-.567,3.683,5.491,5.491,0,0,1-2.783,3.925,3.356,3.356,0,0,1-1.628.591,3.974,3.974,0,0,1-2.538-.6,3.043,3.043,0,0,1-1.218-1.3,2.66,2.66,0,0,1-.5-1.7,3.475,3.475,0,0,1,.749-2.2l.26-.254Zm-31.177,18a3.706,3.706,0,0,1-3.265-5.792,5.941,5.941,0,0,1,3.253-1.993c1.451-.247,2.841.059,5.347,1.175a21.047,21.047,0,0,0,4.1,1.346c.292-.016.038-.015-.238.823a15.014,15.014,0,0,0-.443,2.242,30.938,30.938,0,0,1-.568,3.683,5.491,5.491,0,0,1-2.783,3.925,3.353,3.353,0,0,1-1.628.591,3.974,3.974,0,0,1-2.538-.6,3.036,3.036,0,0,1-1.217-1.3,2.656,2.656,0,0,1-.5-1.7,3.475,3.475,0,0,1,.749-2.2Zm104.154,55.114a3.705,3.705,0,0,1-5.723-3.383A5.936,5.936,0,0,1,184.153,454c1.133-.939,2.49-1.369,5.217-1.656a21.055,21.055,0,0,0,4.227-.886c.245-.159.026-.032.2.832a15.087,15.087,0,0,0,.737,2.163,30.462,30.462,0,0,1,1.35,3.474,5.486,5.486,0,0,1-.448,4.79,3.346,3.346,0,0,1-1.114,1.327,3.967,3.967,0,0,1-2.5.749,3.024,3.024,0,0,1-1.7-.513,2.656,2.656,0,0,1-1.282-1.219,3.474,3.474,0,0,1-.454-2.284l.1-.35Zm-18,31.177a3.705,3.705,0,0,1-5.723-3.383,5.936,5.936,0,0,1,1.821-3.353c1.133-.939,2.49-1.37,5.217-1.656a21.055,21.055,0,0,0,4.227-.886c.245-.159.026-.032.2.832a15.128,15.128,0,0,0,.737,2.163,30.462,30.462,0,0,1,1.35,3.474,5.486,5.486,0,0,1-.448,4.79,3.335,3.335,0,0,1-1.114,1.326,3.962,3.962,0,0,1-2.5.75,3.024,3.024,0,0,1-1.7-.513,2.656,2.656,0,0,1-1.282-1.219,3.475,3.475,0,0,1-.454-2.284Zm213.125-40.19a15,15,0,0,0,2.242.444,30.8,30.8,0,0,1,3.683.567,5.491,5.491,0,0,1,3.925,2.783,3.353,3.353,0,0,1,.591,1.628,3.968,3.968,0,0,1-.6,2.538,3.036,3.036,0,0,1-1.3,1.217,2.656,2.656,0,0,1-1.7.5,3.475,3.475,0,0,1-2.2-.749l-.254-.26.051.531a3.706,3.706,0,0,1-5.792,3.265,5.941,5.941,0,0,1-1.993-3.253c-.247-1.45.059-2.841,1.175-5.346a21.07,21.07,0,0,0,1.346-4.1C382.341,451.192,382.342,451.446,383.18,451.722Zm18,31.177a15.014,15.014,0,0,0,2.242.443,30.938,30.938,0,0,1,3.683.568,5.491,5.491,0,0,1,3.925,2.783,3.353,3.353,0,0,1,.591,1.628,3.968,3.968,0,0,1-.6,2.538,3.036,3.036,0,0,1-1.3,1.217,2.656,2.656,0,0,1-1.7.5,3.475,3.475,0,0,1-2.2-.749l-.2.271a3.706,3.706,0,0,1-5.792,3.265,5.941,5.941,0,0,1-1.993-3.253c-.247-1.451.059-2.841,1.175-5.347a21.069,21.069,0,0,0,1.346-4.1C400.341,482.369,400.342,482.623,401.18,482.9Zm28.378-112.954a3.705,3.705,0,0,1-3.383,5.723,5.933,5.933,0,0,1-3.352-1.821c-.94-1.133-1.37-2.49-1.656-5.217a21.03,21.03,0,0,0-.887-4.227c-.159-.245-.032-.026.833-.205a15.17,15.17,0,0,0,2.163-.737,30.473,30.473,0,0,1,3.473-1.35,5.488,5.488,0,0,1,4.791.448,3.341,3.341,0,0,1,1.326,1.114,3.969,3.969,0,0,1,.75,2.5,3.034,3.034,0,0,1-.514,1.7,2.652,2.652,0,0,1-1.219,1.282,3.474,3.474,0,0,1-2.284.454l-.35-.1Zm31.177,18a3.705,3.705,0,0,1-3.383,5.723A5.93,5.93,0,0,1,454,391.847c-.94-1.133-1.37-2.49-1.657-5.217a21.055,21.055,0,0,0-.886-4.227c-.159-.245-.032-.026.832-.205a15.087,15.087,0,0,0,2.163-.737,30.462,30.462,0,0,1,3.474-1.35,5.486,5.486,0,0,1,4.79.448,3.338,3.338,0,0,1,1.327,1.114,3.975,3.975,0,0,1,.75,2.5,3.034,3.034,0,0,1-.514,1.7,2.652,2.652,0,0,1-1.219,1.282,3.474,3.474,0,0,1-2.284.454l-.35-.1Zm27.794,23.723a5.936,5.936,0,0,1-3.353-1.821c-.939-1.133-1.37-2.49-1.656-5.217a21.055,21.055,0,0,0-.886-4.227c-.159-.245-.032-.026.832-.205a15.128,15.128,0,0,0,2.163-.737,30.462,30.462,0,0,1,3.474-1.35,5.486,5.486,0,0,1,4.79.448,3.327,3.327,0,0,1,1.326,1.114,3.962,3.962,0,0,1,.75,2.5,3.024,3.024,0,0,1-.513,1.7,2.656,2.656,0,0,1-1.219,1.282,3.474,3.474,0,0,1-2.284.454l-.041.337A3.705,3.705,0,0,1,488.529,411.668Zm19.016-35a28.6,28.6,0,0,0-13.925.988,8.157,8.157,0,0,0-.685-5.955c-4.742-9.011-11.627-12.061-16.567-13.033a28.6,28.6,0,0,0-13.925.988,8.157,8.157,0,0,0-.685-5.955c-4.742-9.011-11.627-12.061-16.567-13.033a28.6,28.6,0,0,0-13.925.988,8.162,8.162,0,0,0-.684-5.955c-4.743-9.011-11.627-12.061-16.568-13.033a28.6,28.6,0,0,0-13.925.988,8.146,8.146,0,0,0-.6-5.773,8.136,8.136,0,0,0,3.435-4.716,28.652,28.652,0,0,0,11.595,7.822c4.765,1.622,12.251,2.414,20.853-3.024a8.147,8.147,0,0,0,3.552-4.8,28.652,28.652,0,0,0,11.595,7.822c4.765,1.622,12.251,2.414,20.853-3.024a8.147,8.147,0,0,0,3.552-4.8,28.652,28.652,0,0,0,11.595,7.822c4.765,1.622,12.251,2.414,20.853-3.024a8.147,8.147,0,0,0,3.552-4.8,28.652,28.652,0,0,0,11.595,7.822,22.645,22.645,0,0,0,15.372-.3q-1.322,10.2-3.454,20.129a10.917,10.917,0,0,0-5.243,1.869,56.539,56.539,0,0,0-5.516,4.042,27.624,27.624,0,0,1-3.485,2.334c-1.448.73-1.776.4-1.378.76A38.619,38.619,0,0,1,522.4,356.9c1.8,4.7,3.212,6.9,5.415,8.463.019.013.043.025.062.038q-3.166,9.819-7.1,19.275A22.661,22.661,0,0,0,507.545,376.67Z" transform="translate(0.5 0.5)"/><rect class="cls-2" x="0.5" y="0.5" width="576" height="576"/></svg>