<svg id="peace_0" data-name="peace 0" xmlns="http://www.w3.org/2000/svg" width="8.014in" height="8.014in" viewBox="0 0 577 577"><defs><style>.cls-1,.cls-2{fill:none;stroke-miterlimit:10;}.cls-1{stroke:blue;}.cls-2{stroke:red;}</style></defs><title>worm-v2-layer-0</title><path class="cls-1" d="M494.393,432.6c-1.523-2.939-4.106-8.89-2.06-12.217a16.725,16.725,0,0,0,1.7-3.772,15.016,15.016,0,0,0,.591-2.6l1.058.271c.331.092.657.2.981.315a14.4,14.4,0,0,1,6.44,4.589c.018.022.034.047.052.069Q498.981,426.079,494.393,432.6Zm-7.829-57.546c-8.808-16.736-27.049-7.386-31.467-3.68a9.522,9.522,0,0,1-7.489,1.8,14.422,14.422,0,0,1-7.96-3.968l-.02-.019-1.4-1.375a14.969,14.969,0,0,0,1.793-1.687,16.737,16.737,0,0,0,2.423-3.373c1.964-3.641,9.081-4.263,12.16-4.359a.866.866,0,0,0,.782-1.339c-8.808-16.736-27.049-7.386-31.467-3.68a9.522,9.522,0,0,1-7.489,1.8,14.422,14.422,0,0,1-7.96-3.968l-.02-.019-1.4-1.375a14.969,14.969,0,0,0,1.793-1.687,16.7,16.7,0,0,0,2.423-3.373c1.964-3.641,9.081-4.263,12.16-4.359a.865.865,0,0,0,.782-1.339c-8.808-16.736-27.049-7.386-31.467-3.68a9.521,9.521,0,0,1-7.489,1.8,14.425,14.425,0,0,1-7.96-3.968l-.02-.019-1.4-1.375a14.969,14.969,0,0,0,1.793-1.687,16.7,16.7,0,0,0,2.423-3.373c1.964-3.641,9.081-4.263,12.16-4.359a.865.865,0,0,0,.782-1.339,19.486,19.486,0,0,0-4.977-6.244,19.461,19.461,0,0,0,7.469-2.931.866.866,0,0,0-.01-1.551c-2.62-1.62-8.479-5.712-8.366-9.848a16.74,16.74,0,0,0-.423-4.145,14.934,14.934,0,0,0-.781-2.516l1.053-.294c.318-.083.642-.149.966-.209a14.409,14.409,0,0,1,7.912.745c2.738,1.1,5.706,3.018,6.539,5.3,1.982,5.416,13.129,22.625,29.11,12.521a.866.866,0,0,0-.01-1.551c-2.62-1.62-8.479-5.712-8.366-9.848a16.74,16.74,0,0,0-.423-4.145,14.934,14.934,0,0,0-.781-2.516l1.053-.294c.318-.083.642-.149.966-.209a14.409,14.409,0,0,1,7.912.745c2.738,1.1,5.706,3.018,6.539,5.3,1.982,5.416,13.129,22.625,29.11,12.521a.866.866,0,0,0-.01-1.551c-2.62-1.62-8.479-5.712-8.366-9.848a16.74,16.74,0,0,0-.423-4.145,14.934,14.934,0,0,0-.781-2.516l1.053-.294c.318-.083.642-.149.966-.209a14.409,14.409,0,0,1,7.912.745c2.738,1.1,5.706,3.018,6.539,5.3,1.982,5.416,13.129,22.625,29.11,12.521a.866.866,0,0,0-.01-1.551c-2.62-1.62-8.479-5.712-8.366-9.848a16.74,16.74,0,0,0-.423-4.145,14.934,14.934,0,0,0-.781-2.516l1.053-.294c.318-.083.642-.149.966-.209a14.409,14.409,0,0,1,7.912.745c2.738,1.1,5.706,3.018,6.539,5.3,1.953,5.337,12.809,22.1,28.415,12.927a250.369,250.369,0,0,1-21.437,80.161c-8.929-15.873-26.757-6.731-31.119-3.072a9.522,9.522,0,0,1-7.489,1.8,14.422,14.422,0,0,1-7.96-3.968l-.02-.019-1.4-1.375a15.045,15.045,0,0,0,1.793-1.687,16.776,16.776,0,0,0,2.423-3.373c1.964-3.641,9.081-4.263,12.159-4.359a.866.866,0,0,0,.783-1.339Zm-25.829,12.889a3.705,3.705,0,0,1-3.383,5.723A5.93,5.93,0,0,1,454,391.847c-.94-1.133-1.37-2.49-1.657-5.217a21.055,21.055,0,0,0-.886-4.227c-.159-.245-.032-.026.832-.205a15.087,15.087,0,0,0,2.163-.737,30.462,30.462,0,0,1,3.474-1.35,5.486,5.486,0,0,1,4.79.448,3.338,3.338,0,0,1,1.327,1.114,3.975,3.975,0,0,1,.75,2.5,3.034,3.034,0,0,1-.514,1.7,2.652,2.652,0,0,1-1.219,1.282,3.474,3.474,0,0,1-2.284.454l-.35-.1Zm-31.177-18a3.705,3.705,0,0,1-3.383,5.723,5.933,5.933,0,0,1-3.352-1.821c-.94-1.133-1.37-2.49-1.656-5.217a21.03,21.03,0,0,0-.887-4.227c-.159-.245-.032-.026.833-.205a15.17,15.17,0,0,0,2.163-.737,30.473,30.473,0,0,1,3.473-1.35,5.488,5.488,0,0,1,4.791.448,3.341,3.341,0,0,1,1.326,1.114,3.969,3.969,0,0,1,.75,2.5,3.034,3.034,0,0,1-.514,1.7,2.652,2.652,0,0,1-1.219,1.282,3.474,3.474,0,0,1-2.284.454l-.35-.1Zm-31.177-18A3.705,3.705,0,0,1,395,357.668a5.936,5.936,0,0,1-3.352-1.821c-.939-1.133-1.37-2.49-1.656-5.217a21.03,21.03,0,0,0-.887-4.227c-.159-.245-.032-.026.833-.205a15.17,15.17,0,0,0,2.163-.737,30.473,30.473,0,0,1,3.473-1.35,5.488,5.488,0,0,1,4.791.448,3.341,3.341,0,0,1,1.326,1.114,3.969,3.969,0,0,1,.75,2.5,3.034,3.034,0,0,1-.514,1.7,2.647,2.647,0,0,1-1.219,1.282,3.474,3.474,0,0,1-2.284.454l-.35-.1Zm-31.176-18a3.706,3.706,0,0,1-3.384,5.723,5.936,5.936,0,0,1-3.352-1.821c-.939-1.133-1.37-2.49-1.656-5.217a21.129,21.129,0,0,0-.886-4.227c-.16-.245-.033-.026.832-.205a15.17,15.17,0,0,0,2.163-.737,30.473,30.473,0,0,1,3.473-1.35,5.488,5.488,0,0,1,4.791.448,3.341,3.341,0,0,1,1.326,1.114,3.969,3.969,0,0,1,.75,2.5,3.034,3.034,0,0,1-.514,1.7,2.647,2.647,0,0,1-1.219,1.282,3.474,3.474,0,0,1-2.284.454l-.35-.1ZM347.18,389.368a15,15,0,0,0,2.242.444,30.507,30.507,0,0,1,3.683.568,5.488,5.488,0,0,1,3.925,2.783,3.35,3.35,0,0,1,.591,1.627,3.965,3.965,0,0,1-.6,2.538,3.043,3.043,0,0,1-1.3,1.218,2.66,2.66,0,0,1-1.7.5,3.469,3.469,0,0,1-2.2-.749l-.254-.26.051.531a3.706,3.706,0,0,1-5.792,3.266,5.944,5.944,0,0,1-1.993-3.254c-.247-1.45.059-2.841,1.175-5.346a21.07,21.07,0,0,0,1.346-4.1C346.341,388.838,346.342,389.092,347.18,389.368Zm-2.415,21.916a16.719,16.719,0,0,0,3.378-2.44,14.868,14.868,0,0,0,1.788-1.934l.781.765c.231.235.45.481.665.732a14.407,14.407,0,0,1,3.31,7.225c.414,2.922.239,6.45-1.317,8.311-3.7,4.425-13.029,22.683,3.711,31.471a.867.867,0,0,0,1.338-.785c.093-3.079.707-10.2,4.346-12.168a16.719,16.719,0,0,0,3.378-2.44,14.868,14.868,0,0,0,1.788-1.934l.781.765c.231.234.45.481.665.732a14.407,14.407,0,0,1,3.31,7.225c.414,2.922.239,6.45-1.317,8.311-3.7,4.425-13.029,22.683,3.711,31.471a.867.867,0,0,0,1.338-.785c.093-3.079.707-10.2,4.346-12.168a16.719,16.719,0,0,0,3.378-2.44,14.868,14.868,0,0,0,1.788-1.934l.781.765c.231.234.45.481.665.732a14.407,14.407,0,0,1,3.31,7.225c.414,2.922.239,6.45-1.317,8.311-3.65,4.365-12.76,22.185,3.065,31.1a250.376,250.376,0,0,1-80.162,21.432c9.212-15.64-7.587-26.487-12.93-28.433a9.52,9.52,0,0,1-5.3-5.586,14.424,14.424,0,0,1-.543-8.877l.006-.027.492-1.9a14.918,14.918,0,0,0,2.357.71,16.773,16.773,0,0,0,4.132.412c4.136-.12,8.233,5.732,9.856,8.35a.865.865,0,0,0,1.55.008c10.09-16-7.128-27.117-12.546-29.091a9.52,9.52,0,0,1-5.3-5.586,14.424,14.424,0,0,1-.543-8.877l.006-.027.492-1.9a14.918,14.918,0,0,0,2.357.71,16.773,16.773,0,0,0,4.132.412c4.136-.12,8.233,5.732,9.856,8.35a.865.865,0,0,0,1.55.008c10.09-16-7.128-27.117-12.546-29.091a9.52,9.52,0,0,1-5.3-5.586,14.424,14.424,0,0,1-.543-8.877l.006-.027.492-1.9a14.918,14.918,0,0,0,2.357.71,16.773,16.773,0,0,0,4.132.412c4.136-.12,8.233,5.732,9.856,8.35a.865.865,0,0,0,1.55.008c10.09-16-7.128-27.117-12.546-29.091a9.52,9.52,0,0,1-5.3-5.586,14.424,14.424,0,0,1-.543-8.877l.006-.027.492-1.9a14.918,14.918,0,0,0,2.357.71,16.773,16.773,0,0,0,4.132.412c4.136-.12,8.233,5.732,9.856,8.35a.865.865,0,0,0,1.55.008,19.459,19.459,0,0,0,2.919-7.432,19.435,19.435,0,0,0,6.273,5,.866.866,0,0,0,1.338-.784c.093-3.08.707-10.2,4.346-12.169a16.719,16.719,0,0,0,3.378-2.44,14.868,14.868,0,0,0,1.788-1.934l.781.765c.231.235.45.481.665.732a14.407,14.407,0,0,1,3.31,7.225c.414,2.922.239,6.45-1.317,8.312-3.7,4.424-13.029,22.682,3.711,31.47a.866.866,0,0,0,1.338-.785C340.512,420.373,341.126,413.253,344.765,411.284Zm20.415,9.261a15,15,0,0,0,2.242.444,30.8,30.8,0,0,1,3.683.567,5.489,5.489,0,0,1,3.925,2.784,3.35,3.35,0,0,1,.591,1.627,3.965,3.965,0,0,1-.6,2.538,3.043,3.043,0,0,1-1.3,1.218,2.66,2.66,0,0,1-1.7.5,3.469,3.469,0,0,1-2.2-.749l-.254-.26.051.531a3.706,3.706,0,0,1-5.792,3.266,5.944,5.944,0,0,1-1.993-3.254c-.247-1.45.059-2.841,1.175-5.346a21.07,21.07,0,0,0,1.346-4.1C364.341,420.015,364.342,420.269,365.18,420.545Zm18,31.177a15,15,0,0,0,2.242.444,30.8,30.8,0,0,1,3.683.567,5.491,5.491,0,0,1,3.925,2.783,3.353,3.353,0,0,1,.591,1.628,3.968,3.968,0,0,1-.6,2.538,3.036,3.036,0,0,1-1.3,1.217,2.656,2.656,0,0,1-1.7.5,3.475,3.475,0,0,1-2.2-.749l-.254-.26.051.531a3.706,3.706,0,0,1-5.792,3.265,5.941,5.941,0,0,1-1.993-3.253c-.247-1.45.059-2.841,1.175-5.346a21.07,21.07,0,0,0,1.346-4.1C382.341,451.192,382.342,451.446,383.18,451.722Zm18,31.177a15.014,15.014,0,0,0,2.242.443,30.938,30.938,0,0,1,3.683.568,5.491,5.491,0,0,1,3.925,2.783,3.353,3.353,0,0,1,.591,1.628,3.968,3.968,0,0,1-.6,2.538,3.036,3.036,0,0,1-1.3,1.217,2.656,2.656,0,0,1-1.7.5,3.475,3.475,0,0,1-2.2-.749l-.2.271a3.706,3.706,0,0,1-5.792,3.265,5.941,5.941,0,0,1-1.993-3.253c-.247-1.451.059-2.841,1.175-5.347a21.069,21.069,0,0,0,1.346-4.1C400.341,482.369,400.342,482.623,401.18,482.9Zm13.549,13.613,0-.006-.532-1.917,2.428-.574a16.746,16.746,0,0,0,3.753-1.7c3.338-2.059,9.321.544,12.249,2.061q-6.684,4.692-13.671,8.964A14.5,14.5,0,0,1,414.729,496.512Zm-15.964,8.3a16.744,16.744,0,0,0,3.355-2.418,14.959,14.959,0,0,0,1.811-1.956l.781.765c.241.244.469.5.692.762a14.4,14.4,0,0,1,3.283,7.194c0,.033.007.067.011.1q-7,3.823-14.259,7.2C394.585,513.169,395.316,506.681,398.765,504.815ZM143.4,494.393c2.939-1.523,8.89-4.106,12.217-2.06a16.725,16.725,0,0,0,3.772,1.7,15.016,15.016,0,0,0,2.6.591l-.272,1.058c-.091.331-.2.657-.314.981a14.4,14.4,0,0,1-4.589,6.44c-.022.018-.047.034-.069.051Q149.921,498.982,143.4,494.393Zm32.4-10.927a15.128,15.128,0,0,0,.737,2.163,30.462,30.462,0,0,1,1.35,3.474,5.486,5.486,0,0,1-.448,4.79,3.335,3.335,0,0,1-1.114,1.326,3.962,3.962,0,0,1-2.5.75,3.024,3.024,0,0,1-1.7-.513,2.656,2.656,0,0,1-1.282-1.219,3.475,3.475,0,0,1-.454-2.284l-.337-.041a3.705,3.705,0,0,1-5.723-3.383,5.936,5.936,0,0,1,1.821-3.353c1.133-.939,2.49-1.37,5.217-1.656a21.055,21.055,0,0,0,4.227-.886C175.842,482.475,175.623,482.6,175.8,483.466Zm-8.816,25.618a14.5,14.5,0,0,1,3.8-7.078l0,0,1.394-1.418L173.9,502.4a16.758,16.758,0,0,0,3.349,2.4c3.465,1.869,4.194,8.395,4.34,11.676Q174.154,513.007,166.986,509.084Zm26.816-56.8a15.087,15.087,0,0,0,.737,2.163,30.462,30.462,0,0,1,1.35,3.474,5.486,5.486,0,0,1-.448,4.79,3.346,3.346,0,0,1-1.114,1.327,3.967,3.967,0,0,1-2.5.749,3.024,3.024,0,0,1-1.7-.513,2.656,2.656,0,0,1-1.282-1.219,3.474,3.474,0,0,1-.454-2.284l.1-.35-.435.309a3.705,3.705,0,0,1-5.723-3.383A5.936,5.936,0,0,1,184.153,454c1.133-.939,2.49-1.369,5.217-1.656a21.055,21.055,0,0,0,4.227-.886C193.842,451.3,193.623,451.425,193.8,452.289Zm-7.178,33.985a9.524,9.524,0,0,1-1.8-7.49,14.429,14.429,0,0,1,3.968-7.96l.019-.019,1.375-1.4a15.045,15.045,0,0,0,1.687,1.793,16.776,16.776,0,0,0,3.373,2.423c3.641,1.964,4.263,9.081,4.359,12.159a.866.866,0,0,0,1.339.783c16.736-8.808,7.386-27.049,3.68-31.467a9.522,9.522,0,0,1-1.8-7.489,14.422,14.422,0,0,1,3.968-7.96l.019-.02,1.375-1.4a14.969,14.969,0,0,0,1.687,1.793,16.776,16.776,0,0,0,3.373,2.423c3.641,1.964,4.263,9.081,4.359,12.16a.866.866,0,0,0,1.339.782c16.736-8.808,7.386-27.049,3.68-31.467a9.522,9.522,0,0,1-1.8-7.489,14.422,14.422,0,0,1,3.968-7.96l.019-.02,1.375-1.4a14.969,14.969,0,0,0,1.687,1.793,16.7,16.7,0,0,0,3.373,2.423c3.641,1.964,4.263,9.081,4.359,12.16a.866.866,0,0,0,1.339.782c16.736-8.808,7.386-27.049,3.68-31.467a9.521,9.521,0,0,1-1.8-7.489,14.425,14.425,0,0,1,3.968-7.96l.019-.02,1.375-1.4a14.969,14.969,0,0,0,1.687,1.793,16.7,16.7,0,0,0,3.373,2.423c3.641,1.964,4.263,9.081,4.359,12.16a.865.865,0,0,0,1.339.782,19.486,19.486,0,0,0,6.244-4.977,19.461,19.461,0,0,0,2.931,7.469.866.866,0,0,0,1.551-.01c1.62-2.62,5.712-8.479,9.848-8.366a16.74,16.74,0,0,0,4.145-.423,14.934,14.934,0,0,0,2.516-.781l.294,1.053c.083.318.149.642.209.966a14.409,14.409,0,0,1-.745,7.912c-1.1,2.738-3.018,5.706-5.3,6.539-5.416,1.982-22.625,13.129-12.521,29.11a.866.866,0,0,0,1.551-.01c1.62-2.62,5.712-8.479,9.848-8.366a16.74,16.74,0,0,0,4.145-.423,14.934,14.934,0,0,0,2.516-.781l.294,1.053c.083.318.149.642.209.966a14.409,14.409,0,0,1-.745,7.912c-1.1,2.738-3.018,5.706-5.3,6.539-5.416,1.982-22.625,13.129-12.521,29.11a.866.866,0,0,0,1.551-.01c1.62-2.62,5.712-8.479,9.848-8.366a16.74,16.74,0,0,0,4.145-.423,14.934,14.934,0,0,0,2.516-.781l.294,1.053c.083.318.149.642.209.966a14.409,14.409,0,0,1-.745,7.912c-1.1,2.738-3.018,5.706-5.3,6.539-5.416,1.982-22.625,13.129-12.521,29.11a.866.866,0,0,0,1.551-.01c1.62-2.62,5.712-8.479,9.848-8.366a16.74,16.74,0,0,0,4.145-.423,14.934,14.934,0,0,0,2.516-.781l.294,1.053c.083.318.149.642.209.966a14.409,14.409,0,0,1-.745,7.912c-1.1,2.738-3.018,5.706-5.3,6.539-5.337,1.953-22.1,12.809-12.927,28.415a250.369,250.369,0,0,1-80.161-21.437C199.425,508.464,190.283,490.636,186.624,486.274ZM211.8,421.113a15.17,15.17,0,0,0,.737,2.163,30.4,30.4,0,0,1,1.35,3.473,5.488,5.488,0,0,1-.448,4.791,3.349,3.349,0,0,1-1.114,1.326,3.969,3.969,0,0,1-2.5.75,3.034,3.034,0,0,1-1.7-.514,2.652,2.652,0,0,1-1.282-1.219,3.474,3.474,0,0,1-.454-2.284l.1-.35-.435.309a3.705,3.705,0,0,1-5.723-3.383,5.933,5.933,0,0,1,1.821-3.352c1.133-.94,2.49-1.37,5.217-1.656a21.03,21.03,0,0,0,4.227-.887C211.842,420.121,211.623,420.248,211.8,421.113Zm18-31.177a15.17,15.17,0,0,0,.737,2.163,30.473,30.473,0,0,1,1.35,3.473,5.488,5.488,0,0,1-.448,4.791,3.349,3.349,0,0,1-1.114,1.326,3.969,3.969,0,0,1-2.5.75,3.034,3.034,0,0,1-1.7-.514,2.647,2.647,0,0,1-1.282-1.219,3.474,3.474,0,0,1-.454-2.284l.1-.35-.435.309A3.705,3.705,0,0,1,218.332,395a5.936,5.936,0,0,1,1.821-3.352c1.133-.939,2.49-1.37,5.217-1.656a21.03,21.03,0,0,0,4.227-.887C229.842,388.944,229.623,389.071,229.8,389.936Zm-21.193-56.315a3.706,3.706,0,0,1-3.266-5.792,5.944,5.944,0,0,1,3.254-1.993c1.45-.247,2.841.059,5.346,1.175a21.09,21.09,0,0,0,4.1,1.346c.293-.016.039-.015-.238.823a15.142,15.142,0,0,0-.443,2.242,30.507,30.507,0,0,1-.568,3.683,5.488,5.488,0,0,1-2.783,3.925,3.35,3.35,0,0,1-1.628.591,3.969,3.969,0,0,1-2.537-.6,3.043,3.043,0,0,1-1.218-1.3,2.654,2.654,0,0,1-.5-1.7,3.469,3.469,0,0,1,.749-2.2l.26-.254Zm-31.177,18a3.706,3.706,0,0,1-3.266-5.792,5.944,5.944,0,0,1,3.254-1.993c1.45-.247,2.841.059,5.346,1.175a21.07,21.07,0,0,0,4.1,1.346c.292-.016.038-.015-.238.823a15,15,0,0,0-.444,2.242,30.507,30.507,0,0,1-.568,3.683,5.488,5.488,0,0,1-2.783,3.925,3.35,3.35,0,0,1-1.628.591,3.969,3.969,0,0,1-2.537-.6,3.043,3.043,0,0,1-1.218-1.3,2.66,2.66,0,0,1-.5-1.7,3.469,3.469,0,0,1,.749-2.2l.26-.254Zm5.8-16.251c-4.424-3.7-22.682-13.029-31.47,3.711a.866.866,0,0,0,.785,1.338c3.079.093,10.2.707,12.168,4.346a16.719,16.719,0,0,0,2.44,3.378,14.868,14.868,0,0,0,1.934,1.788l-.765.781c-.235.231-.481.45-.732.665a14.407,14.407,0,0,1-7.225,3.31c-2.922.414-6.45.239-8.311-1.317-4.425-3.7-22.683-13.029-31.471,3.711a.867.867,0,0,0,.785,1.338c3.079.093,10.2.707,12.168,4.346a16.719,16.719,0,0,0,2.44,3.378,14.868,14.868,0,0,0,1.934,1.788l-.765.781c-.234.231-.481.45-.732.665a14.407,14.407,0,0,1-7.225,3.31c-2.922.414-6.45.239-8.311-1.317-4.425-3.7-22.683-13.029-31.471,3.711a.867.867,0,0,0,.785,1.338c3.079.093,10.2.707,12.168,4.346a16.719,16.719,0,0,0,2.44,3.378,14.868,14.868,0,0,0,1.934,1.788l-.765.781c-.234.231-.481.45-.732.665a14.407,14.407,0,0,1-7.225,3.31c-2.922.414-6.45.239-8.311-1.317-4.365-3.65-22.185-12.76-31.1,3.065a250.376,250.376,0,0,1-21.432-80.162c15.64,9.212,26.487-7.587,28.433-12.93a9.52,9.52,0,0,1,5.586-5.3,14.424,14.424,0,0,1,8.877-.543l.027.006,1.9.492a14.918,14.918,0,0,0-.71,2.357,16.773,16.773,0,0,0-.412,4.132c.12,4.136-5.732,8.233-8.35,9.856a.865.865,0,0,0-.008,1.55c16,10.09,27.117-7.128,29.091-12.546a9.52,9.52,0,0,1,5.586-5.3,14.424,14.424,0,0,1,8.877-.543l.027.006,1.9.492a14.918,14.918,0,0,0-.71,2.357,16.773,16.773,0,0,0-.412,4.132c.12,4.136-5.732,8.233-8.35,9.856a.865.865,0,0,0-.008,1.55c16,10.09,27.117-7.128,29.091-12.546a9.52,9.52,0,0,1,5.586-5.3,14.424,14.424,0,0,1,8.877-.543l.027.006,1.9.492a14.918,14.918,0,0,0-.71,2.357,16.773,16.773,0,0,0-.412,4.132c.12,4.136-5.732,8.233-8.35,9.856a.865.865,0,0,0-.008,1.55c16,10.09,27.117-7.128,29.091-12.546a9.52,9.52,0,0,1,5.586-5.3,14.424,14.424,0,0,1,8.877-.543l.027.006,1.9.492a14.918,14.918,0,0,0-.71,2.357,16.773,16.773,0,0,0-.412,4.132c.12,4.136-5.732,8.233-8.35,9.856a.865.865,0,0,0-.008,1.55,19.459,19.459,0,0,0,7.432,2.919,19.435,19.435,0,0,0-5,6.273.866.866,0,0,0,.784,1.338c3.08.093,10.2.707,12.169,4.346a16.719,16.719,0,0,0,2.44,3.378,14.868,14.868,0,0,0,1.934,1.788l-.765.781c-.235.231-.481.45-.732.665a14.407,14.407,0,0,1-7.225,3.31C188.623,337.1,185.1,336.926,183.233,335.37Zm-36.978,34.251a3.706,3.706,0,0,1-3.266-5.792,5.944,5.944,0,0,1,3.254-1.993c1.45-.247,2.841.059,5.346,1.175a21.07,21.07,0,0,0,4.1,1.346c.292-.016.038-.015-.238.823a15,15,0,0,0-.444,2.242,30.8,30.8,0,0,1-.567,3.683,5.489,5.489,0,0,1-2.784,3.925,3.35,3.35,0,0,1-1.627.591,3.971,3.971,0,0,1-2.538-.6,3.043,3.043,0,0,1-1.218-1.3,2.66,2.66,0,0,1-.5-1.7,3.469,3.469,0,0,1,.749-2.2l.26-.254Zm-31.177,18a3.706,3.706,0,0,1-3.266-5.792,5.947,5.947,0,0,1,3.254-1.993c1.45-.247,2.841.059,5.346,1.175a21.07,21.07,0,0,0,4.1,1.346c.292-.016.038-.015-.238.823a15,15,0,0,0-.444,2.242,30.8,30.8,0,0,1-.567,3.683,5.491,5.491,0,0,1-2.783,3.925,3.356,3.356,0,0,1-1.628.591,3.974,3.974,0,0,1-2.538-.6,3.043,3.043,0,0,1-1.218-1.3,2.66,2.66,0,0,1-.5-1.7,3.475,3.475,0,0,1,.749-2.2l.26-.254ZM72.659,418.954a14.5,14.5,0,0,1,6.829-4.225l.006,0,1.917-.532.574,2.427a16.733,16.733,0,0,0,1.7,3.754c2.058,3.338-.544,9.321-2.061,12.249Q76.931,425.941,72.659,418.954ZM81.607,143.4c1.523,2.939,4.106,8.89,2.06,12.217a16.725,16.725,0,0,0-1.7,3.772,15.016,15.016,0,0,0-.591,2.6l-1.058-.272c-.331-.091-.657-.2-.981-.314a14.4,14.4,0,0,1-6.44-4.589c-.018-.022-.034-.047-.052-.069Q77.019,149.921,81.607,143.4Zm7.829,57.546c8.808,16.736,27.049,7.386,31.467,3.68a9.522,9.522,0,0,1,7.489-1.8,14.422,14.422,0,0,1,7.96,3.968l.02.019,1.4,1.375a14.969,14.969,0,0,0-1.793,1.687,16.737,16.737,0,0,0-2.423,3.373c-1.964,3.641-9.081,4.263-12.16,4.359a.866.866,0,0,0-.782,1.339c8.808,16.736,27.049,7.386,31.467,3.68a9.522,9.522,0,0,1,7.489-1.8,14.422,14.422,0,0,1,7.96,3.968l.02.019,1.4,1.375a14.969,14.969,0,0,0-1.793,1.687,16.7,16.7,0,0,0-2.423,3.373c-1.964,3.641-9.081,4.263-12.16,4.359a.865.865,0,0,0-.782,1.339c8.808,16.736,27.049,7.386,31.467,3.68a9.521,9.521,0,0,1,7.489-1.8,14.425,14.425,0,0,1,7.96,3.968l.02.019,1.4,1.375a14.969,14.969,0,0,0-1.793,1.687,16.7,16.7,0,0,0-2.423,3.373c-1.964,3.641-9.081,4.263-12.16,4.359a.865.865,0,0,0-.782,1.339,19.486,19.486,0,0,0,4.977,6.244,19.461,19.461,0,0,0-7.469,2.931.866.866,0,0,0,.01,1.551c2.62,1.62,8.479,5.712,8.366,9.848a16.74,16.74,0,0,0,.423,4.145,14.934,14.934,0,0,0,.781,2.516l-1.053.294c-.318.083-.642.149-.966.209a14.409,14.409,0,0,1-7.912-.745c-2.738-1.1-5.706-3.018-6.539-5.3-1.982-5.416-13.129-22.625-29.11-12.521a.866.866,0,0,0,.01,1.551c2.62,1.62,8.479,5.712,8.366,9.848a16.74,16.74,0,0,0,.423,4.145,14.934,14.934,0,0,0,.781,2.516l-1.053.294c-.318.083-.642.149-.966.209a14.409,14.409,0,0,1-7.912-.745c-2.738-1.1-5.706-3.018-6.539-5.3-1.982-5.416-13.129-22.625-29.11-12.521a.866.866,0,0,0,.01,1.551c2.62,1.62,8.479,5.712,8.366,9.848a16.74,16.74,0,0,0,.423,4.145,14.934,14.934,0,0,0,.781,2.516l-1.053.294c-.318.083-.642.149-.966.209a14.409,14.409,0,0,1-7.912-.745c-2.738-1.1-5.706-3.018-6.539-5.3-1.982-5.416-13.129-22.625-29.11-12.521a.866.866,0,0,0,.01,1.551c2.62,1.62,8.479,5.712,8.366,9.848a16.74,16.74,0,0,0,.423,4.145,14.934,14.934,0,0,0,.781,2.516L81,282.473c-.318.083-.642.149-.966.209a14.409,14.409,0,0,1-7.912-.745c-2.738-1.1-5.706-3.018-6.539-5.3-1.953-5.337-12.809-22.1-28.415-12.927a250.369,250.369,0,0,1,21.437-80.161c8.929,15.873,26.757,6.731,31.119,3.072a9.522,9.522,0,0,1,7.489-1.8,14.422,14.422,0,0,1,7.96,3.968l.02.019,1.4,1.375a15.045,15.045,0,0,0-1.793,1.687,16.776,16.776,0,0,0-2.423,3.373c-1.964,3.641-9.081,4.263-12.159,4.359a.866.866,0,0,0-.783,1.339Zm25.829-12.889a3.706,3.706,0,0,1,3.383-5.724A5.938,5.938,0,0,1,122,184.153c.94,1.133,1.37,2.49,1.657,5.217a21.055,21.055,0,0,0,.886,4.227c.159.245.032.026-.832.2a15.087,15.087,0,0,0-2.163.737,30.462,30.462,0,0,1-3.474,1.35,5.486,5.486,0,0,1-4.79-.448,3.346,3.346,0,0,1-1.327-1.114,3.975,3.975,0,0,1-.75-2.5,3.034,3.034,0,0,1,.514-1.7,2.652,2.652,0,0,1,1.219-1.282,3.474,3.474,0,0,1,2.284-.454l.35.1Zm31.177,18a3.706,3.706,0,0,1,3.383-5.724,5.941,5.941,0,0,1,3.352,1.822c.94,1.133,1.37,2.49,1.656,5.217a21.03,21.03,0,0,0,.887,4.227c.159.245.032.026-.833.2a15.17,15.17,0,0,0-2.163.737,30.473,30.473,0,0,1-3.473,1.35,5.488,5.488,0,0,1-4.791-.448,3.349,3.349,0,0,1-1.326-1.114,3.969,3.969,0,0,1-.75-2.5,3.034,3.034,0,0,1,.514-1.7,2.652,2.652,0,0,1,1.219-1.282,3.474,3.474,0,0,1,2.284-.454l.35.1Zm31.177,18A3.706,3.706,0,0,1,181,218.331a5.944,5.944,0,0,1,3.352,1.822c.939,1.133,1.37,2.49,1.656,5.217a21.03,21.03,0,0,0,.887,4.227c.159.245.032.026-.833.2a15.17,15.17,0,0,0-2.163.737,30.473,30.473,0,0,1-3.473,1.35,5.488,5.488,0,0,1-4.791-.448,3.349,3.349,0,0,1-1.326-1.114,3.969,3.969,0,0,1-.75-2.5,3.034,3.034,0,0,1,.514-1.7,2.647,2.647,0,0,1,1.219-1.282,3.474,3.474,0,0,1,2.284-.454l.35.1Zm31.176,18a3.707,3.707,0,0,1,3.384-5.724,5.944,5.944,0,0,1,3.352,1.822c.939,1.133,1.37,2.49,1.656,5.217a21.129,21.129,0,0,0,.886,4.227c.16.245.033.026-.832.2a15.17,15.17,0,0,0-2.163.737,30.473,30.473,0,0,1-3.473,1.35,5.488,5.488,0,0,1-4.791-.448,3.349,3.349,0,0,1-1.326-1.114,3.969,3.969,0,0,1-.75-2.5,3.034,3.034,0,0,1,.514-1.7,2.647,2.647,0,0,1,1.219-1.282,3.474,3.474,0,0,1,2.284-.454l.35.1Zm20.025-55.424a15.142,15.142,0,0,0-2.242-.443,30.507,30.507,0,0,1-3.683-.568,5.488,5.488,0,0,1-3.925-2.783,3.35,3.35,0,0,1-.591-1.628,3.963,3.963,0,0,1,.6-2.537,3.043,3.043,0,0,1,1.3-1.218,2.66,2.66,0,0,1,1.7-.5,3.469,3.469,0,0,1,2.2.749l.254.26-.051-.531a3.706,3.706,0,0,1,5.792-3.266,5.944,5.944,0,0,1,1.993,3.254c.247,1.45-.059,2.841-1.175,5.346a21.07,21.07,0,0,0-1.346,4.1C229.659,187.162,229.658,186.908,228.82,186.631Zm2.415-21.915a16.719,16.719,0,0,0-3.378,2.44,14.868,14.868,0,0,0-1.788,1.934l-.781-.765c-.231-.235-.45-.481-.665-.732a14.407,14.407,0,0,1-3.31-7.225c-.414-2.922-.239-6.45,1.317-8.312,3.7-4.424,13.029-22.682-3.711-31.47a.867.867,0,0,0-1.338.785c-.093,3.079-.707,10.2-4.346,12.168a16.719,16.719,0,0,0-3.378,2.44,14.868,14.868,0,0,0-1.788,1.934l-.781-.765c-.231-.234-.45-.481-.665-.732a14.407,14.407,0,0,1-3.31-7.225c-.414-2.922-.239-6.45,1.317-8.311,3.7-4.425,13.029-22.683-3.711-31.471a.867.867,0,0,0-1.338.785c-.093,3.079-.707,10.2-4.346,12.168a16.719,16.719,0,0,0-3.378,2.44,14.868,14.868,0,0,0-1.788,1.934l-.781-.765c-.231-.234-.45-.481-.665-.732a14.407,14.407,0,0,1-3.31-7.225c-.414-2.922-.239-6.45,1.317-8.311,3.65-4.365,12.76-22.185-3.065-31.1a250.376,250.376,0,0,1,80.162-21.432c-9.212,15.64,7.587,26.487,12.93,28.433a9.52,9.52,0,0,1,5.3,5.586,14.424,14.424,0,0,1,.543,8.877l-.006.027-.492,1.9a14.918,14.918,0,0,0-2.357-.71,16.773,16.773,0,0,0-4.132-.412c-4.136.12-8.233-5.732-9.856-8.35a.865.865,0,0,0-1.55-.008c-10.09,16,7.128,27.117,12.546,29.091a9.52,9.52,0,0,1,5.3,5.586,14.424,14.424,0,0,1,.543,8.877l-.006.027-.492,1.9a14.918,14.918,0,0,0-2.357-.71,16.773,16.773,0,0,0-4.132-.412c-4.136.12-8.233-5.732-9.856-8.35a.865.865,0,0,0-1.55-.008c-10.09,16,7.128,27.117,12.546,29.091a9.52,9.52,0,0,1,5.3,5.586,14.424,14.424,0,0,1,.543,8.877l-.006.027-.492,1.9a14.918,14.918,0,0,0-2.357-.71,16.773,16.773,0,0,0-4.132-.412c-4.136.12-8.233-5.732-9.856-8.35a.865.865,0,0,0-1.55-.008c-10.09,16,7.128,27.117,12.546,29.091a9.52,9.52,0,0,1,5.3,5.586,14.424,14.424,0,0,1,.543,8.877l-.006.027-.492,1.9a14.918,14.918,0,0,0-2.357-.71,16.773,16.773,0,0,0-4.132-.412c-4.136.12-8.233-5.732-9.856-8.35a.865.865,0,0,0-1.55-.008,19.459,19.459,0,0,0-2.919,7.432,19.435,19.435,0,0,0-6.273-5,.866.866,0,0,0-1.338.784c-.093,3.08-.707,10.2-4.346,12.169a16.719,16.719,0,0,0-3.378,2.44,14.868,14.868,0,0,0-1.788,1.934l-.781-.765c-.231-.235-.45-.481-.665-.732a14.407,14.407,0,0,1-3.31-7.225c-.414-2.922-.239-6.45,1.317-8.312,3.7-4.424,13.029-22.682-3.711-31.47a.866.866,0,0,0-1.338.785C235.488,155.627,234.874,162.747,231.235,164.716Zm-20.415-9.261a15,15,0,0,0-2.242-.444,30.8,30.8,0,0,1-3.683-.567,5.489,5.489,0,0,1-3.925-2.784,3.35,3.35,0,0,1-.591-1.627,3.965,3.965,0,0,1,.6-2.538,3.043,3.043,0,0,1,1.3-1.218,2.66,2.66,0,0,1,1.7-.5,3.469,3.469,0,0,1,2.2.749l.254.26-.051-.531a3.706,3.706,0,0,1,5.792-3.266,5.944,5.944,0,0,1,1.993,3.254c.247,1.45-.059,2.841-1.175,5.346a21.07,21.07,0,0,0-1.346,4.1C211.659,155.985,211.658,155.731,210.82,155.455Zm-18-31.177a15,15,0,0,0-2.242-.444,30.8,30.8,0,0,1-3.683-.567,5.489,5.489,0,0,1-3.925-2.784,3.35,3.35,0,0,1-.591-1.627,3.968,3.968,0,0,1,.6-2.538,3.043,3.043,0,0,1,1.3-1.218,2.66,2.66,0,0,1,1.7-.5,3.475,3.475,0,0,1,2.2.749l.254.26-.051-.531a3.706,3.706,0,0,1,5.792-3.266,5.947,5.947,0,0,1,1.993,3.254c.247,1.45-.059,2.841-1.175,5.346a21.07,21.07,0,0,0-1.346,4.1C193.659,124.808,193.658,124.554,192.82,124.278Zm-18-31.177a14.887,14.887,0,0,0-2.242-.443,30.938,30.938,0,0,1-3.683-.568,5.491,5.491,0,0,1-3.925-2.783,3.353,3.353,0,0,1-.591-1.628,3.968,3.968,0,0,1,.6-2.538,3.036,3.036,0,0,1,1.3-1.217,2.656,2.656,0,0,1,1.7-.5,3.475,3.475,0,0,1,2.2.749l.2-.271a3.706,3.706,0,0,1,5.792-3.265,5.941,5.941,0,0,1,1.993,3.253c.247,1.451-.059,2.841-1.175,5.347a21.047,21.047,0,0,0-1.346,4.1C175.659,93.631,175.658,93.377,174.82,93.1ZM161.271,79.488l0,.006.532,1.917-2.428.574a16.746,16.746,0,0,0-3.753,1.7c-3.338,2.058-9.321-.544-12.249-2.061q6.684-4.692,13.671-8.964A14.5,14.5,0,0,1,161.271,79.488Zm15.964-8.3A16.744,16.744,0,0,0,173.88,73.6a14.959,14.959,0,0,0-1.811,1.956l-.781-.765c-.241-.244-.469-.5-.692-.762a14.4,14.4,0,0,1-3.283-7.195c0-.032-.007-.066-.011-.1q7-3.824,14.259-7.2C181.415,62.831,180.684,69.319,177.235,71.185ZM432.6,81.607c-2.939,1.523-8.89,4.106-12.217,2.06a16.725,16.725,0,0,0-3.772-1.7,15.016,15.016,0,0,0-2.6-.591l.272-1.058c.091-.331.2-.657.314-.981a14.4,14.4,0,0,1,4.589-6.44c.022-.018.047-.034.069-.052Q426.079,77.019,432.6,81.607ZM400.2,92.534a15.087,15.087,0,0,0-.737-2.163,30.462,30.462,0,0,1-1.35-3.474,5.486,5.486,0,0,1,.448-4.79,3.346,3.346,0,0,1,1.114-1.327,3.967,3.967,0,0,1,2.5-.749,3.024,3.024,0,0,1,1.7.513,2.656,2.656,0,0,1,1.282,1.219,3.474,3.474,0,0,1,.454,2.284l.337.041a3.705,3.705,0,0,1,5.723,3.383,5.936,5.936,0,0,1-1.821,3.353c-1.133.939-2.49,1.37-5.217,1.656a21.055,21.055,0,0,0-4.227.886C400.158,93.525,400.377,93.4,400.2,92.534Zm8.816-25.618a14.5,14.5,0,0,1-3.8,7.078l0,0-1.394,1.418L402.1,73.6a16.758,16.758,0,0,0-3.349-2.4c-3.465-1.869-4.194-8.395-4.34-11.676Q401.847,62.993,409.014,66.916Zm-26.816,56.8a15.087,15.087,0,0,0-.737-2.163,30.462,30.462,0,0,1-1.35-3.474,5.488,5.488,0,0,1,.448-4.791,3.349,3.349,0,0,1,1.114-1.326,3.975,3.975,0,0,1,2.5-.75,3.034,3.034,0,0,1,1.7.514,2.652,2.652,0,0,1,1.282,1.219,3.474,3.474,0,0,1,.454,2.284l-.1.35.435-.309a3.705,3.705,0,0,1,5.723,3.383A5.93,5.93,0,0,1,391.847,122c-1.133.94-2.49,1.37-5.217,1.657a21.055,21.055,0,0,0-4.227.886C382.158,124.7,382.377,124.575,382.2,123.711Zm7.178-33.985a9.522,9.522,0,0,1,1.8,7.489,14.422,14.422,0,0,1-3.968,7.96l-.019.02-1.375,1.4a14.969,14.969,0,0,0-1.687-1.793,16.776,16.776,0,0,0-3.373-2.423c-3.641-1.964-4.263-9.081-4.359-12.159a.866.866,0,0,0-1.339-.783c-16.736,8.808-7.386,27.049-3.68,31.467a9.522,9.522,0,0,1,1.8,7.489,14.422,14.422,0,0,1-3.968,7.96l-.019.02-1.375,1.4a14.969,14.969,0,0,0-1.687-1.793,16.737,16.737,0,0,0-3.373-2.423c-3.641-1.964-4.263-9.081-4.359-12.16a.866.866,0,0,0-1.339-.782c-16.736,8.808-7.386,27.049-3.68,31.467a9.522,9.522,0,0,1,1.8,7.489,14.422,14.422,0,0,1-3.968,7.96l-.019.02-1.375,1.4a14.969,14.969,0,0,0-1.687-1.793,16.7,16.7,0,0,0-3.373-2.423c-3.641-1.964-4.263-9.081-4.359-12.16a.865.865,0,0,0-1.339-.782c-16.736,8.808-7.386,27.049-3.68,31.467a9.521,9.521,0,0,1,1.8,7.489,14.425,14.425,0,0,1-3.968,7.96l-.019.02-1.375,1.4a14.969,14.969,0,0,0-1.687-1.793,16.7,16.7,0,0,0-3.373-2.423c-3.641-1.964-4.263-9.081-4.359-12.16a.865.865,0,0,0-1.339-.782,19.486,19.486,0,0,0-6.244,4.977,19.461,19.461,0,0,0-2.931-7.469.866.866,0,0,0-1.551.01c-1.62,2.62-5.712,8.479-9.848,8.366a16.74,16.74,0,0,0-4.145.423,14.934,14.934,0,0,0-2.516.781L293.527,189c-.083-.318-.149-.642-.209-.966a14.409,14.409,0,0,1,.745-7.912c1.1-2.738,3.018-5.706,5.3-6.539,5.416-1.982,22.625-13.129,12.521-29.11a.866.866,0,0,0-1.551.01c-1.62,2.62-5.712,8.479-9.848,8.366a16.74,16.74,0,0,0-4.145.423,14.934,14.934,0,0,0-2.516.781L293.527,153c-.083-.318-.149-.642-.209-.966a14.409,14.409,0,0,1,.745-7.912c1.1-2.738,3.018-5.706,5.3-6.539,5.416-1.982,22.625-13.129,12.521-29.11a.866.866,0,0,0-1.551.01c-1.62,2.62-5.712,8.479-9.848,8.366a16.74,16.74,0,0,0-4.145.423,14.934,14.934,0,0,0-2.516.781L293.527,117c-.083-.318-.149-.642-.209-.966a14.409,14.409,0,0,1,.745-7.912c1.1-2.738,3.018-5.706,5.3-6.539,5.416-1.982,22.625-13.129,12.521-29.11a.866.866,0,0,0-1.551.01c-1.62,2.62-5.712,8.479-9.848,8.366a16.74,16.74,0,0,0-4.145.423,14.934,14.934,0,0,0-2.516.781L293.527,81c-.083-.318-.149-.642-.209-.966a14.409,14.409,0,0,1,.745-7.912c1.1-2.738,3.018-5.706,5.3-6.539,5.337-1.953,22.1-12.809,12.927-28.415a250.369,250.369,0,0,1,80.161,21.437C376.575,67.536,385.717,85.364,389.376,89.726ZM364.2,154.887a15.17,15.17,0,0,0-.737-2.163,30.473,30.473,0,0,1-1.35-3.473,5.488,5.488,0,0,1,.448-4.791,3.349,3.349,0,0,1,1.114-1.326,3.969,3.969,0,0,1,2.5-.75,3.034,3.034,0,0,1,1.7.514,2.652,2.652,0,0,1,1.282,1.219,3.474,3.474,0,0,1,.454,2.284l-.1.35.435-.309a3.705,3.705,0,0,1,5.723,3.383,5.933,5.933,0,0,1-1.821,3.352c-1.133.94-2.49,1.37-5.217,1.656a21.03,21.03,0,0,0-4.227.887C364.158,155.879,364.377,155.752,364.2,154.887Zm-18,31.177a15.17,15.17,0,0,0-.737-2.163,30.473,30.473,0,0,1-1.35-3.473,5.488,5.488,0,0,1,.448-4.791,3.349,3.349,0,0,1,1.114-1.326,3.969,3.969,0,0,1,2.5-.75,3.034,3.034,0,0,1,1.7.514,2.647,2.647,0,0,1,1.282,1.219,3.474,3.474,0,0,1,.454,2.284l-.1.35.435-.309A3.705,3.705,0,0,1,357.668,181a5.936,5.936,0,0,1-1.821,3.352c-1.133.939-2.49,1.37-5.217,1.656a21.03,21.03,0,0,0-4.227.887C346.158,187.056,346.377,186.929,346.2,186.064Zm21.193,56.315a3.706,3.706,0,0,1,3.266,5.792,5.944,5.944,0,0,1-3.254,1.993c-1.45.247-2.841-.059-5.346-1.175a21.09,21.09,0,0,0-4.1-1.346c-.293.016-.039.015.238-.823a15.142,15.142,0,0,0,.443-2.242,30.507,30.507,0,0,1,.568-3.683,5.488,5.488,0,0,1,2.783-3.925,3.339,3.339,0,0,1,1.628-.591,3.963,3.963,0,0,1,2.537.6,3.043,3.043,0,0,1,1.218,1.3,2.654,2.654,0,0,1,.5,1.7,3.469,3.469,0,0,1-.749,2.2l-.26.254Zm31.177-18a3.706,3.706,0,0,1,3.266,5.792,5.944,5.944,0,0,1-3.254,1.993c-1.45.247-2.841-.059-5.346-1.175a21.07,21.07,0,0,0-4.1-1.346c-.292.016-.038.015.238-.823a15,15,0,0,0,.444-2.242,30.507,30.507,0,0,1,.568-3.683,5.488,5.488,0,0,1,2.783-3.925,3.339,3.339,0,0,1,1.628-.591,3.963,3.963,0,0,1,2.537.6,3.043,3.043,0,0,1,1.218,1.3,2.66,2.66,0,0,1,.5,1.7,3.469,3.469,0,0,1-.749,2.2l-.26.254Zm-5.8,16.251c4.424,3.7,22.682,13.029,31.47-3.711a.866.866,0,0,0-.785-1.338c-3.079-.093-10.2-.707-12.168-4.346a16.719,16.719,0,0,0-2.44-3.378,14.868,14.868,0,0,0-1.934-1.788l.765-.781c.235-.231.481-.45.732-.665a14.407,14.407,0,0,1,7.225-3.31c2.922-.414,6.45-.239,8.311,1.317,4.425,3.7,22.683,13.029,31.471-3.711a.867.867,0,0,0-.785-1.338c-3.079-.093-10.2-.707-12.168-4.346a16.719,16.719,0,0,0-2.44-3.378,14.868,14.868,0,0,0-1.934-1.788l.765-.781c.234-.231.481-.45.732-.665a14.407,14.407,0,0,1,7.225-3.31c2.922-.414,6.45-.239,8.311,1.317,4.425,3.7,22.683,13.029,31.471-3.711a.867.867,0,0,0-.785-1.338c-3.079-.093-10.2-.707-12.168-4.346a16.719,16.719,0,0,0-2.44-3.378,14.868,14.868,0,0,0-1.934-1.788l.765-.781c.234-.231.481-.45.732-.665a14.407,14.407,0,0,1,7.225-3.31c2.922-.414,6.45-.239,8.311,1.317,4.365,3.65,22.185,12.76,31.1-3.065a250.376,250.376,0,0,1,21.432,80.162c-15.64-9.212-26.487,7.587-28.433,12.93a9.52,9.52,0,0,1-5.586,5.3,14.424,14.424,0,0,1-8.877.543l-.027-.006-1.9-.492a14.918,14.918,0,0,0,.71-2.357,16.773,16.773,0,0,0,.412-4.132c-.12-4.136,5.732-8.233,8.35-9.856a.865.865,0,0,0,.008-1.55c-16-10.09-27.117,7.128-29.091,12.546a9.52,9.52,0,0,1-5.586,5.3,14.424,14.424,0,0,1-8.877.543l-.027-.006-1.9-.492a14.918,14.918,0,0,0,.71-2.357,16.773,16.773,0,0,0,.412-4.132c-.12-4.136,5.732-8.233,8.35-9.856a.865.865,0,0,0,.008-1.55c-16-10.09-27.117,7.128-29.091,12.546a9.52,9.52,0,0,1-5.586,5.3,14.424,14.424,0,0,1-8.877.543l-.027-.006-1.9-.492a14.918,14.918,0,0,0,.71-2.357,16.773,16.773,0,0,0,.412-4.132c-.12-4.136,5.732-8.233,8.35-9.856a.865.865,0,0,0,.008-1.55c-16-10.09-27.117,7.128-29.091,12.546a9.52,9.52,0,0,1-5.586,5.3,14.424,14.424,0,0,1-8.877.543l-.027-.006-1.9-.492a14.918,14.918,0,0,0,.71-2.357,16.773,16.773,0,0,0,.412-4.132c-.12-4.136,5.732-8.233,8.35-9.856a.865.865,0,0,0,.008-1.55,19.459,19.459,0,0,0-7.432-2.919,19.435,19.435,0,0,0,5-6.273.866.866,0,0,0-.784-1.338c-3.08-.093-10.2-.707-12.169-4.346a16.719,16.719,0,0,0-2.44-3.378,14.868,14.868,0,0,0-1.934-1.788l.765-.781c.235-.231.481-.45.732-.665a14.407,14.407,0,0,1,7.225-3.31C387.377,238.9,390.905,239.074,392.767,240.63Zm36.978-34.251a3.706,3.706,0,0,1,3.266,5.792,5.944,5.944,0,0,1-3.254,1.993c-1.45.247-2.841-.059-5.346-1.175a21.07,21.07,0,0,0-4.1-1.346c-.292.016-.038.015.238-.823a15,15,0,0,0,.444-2.242,30.8,30.8,0,0,1,.567-3.683,5.489,5.489,0,0,1,2.784-3.925,3.34,3.34,0,0,1,1.627-.591,3.965,3.965,0,0,1,2.538.6,3.043,3.043,0,0,1,1.218,1.3,2.66,2.66,0,0,1,.5,1.7,3.469,3.469,0,0,1-.749,2.2l-.26.254Zm31.177-18a3.706,3.706,0,0,1,3.266,5.792,5.947,5.947,0,0,1-3.254,1.993c-1.45.247-2.841-.059-5.346-1.175a21.07,21.07,0,0,0-4.1-1.346c-.292.016-.038.015.238-.823a15,15,0,0,0,.444-2.242,30.8,30.8,0,0,1,.567-3.683,5.491,5.491,0,0,1,2.783-3.925,3.346,3.346,0,0,1,1.628-.591,3.968,3.968,0,0,1,2.538.6,3.043,3.043,0,0,1,1.218,1.3,2.66,2.66,0,0,1,.5,1.7,3.475,3.475,0,0,1-.749,2.2l-.26.254Zm42.419-31.333a14.5,14.5,0,0,1-6.829,4.225l-.006,0-1.917.531-.574-2.427a16.746,16.746,0,0,0-1.7-3.753c-2.058-3.338.544-9.321,2.061-12.249Q499.069,150.059,503.341,157.046Zm35.69,152.979c-2.791-1.787-7.989-5.644-7.882-9.543a16.725,16.725,0,0,0-.416-4.114,14.991,14.991,0,0,0-.788-2.547l1.053-.294c.331-.086.668-.156,1-.218a14.411,14.411,0,0,1,7.873.754c.015.007.031.015.047.021C539.8,299.442,539.488,304.755,539.031,310.025Zm.9-27.75a14.515,14.515,0,0,1-7.987.231l-.006,0-1.926-.5.717-2.389a16.8,16.8,0,0,0,.4-4.1c-.114-3.914,5.117-7.789,7.9-9.57Q539.731,274.043,539.928,282.275ZM516.464,181.561c-3.3-.146-9.783-.877-11.649-4.326a16.744,16.744,0,0,0-2.418-3.355,14.959,14.959,0,0,0-1.956-1.811l.765-.781c.244-.241.5-.469.762-.692a14.4,14.4,0,0,1,7.195-3.283l.1-.011Q513.084,174.3,516.464,181.561Zm-24.388-15.287a2.656,2.656,0,0,1,.5,1.7,3.475,3.475,0,0,1-.749,2.2l.271.2a3.706,3.706,0,0,1,3.265,5.792,5.941,5.941,0,0,1-3.253,1.993c-1.451.247-2.841-.059-5.347-1.175a21.047,21.047,0,0,0-4.1-1.346c-.292.016-.038.015.238-.823a15.014,15.014,0,0,0,.443-2.242,30.938,30.938,0,0,1,.568-3.683,5.491,5.491,0,0,1,2.783-3.925,3.343,3.343,0,0,1,1.628-.591,3.968,3.968,0,0,1,2.538.6A3.036,3.036,0,0,1,492.076,166.274Zm31.489,121.913a3.706,3.706,0,0,1-.068,6.649,5.94,5.94,0,0,1-3.814.1c-1.379-.511-2.431-1.471-4.043-3.69a21.1,21.1,0,0,0-2.88-3.217c-.261-.133-.041-.006.618-.594a15.042,15.042,0,0,0,1.5-1.72,30.566,30.566,0,0,1,2.334-2.906,5.488,5.488,0,0,1,4.372-2.007,3.343,3.343,0,0,1,1.706.3,3.97,3.97,0,0,1,1.9,1.787,3.037,3.037,0,0,1,.406,1.731,2.648,2.648,0,0,1-.415,1.72,3.471,3.471,0,0,1-1.751,1.535Zm-36,0a3.706,3.706,0,0,1-.068,6.649,5.94,5.94,0,0,1-3.814.1c-1.379-.511-2.431-1.471-4.043-3.69a21.1,21.1,0,0,0-2.88-3.217c-.261-.133-.041-.006.618-.594a15.042,15.042,0,0,0,1.5-1.72,30.566,30.566,0,0,1,2.334-2.906,5.488,5.488,0,0,1,4.372-2.007,3.343,3.343,0,0,1,1.706.3,3.97,3.97,0,0,1,1.9,1.787,3.037,3.037,0,0,1,.406,1.731,2.648,2.648,0,0,1-.415,1.72,3.471,3.471,0,0,1-1.751,1.535l-.352.09Zm-36,0a3.706,3.706,0,0,1-.068,6.649,5.94,5.94,0,0,1-3.814.1c-1.379-.511-2.431-1.471-4.043-3.69a21.1,21.1,0,0,0-2.88-3.217c-.261-.133-.041-.006.618-.594a15.042,15.042,0,0,0,1.5-1.72,30.566,30.566,0,0,1,2.334-2.906,5.488,5.488,0,0,1,4.372-2.007,3.343,3.343,0,0,1,1.706.3,3.97,3.97,0,0,1,1.9,1.787,3.037,3.037,0,0,1,.406,1.731,2.648,2.648,0,0,1-.415,1.72,3.471,3.471,0,0,1-1.751,1.535l-.352.09Zm-36,0a3.706,3.706,0,0,1-.068,6.649,5.94,5.94,0,0,1-3.814.1c-1.379-.511-2.431-1.471-4.043-3.69a21.1,21.1,0,0,0-2.88-3.217c-.261-.133-.041-.006.618-.594a15.042,15.042,0,0,0,1.5-1.72,30.566,30.566,0,0,1,2.334-2.906,5.488,5.488,0,0,1,4.372-2.007,3.343,3.343,0,0,1,1.706.3,3.97,3.97,0,0,1,1.9,1.787,3.037,3.037,0,0,1,.406,1.731,2.648,2.648,0,0,1-.415,1.72,3.471,3.471,0,0,1-1.751,1.535l-.352.09ZM379.5,294.836a5.94,5.94,0,0,1-3.814.1c-1.379-.511-2.431-1.471-4.043-3.69a21.1,21.1,0,0,0-2.88-3.217c-.261-.133-.041-.006.618-.594a15.042,15.042,0,0,0,1.5-1.72,30.566,30.566,0,0,1,2.334-2.906,5.488,5.488,0,0,1,4.372-2.007,3.343,3.343,0,0,1,1.706.3,3.97,3.97,0,0,1,1.9,1.787,3.037,3.037,0,0,1,.406,1.731,2.648,2.648,0,0,1-.415,1.72,3.471,3.471,0,0,1-1.751,1.535l-.352.09.485.222A3.706,3.706,0,0,1,379.5,294.836Zm-3.648-30.382a29.635,29.635,0,0,0-9.451,12.2,9.52,9.52,0,0,1-5.586,5.3,14.424,14.424,0,0,1-8.877.543l-1.213-.314a62.5,62.5,0,0,0-5.594-20.7l.193-.2a14.431,14.431,0,0,1,7.957-3.975c2.922-.414,6.45-.239,8.312,1.317A29.673,29.673,0,0,0,375.849,264.454Zm-61.137,80.867a14.437,14.437,0,0,1,3.975,7.957c.414,2.922.239,6.45-1.317,8.312a29.673,29.673,0,0,0-5.824,14.259,29.627,29.627,0,0,0-12.2-9.451,9.52,9.52,0,0,1-5.3-5.586,14.424,14.424,0,0,1-.543-8.877l.314-1.213a62.5,62.5,0,0,0,20.7-5.594ZM289.66,489.183a3.471,3.471,0,0,1-1.535-1.751l-.09-.352-.222.485a3.706,3.706,0,0,1-6.649-.068,5.94,5.94,0,0,1-.1-3.814c.511-1.379,1.471-2.431,3.69-4.043a21.1,21.1,0,0,0,3.217-2.88c.133-.261.006-.041.594.618a15.042,15.042,0,0,0,1.72,1.5,30.566,30.566,0,0,1,2.906,2.334,5.488,5.488,0,0,1,2.007,4.372,3.343,3.343,0,0,1-.3,1.706,3.97,3.97,0,0,1-1.787,1.9,3.037,3.037,0,0,1-1.731.406A2.648,2.648,0,0,1,289.66,489.183Zm3.533,28.033a5.488,5.488,0,0,1,2.007,4.372,3.343,3.343,0,0,1-.3,1.706,3.97,3.97,0,0,1-1.787,1.9,3.037,3.037,0,0,1-1.731.406,2.648,2.648,0,0,1-1.72-.415,3.471,3.471,0,0,1-1.535-1.751l-.312.133a3.706,3.706,0,0,1-6.649-.068,5.94,5.94,0,0,1-.1-3.814c.511-1.379,1.471-2.431,3.69-4.043a21.1,21.1,0,0,0,3.217-2.88c.133-.261.006-.041.594.618a15.042,15.042,0,0,0,1.72,1.5A30.566,30.566,0,0,1,293.193,517.216Zm-3.533-64.033a3.471,3.471,0,0,1-1.535-1.751l-.09-.352-.222.485a3.706,3.706,0,0,1-6.649-.068,5.94,5.94,0,0,1-.1-3.814c.511-1.379,1.471-2.431,3.69-4.043a21.1,21.1,0,0,0,3.217-2.88c.133-.261.006-.041.594.618a15.042,15.042,0,0,0,1.72,1.5,30.566,30.566,0,0,1,2.906,2.334,5.488,5.488,0,0,1,2.007,4.372,3.343,3.343,0,0,1-.3,1.706,3.97,3.97,0,0,1-1.787,1.9,3.037,3.037,0,0,1-1.731.406A2.648,2.648,0,0,1,289.66,453.183Zm0-36a3.471,3.471,0,0,1-1.535-1.751l-.09-.352-.222.485a3.706,3.706,0,0,1-6.649-.068,5.94,5.94,0,0,1-.1-3.814c.511-1.379,1.471-2.431,3.69-4.043a21.1,21.1,0,0,0,3.217-2.88c.133-.261.006-.041.594.618a15.042,15.042,0,0,0,1.72,1.5,30.566,30.566,0,0,1,2.906,2.334,5.488,5.488,0,0,1,2.007,4.372,3.343,3.343,0,0,1-.3,1.706,3.97,3.97,0,0,1-1.787,1.9,3.037,3.037,0,0,1-1.731.406A2.648,2.648,0,0,1,289.66,417.183Zm0-36a3.471,3.471,0,0,1-1.535-1.751l-.09-.352-.222.485a3.706,3.706,0,0,1-6.649-.068,5.94,5.94,0,0,1-.1-3.814c.511-1.379,1.471-2.431,3.69-4.043a21.1,21.1,0,0,0,3.217-2.88c.133-.261.006-.041.594.618a15.042,15.042,0,0,0,1.72,1.5,30.566,30.566,0,0,1,2.906,2.334,5.488,5.488,0,0,1,2.007,4.372,3.343,3.343,0,0,1-.3,1.706,3.97,3.97,0,0,1-1.787,1.9,3.037,3.037,0,0,1-1.731.406A2.648,2.648,0,0,1,289.66,381.183Zm-25.193-5.33a29.638,29.638,0,0,0-5.843-14.287,9.521,9.521,0,0,1-1.8-7.489,14.425,14.425,0,0,1,3.968-7.96l.886-.9a62.5,62.5,0,0,0,20.722,5.522l.073.26a14.442,14.442,0,0,1-.536,8.878c-1.1,2.738-3.018,5.706-5.3,6.539A29.679,29.679,0,0,0,264.467,375.853ZM234,288a54.062,54.062,0,0,1,49.5-53.8v51.934l-36.707,36.708A53.745,53.745,0,0,1,234,288Zm27.288-57.321a14.437,14.437,0,0,1-3.975-7.957c-.414-2.923-.239-6.45,1.317-8.312a29.673,29.673,0,0,0,5.824-14.259,29.627,29.627,0,0,0,12.2,9.451,9.52,9.52,0,0,1,5.3,5.586,14.424,14.424,0,0,1,.543,8.877l-.314,1.213a62.5,62.5,0,0,0-20.7,5.594ZM286.34,86.817a3.471,3.471,0,0,1,1.535,1.751l.09.352.222-.485a3.706,3.706,0,0,1,6.649.068,5.94,5.94,0,0,1,.1,3.814c-.511,1.379-1.471,2.431-3.69,4.043a21.1,21.1,0,0,0-3.217,2.88c-.133.261-.006.041-.594-.618a15.042,15.042,0,0,0-1.72-1.5,30.566,30.566,0,0,1-2.906-2.334,5.488,5.488,0,0,1-2.007-4.372,3.343,3.343,0,0,1,.3-1.706,3.97,3.97,0,0,1,1.787-1.9,3.037,3.037,0,0,1,1.731-.406A2.648,2.648,0,0,1,286.34,86.817Zm-3.533-28.033a5.488,5.488,0,0,1-2.007-4.372,3.343,3.343,0,0,1,.3-1.706,3.97,3.97,0,0,1,1.787-1.9,3.037,3.037,0,0,1,1.731-.406,2.648,2.648,0,0,1,1.72.415,3.471,3.471,0,0,1,1.535,1.751l.312-.133a3.706,3.706,0,0,1,6.649.068,5.94,5.94,0,0,1,.1,3.814c-.511,1.379-1.471,2.431-3.69,4.043a21.1,21.1,0,0,0-3.217,2.88c-.133.261-.006.041-.594-.618a15.042,15.042,0,0,0-1.72-1.5A30.566,30.566,0,0,1,282.807,58.784Zm3.533,64.033a3.471,3.471,0,0,1,1.535,1.751l.09.352.222-.485a3.706,3.706,0,0,1,6.649.068,5.94,5.94,0,0,1,.1,3.814c-.511,1.379-1.471,2.431-3.69,4.043a21.1,21.1,0,0,0-3.217,2.88c-.133.261-.006.041-.594-.618a15.042,15.042,0,0,0-1.72-1.5,30.566,30.566,0,0,1-2.906-2.334,5.488,5.488,0,0,1-2.007-4.372,3.343,3.343,0,0,1,.3-1.706,3.97,3.97,0,0,1,1.787-1.9,3.037,3.037,0,0,1,1.731-.406A2.648,2.648,0,0,1,286.34,122.817Zm0,36a3.471,3.471,0,0,1,1.535,1.751l.09.352.222-.485a3.706,3.706,0,0,1,6.649.068,5.94,5.94,0,0,1,.1,3.814c-.511,1.379-1.471,2.431-3.69,4.043a21.1,21.1,0,0,0-3.217,2.88c-.133.261-.006.041-.594-.618a15.042,15.042,0,0,0-1.72-1.5,30.566,30.566,0,0,1-2.906-2.334,5.488,5.488,0,0,1-2.007-4.372,3.343,3.343,0,0,1,.3-1.706,3.97,3.97,0,0,1,1.787-1.9,3.037,3.037,0,0,1,1.731-.406A2.648,2.648,0,0,1,286.34,158.817Zm0,36a3.471,3.471,0,0,1,1.535,1.751l.09.352.222-.485a3.706,3.706,0,0,1,6.649.068,5.94,5.94,0,0,1,.1,3.814c-.511,1.379-1.471,2.431-3.69,4.043a21.1,21.1,0,0,0-3.217,2.88c-.133.261-.006.041-.594-.618a15.042,15.042,0,0,0-1.72-1.5,30.566,30.566,0,0,1-2.906-2.334,5.488,5.488,0,0,1-2.007-4.372,3.343,3.343,0,0,1,.3-1.706,3.97,3.97,0,0,1,1.787-1.9,3.037,3.037,0,0,1,1.731-.406A2.648,2.648,0,0,1,286.34,194.817Zm25.193,5.33a29.638,29.638,0,0,0,5.843,14.287,9.521,9.521,0,0,1,1.8,7.489,14.425,14.425,0,0,1-3.968,7.96l-.886.9a62.5,62.5,0,0,0-20.722-5.522l-.073-.26a14.442,14.442,0,0,1,.536-8.878c1.1-2.738,3.018-5.706,5.3-6.539A29.679,29.679,0,0,0,311.533,200.147ZM283.5,298.864V341.8a53.752,53.752,0,0,1-30.344-12.59Zm9,42.934V298.864l30.344,30.343A53.743,53.743,0,0,1,292.5,341.8Zm0-55.662V234.2a53.946,53.946,0,0,1,36.707,88.642Zm57.723-47.159a9.52,9.52,0,0,1-2.186,7.387,14.425,14.425,0,0,1-7.416,4.909l-1.238.343a63.5,63.5,0,0,0-15.172-15.122l.075-.288a14.432,14.432,0,0,1,4.9-7.421c2.324-1.819,5.466-3.432,7.857-3.015a29.665,29.665,0,0,0,15.26-2.086A29.639,29.639,0,0,0,350.223,238.977ZM333.945,208.8a3.706,3.706,0,0,1,5.723,3.384,5.936,5.936,0,0,1-1.821,3.352c-1.133.939-2.49,1.37-5.217,1.656a21.129,21.129,0,0,0-4.227.886c-.245.16-.026.033-.205-.832a15.128,15.128,0,0,0-.737-2.163,30.473,30.473,0,0,1-1.35-3.473,5.488,5.488,0,0,1,.448-4.791,3.349,3.349,0,0,1,1.114-1.326,3.969,3.969,0,0,1,2.5-.75,3.034,3.034,0,0,1,1.7.514,2.647,2.647,0,0,1,1.282,1.219,3.473,3.473,0,0,1,.454,2.284l-.1.35ZM310.025,36.969c-1.787,2.791-5.644,7.989-9.543,7.882a16.725,16.725,0,0,0-4.114.416,14.991,14.991,0,0,0-2.547.788L293.527,45c-.086-.331-.156-.668-.218-1.005a14.411,14.411,0,0,1,.754-7.873c.007-.015.015-.031.021-.047C299.442,36.2,304.755,36.512,310.025,36.969Zm-27.519,7.09,0,.006-.5,1.926-2.389-.717a16.8,16.8,0,0,0-4.1-.405c-3.914.114-7.789-5.117-9.57-7.9q8.1-.7,16.328-.9A14.515,14.515,0,0,1,282.506,44.059ZM246.82,217.808a15.142,15.142,0,0,0-2.242-.443,30.507,30.507,0,0,1-3.683-.568,5.488,5.488,0,0,1-3.925-2.783,3.35,3.35,0,0,1-.591-1.628,3.963,3.963,0,0,1,.6-2.537,3.043,3.043,0,0,1,1.3-1.218,2.654,2.654,0,0,1,1.7-.5,3.469,3.469,0,0,1,2.2.749l.254.26-.051-.531a3.706,3.706,0,0,1,5.792-3.266,5.944,5.944,0,0,1,1.993,3.254c.247,1.45-.059,2.841-1.175,5.346a21.09,21.09,0,0,0-1.346,4.1C247.659,218.339,247.658,218.085,246.82,217.808Zm-7.843,7.969a9.52,9.52,0,0,1,7.387,2.186,14.425,14.425,0,0,1,4.909,7.416l.343,1.238a63.5,63.5,0,0,0-15.122,15.172l-.288-.075a14.432,14.432,0,0,1-7.421-4.9c-1.819-2.324-3.432-5.466-3.015-7.857a29.665,29.665,0,0,0-2.086-15.26A29.639,29.639,0,0,0,238.977,225.777Zm-24.543,32.847a9.521,9.521,0,0,1,7.489-1.8,14.425,14.425,0,0,1,7.96,3.968l.9.886a62.5,62.5,0,0,0-5.522,20.722l-.26.073a14.442,14.442,0,0,1-8.878-.536c-2.738-1.1-5.706-3.018-6.539-5.3a29.679,29.679,0,0,0-9.438-12.173A29.638,29.638,0,0,0,214.434,258.624ZM196.706,294.9a3.97,3.97,0,0,1-1.9-1.787,3.037,3.037,0,0,1-.406-1.731,2.648,2.648,0,0,1,.415-1.72,3.471,3.471,0,0,1,1.751-1.535l.352-.09-.485-.222a3.706,3.706,0,0,1,.068-6.649,5.94,5.94,0,0,1,3.814-.1c1.379.511,2.431,1.471,4.043,3.69a21.1,21.1,0,0,0,2.88,3.217c.261.133.041.006-.618.594a15.042,15.042,0,0,0-1.5,1.72,30.566,30.566,0,0,1-2.334,2.906,5.488,5.488,0,0,1-4.372,2.007A3.343,3.343,0,0,1,196.706,294.9Zm-36.271-7.085a3.706,3.706,0,0,1,.068-6.649,5.94,5.94,0,0,1,3.814-.1c1.379.511,2.431,1.471,4.043,3.69a21.1,21.1,0,0,0,2.88,3.217c.261.133.041.006-.618.594a15.042,15.042,0,0,0-1.5,1.72,30.566,30.566,0,0,1-2.334,2.906,5.488,5.488,0,0,1-4.372,2.007,3.343,3.343,0,0,1-1.706-.3,3.97,3.97,0,0,1-1.9-1.787,3.037,3.037,0,0,1-.406-1.731,2.648,2.648,0,0,1,.415-1.72,3.471,3.471,0,0,1,1.751-1.535l.352-.09Zm-36,0a3.706,3.706,0,0,1,.068-6.649,5.94,5.94,0,0,1,3.814-.1c1.379.511,2.431,1.471,4.043,3.69a21.1,21.1,0,0,0,2.88,3.217c.261.133.041.006-.618.594a15.042,15.042,0,0,0-1.5,1.72,30.566,30.566,0,0,1-2.334,2.906,5.488,5.488,0,0,1-4.372,2.007,3.343,3.343,0,0,1-1.706-.3,3.97,3.97,0,0,1-1.9-1.787,3.037,3.037,0,0,1-.406-1.731,2.648,2.648,0,0,1,.415-1.72,3.471,3.471,0,0,1,1.751-1.535l.352-.09Zm-36,0a3.706,3.706,0,0,1,.068-6.649,5.94,5.94,0,0,1,3.814-.1c1.379.511,2.431,1.471,4.043,3.69a21.1,21.1,0,0,0,2.88,3.217c.261.133.041.006-.618.594a15.042,15.042,0,0,0-1.5,1.72,30.566,30.566,0,0,1-2.334,2.906,5.488,5.488,0,0,1-4.372,2.007,3.343,3.343,0,0,1-1.706-.3,3.97,3.97,0,0,1-1.9-1.787,3.037,3.037,0,0,1-.406-1.731,2.648,2.648,0,0,1,.415-1.72,3.471,3.471,0,0,1,1.751-1.535l.352-.09Zm-36,0a3.706,3.706,0,0,1,.068-6.649,5.94,5.94,0,0,1,3.814-.1c1.379.511,2.431,1.471,4.043,3.69a21.1,21.1,0,0,0,2.88,3.217c.261.133.041.006-.618.594a15.042,15.042,0,0,0-1.5,1.72,30.566,30.566,0,0,1-2.334,2.906,5.488,5.488,0,0,1-4.372,2.007,3.343,3.343,0,0,1-1.706-.3,3.97,3.97,0,0,1-1.9-1.787,3.037,3.037,0,0,1-.406-1.731,2.648,2.648,0,0,1,.415-1.72,3.471,3.471,0,0,1,1.751-1.535Zm-16.363,5.912a14.515,14.515,0,0,1,7.987-.231l.006,0,1.926.5-.717,2.389a16.8,16.8,0,0,0-.405,4.1c.114,3.914-5.117,7.789-7.9,9.57Q36.269,301.958,36.072,293.725ZM45,282.473c-.331.086-.668.156-1.005.218a14.411,14.411,0,0,1-7.873-.754c-.015-.007-.031-.015-.047-.021.127-5.358.435-10.671.892-15.941,2.791,1.787,7.989,5.644,7.882,9.543a16.725,16.725,0,0,0,.416,4.114,14.991,14.991,0,0,0,.788,2.547ZM59.525,181.586q3.468-7.433,7.391-14.6a14.5,14.5,0,0,1,7.078,3.8l0,0,1.418,1.394L73.6,173.9a16.758,16.758,0,0,0-2.4,3.349C69.332,180.711,62.806,181.44,59.525,181.586ZM92.534,175.8a15.128,15.128,0,0,0-2.163.737,30.462,30.462,0,0,1-3.474,1.35,5.486,5.486,0,0,1-4.79-.448,3.335,3.335,0,0,1-1.326-1.114,3.962,3.962,0,0,1-.75-2.5,3.024,3.024,0,0,1,.513-1.7,2.656,2.656,0,0,1,1.219-1.282,3.474,3.474,0,0,1,2.284-.454l.041-.337a3.706,3.706,0,0,1,3.383-5.724,5.943,5.943,0,0,1,3.353,1.822c.939,1.133,1.37,2.49,1.656,5.217a21.055,21.055,0,0,0,.886,4.227C93.525,175.842,93.4,175.623,92.534,175.8Zm-33,218.637c3.3.146,9.783.877,11.649,4.326A16.744,16.744,0,0,0,73.6,402.12a14.959,14.959,0,0,0,1.956,1.811l-.765.781c-.244.241-.5.469-.762.692a14.4,14.4,0,0,1-7.195,3.283l-.1.011Q62.915,401.7,59.536,394.439Zm24.388,15.287a2.656,2.656,0,0,1-.5-1.7,3.475,3.475,0,0,1,.749-2.2l-.271-.2a3.706,3.706,0,0,1-3.265-5.792,5.941,5.941,0,0,1,3.253-1.993c1.451-.247,2.841.059,5.347,1.175a21.047,21.047,0,0,0,4.1,1.346c.292-.016.038-.015-.238.823a15.014,15.014,0,0,0-.443,2.242,30.938,30.938,0,0,1-.568,3.683,5.491,5.491,0,0,1-2.783,3.925,3.353,3.353,0,0,1-1.628.591,3.974,3.974,0,0,1-2.538-.6A3.036,3.036,0,0,1,83.924,409.726Zm116.227-98.18a29.633,29.633,0,0,0,9.451-12.2,9.52,9.52,0,0,1,5.586-5.3,14.424,14.424,0,0,1,8.877-.543l1.213.314a62.5,62.5,0,0,0,5.594,20.7l-.193.2a14.437,14.437,0,0,1-7.957,3.975c-2.922.414-6.45.239-8.312-1.317A29.668,29.668,0,0,0,200.151,311.546Zm25.626,25.477a9.52,9.52,0,0,1,2.186-7.387,14.425,14.425,0,0,1,7.416-4.909l1.238-.343a63.5,63.5,0,0,0,15.172,15.122l-.075.288a14.432,14.432,0,0,1-4.9,7.421c-2.324,1.819-5.466,3.432-7.857,3.015a29.665,29.665,0,0,0-15.26,2.086A29.639,29.639,0,0,0,225.777,337.023Zm16.278,30.182a3.706,3.706,0,0,1-5.723-3.384,5.936,5.936,0,0,1,1.821-3.352c1.133-.939,2.49-1.37,5.217-1.656a21.129,21.129,0,0,0,4.227-.886c.245-.16.026-.033.2.832a15.17,15.17,0,0,0,.737,2.163,30.473,30.473,0,0,1,1.35,3.473,5.488,5.488,0,0,1-.448,4.791,3.349,3.349,0,0,1-1.114,1.326,3.969,3.969,0,0,1-2.5.75,3.034,3.034,0,0,1-1.7-.514,2.647,2.647,0,0,1-1.282-1.219,3.474,3.474,0,0,1-.454-2.284l.1-.35Zm23.92,171.826c1.787-2.791,5.644-7.989,9.543-7.882a16.725,16.725,0,0,0,4.114-.416,14.991,14.991,0,0,0,2.547-.788l.294,1.053c.086.331.156.668.218,1a14.411,14.411,0,0,1-.754,7.873c-.007.015-.015.031-.021.047C276.558,539.8,271.245,539.488,265.975,539.031Zm27.519-7.09,0-.006.5-1.926,2.389.717a16.8,16.8,0,0,0,4.1.4c3.914-.114,7.789,5.117,9.57,7.9q-8.1.7-16.328.9A14.515,14.515,0,0,1,293.494,531.941ZM329.18,358.192a15.142,15.142,0,0,0,2.242.443,30.507,30.507,0,0,1,3.683.568,5.488,5.488,0,0,1,3.925,2.783,3.35,3.35,0,0,1,.591,1.628,3.963,3.963,0,0,1-.6,2.537,3.043,3.043,0,0,1-1.3,1.218,2.66,2.66,0,0,1-1.7.5,3.469,3.469,0,0,1-2.2-.749l-.254-.26.051.531a3.706,3.706,0,0,1-5.792,3.266,5.944,5.944,0,0,1-1.993-3.254c-.247-1.45.059-2.841,1.175-5.346a21.09,21.09,0,0,0,1.346-4.1C328.341,357.661,328.342,357.915,329.18,358.192Zm7.843-7.969a9.52,9.52,0,0,1-7.387-2.186,14.425,14.425,0,0,1-4.909-7.416l-.343-1.238a63.5,63.5,0,0,0,15.122-15.172l.288.074a14.44,14.44,0,0,1,7.421,4.9c1.819,2.324,3.432,5.466,3.015,7.857a29.665,29.665,0,0,0,2.086,15.26A29.639,29.639,0,0,0,337.023,350.223Zm24.543-32.847a9.521,9.521,0,0,1-7.489,1.8,14.425,14.425,0,0,1-7.96-3.968l-.9-.886a62.5,62.5,0,0,0,5.522-20.722l.26-.073a14.442,14.442,0,0,1,8.878.536c2.738,1.1,5.706,3.018,6.539,5.3a29.679,29.679,0,0,0,9.438,12.173A29.638,29.638,0,0,0,361.566,317.376Zm154.909,77.038q-3.468,7.433-7.391,14.6a14.5,14.5,0,0,1-7.078-3.8l0,0-1.418-1.394L502.4,402.1a16.758,16.758,0,0,0,2.4-3.349C506.668,395.289,513.194,394.56,516.475,394.414ZM483.466,400.2a15.128,15.128,0,0,0,2.163-.737,30.462,30.462,0,0,1,3.474-1.35,5.486,5.486,0,0,1,4.79.448,3.327,3.327,0,0,1,1.326,1.114,3.962,3.962,0,0,1,.75,2.5,3.024,3.024,0,0,1-.513,1.7,2.656,2.656,0,0,1-1.219,1.282,3.474,3.474,0,0,1-2.284.454l-.041.337a3.705,3.705,0,0,1-3.383,5.723,5.936,5.936,0,0,1-3.353-1.821c-.939-1.133-1.37-2.49-1.656-5.217a21.055,21.055,0,0,0-.886-4.227C482.475,400.158,482.6,400.377,483.466,400.2ZM493.1,141.563c-18.162-.166-19.157,19.813-18.17,25.414a9.524,9.524,0,0,1-2.186,7.387,14.425,14.425,0,0,1-7.416,4.909l-.027.008-1.89.523a14.939,14.939,0,0,0-.564-2.4,16.746,16.746,0,0,0-1.709-3.784c-2.172-3.522.848-10,2.3-12.71a.865.865,0,0,0-.769-1.347c-18.9-.74-19.92,19.732-18.92,25.41a9.52,9.52,0,0,1-2.186,7.387,14.425,14.425,0,0,1-7.416,4.909l-.026.008-1.891.523a14.939,14.939,0,0,0-.564-2.4,16.746,16.746,0,0,0-1.709-3.784c-2.172-3.522.848-10,2.3-12.71a.865.865,0,0,0-.769-1.347c-18.9-.74-19.92,19.732-18.92,25.41a9.52,9.52,0,0,1-2.186,7.387,14.425,14.425,0,0,1-7.416,4.909l-.026.008-1.891.523a14.939,14.939,0,0,0-.564-2.4,16.746,16.746,0,0,0-1.709-3.784c-2.172-3.522.848-10,2.3-12.71a.865.865,0,0,0-.768-1.347c-18.9-.74-19.921,19.732-18.921,25.41a9.52,9.52,0,0,1-2.186,7.387,14.425,14.425,0,0,1-7.416,4.909l-.026.008-1.891.523a14.939,14.939,0,0,0-.564-2.4,16.746,16.746,0,0,0-1.709-3.784c-2.172-3.522.848-10,2.3-12.71a.865.865,0,0,0-.768-1.347,19.471,19.471,0,0,0-7.9,1.188,19.448,19.448,0,0,0,1.2-7.934.867.867,0,0,0-1.348-.767c-2.713,1.46-9.187,4.488-12.711,2.321a16.783,16.783,0,0,0-3.8-1.706,14.981,14.981,0,0,0-2.569-.581l.272-1.059c.087-.317.191-.63.3-.941a14.412,14.412,0,0,1,4.6-6.48c2.324-1.819,5.466-3.432,7.857-3.015,5.681.993,26.158-.057,25.4-18.949a.866.866,0,0,0-1.348-.766c-2.713,1.459-9.187,4.487-12.711,2.32a16.783,16.783,0,0,0-3.8-1.706,14.981,14.981,0,0,0-2.569-.581l.272-1.059c.087-.317.191-.63.3-.941a14.409,14.409,0,0,1,4.6-6.479c2.324-1.82,5.466-3.433,7.857-3.016,5.681.993,26.158-.057,25.4-18.949a.866.866,0,0,0-1.348-.766c-2.713,1.459-9.187,4.487-12.711,2.32a16.783,16.783,0,0,0-3.8-1.706,14.981,14.981,0,0,0-2.569-.581l.272-1.059c.087-.317.191-.63.3-.941a14.409,14.409,0,0,1,4.6-6.479c2.324-1.82,5.466-3.433,7.857-3.015,5.681.992,26.158-.058,25.4-18.95a.866.866,0,0,0-1.348-.766c-2.713,1.459-9.187,4.487-12.711,2.32a16.737,16.737,0,0,0-3.8-1.7,14.984,14.984,0,0,0-2.569-.582l.272-1.059c.087-.317.191-.63.3-.941a14.409,14.409,0,0,1,4.6-6.479c2.324-1.82,5.466-3.433,7.857-3.015,5.6.978,25.555-.041,25.4-18.155A253.414,253.414,0,0,1,493.1,141.563ZM141.563,82.9c-.166,18.162,19.813,19.157,25.414,18.17a9.524,9.524,0,0,1,7.387,2.186,14.425,14.425,0,0,1,4.909,7.416l.008.027.524,1.89a14.926,14.926,0,0,0-2.4.564,16.746,16.746,0,0,0-3.784,1.709c-3.522,2.172-10-.848-12.71-2.3a.865.865,0,0,0-1.347.769c-.74,18.9,19.732,19.92,25.41,18.92a9.52,9.52,0,0,1,7.387,2.186,14.425,14.425,0,0,1,4.909,7.416l.008.026.524,1.891a14.926,14.926,0,0,0-2.4.564,16.746,16.746,0,0,0-3.784,1.709c-3.522,2.172-10-.848-12.71-2.3a.865.865,0,0,0-1.347.769c-.74,18.9,19.732,19.92,25.41,18.92a9.52,9.52,0,0,1,7.387,2.186,14.425,14.425,0,0,1,4.909,7.416l.008.026.524,1.891a14.926,14.926,0,0,0-2.4.564,16.746,16.746,0,0,0-3.784,1.709c-3.522,2.172-10-.848-12.71-2.3a.865.865,0,0,0-1.347.768c-.74,18.9,19.732,19.921,25.41,18.921a9.52,9.52,0,0,1,7.387,2.186,14.425,14.425,0,0,1,4.909,7.416l.008.026.524,1.891a14.926,14.926,0,0,0-2.4.564,16.746,16.746,0,0,0-3.784,1.709c-3.522,2.172-10-.848-12.71-2.3a.865.865,0,0,0-1.347.768,19.471,19.471,0,0,0,1.188,7.9,19.448,19.448,0,0,0-7.934-1.2.867.867,0,0,0-.767,1.348c1.46,2.713,4.488,9.187,2.321,12.711a16.783,16.783,0,0,0-1.706,3.8,14.981,14.981,0,0,0-.581,2.569l-1.059-.272c-.317-.087-.63-.191-.941-.3a14.4,14.4,0,0,1-6.479-4.6c-1.82-2.324-3.433-5.466-3.016-7.857.993-5.681-.057-26.158-18.949-25.4a.866.866,0,0,0-.766,1.348c1.459,2.713,4.487,9.187,2.32,12.711a16.783,16.783,0,0,0-1.706,3.8,14.981,14.981,0,0,0-.581,2.569l-1.059-.272c-.317-.087-.63-.191-.941-.3a14.409,14.409,0,0,1-6.479-4.6c-1.82-2.324-3.433-5.466-3.015-7.857.992-5.681-.058-26.158-18.95-25.4a.866.866,0,0,0-.766,1.348c1.459,2.713,4.487,9.187,2.32,12.711a16.783,16.783,0,0,0-1.706,3.8,14.981,14.981,0,0,0-.581,2.569l-1.059-.272c-.317-.087-.63-.191-.941-.3a14.409,14.409,0,0,1-6.479-4.6c-1.82-2.324-3.433-5.466-3.015-7.857.992-5.681-.058-26.158-18.95-25.4a.866.866,0,0,0-.766,1.348c1.459,2.713,4.487,9.187,2.32,12.711a16.737,16.737,0,0,0-1.7,3.8,14.984,14.984,0,0,0-.582,2.569l-1.059-.272c-.317-.087-.63-.191-.941-.3a14.409,14.409,0,0,1-6.479-4.6c-1.82-2.324-3.433-5.466-3.015-7.857.978-5.6-.041-25.555-18.155-25.4A253.414,253.414,0,0,1,141.563,82.9ZM82.9,434.437c18.162.166,19.157-19.813,18.17-25.414a9.524,9.524,0,0,1,2.186-7.387,14.425,14.425,0,0,1,7.416-4.909l.027-.008,1.89-.524a14.926,14.926,0,0,0,.564,2.4,16.746,16.746,0,0,0,1.709,3.784c2.172,3.522-.848,10-2.3,12.71a.865.865,0,0,0,.769,1.347c18.9.74,19.92-19.732,18.92-25.41a9.52,9.52,0,0,1,2.186-7.387,14.425,14.425,0,0,1,7.416-4.909l.026-.008,1.891-.524a14.926,14.926,0,0,0,.564,2.4,16.746,16.746,0,0,0,1.709,3.784c2.172,3.522-.848,10-2.3,12.71a.865.865,0,0,0,.769,1.347c18.9.74,19.92-19.732,18.92-25.41a9.52,9.52,0,0,1,2.186-7.387,14.425,14.425,0,0,1,7.416-4.909l.026-.008,1.891-.524a14.926,14.926,0,0,0,.564,2.4,16.746,16.746,0,0,0,1.709,3.784c2.172,3.522-.848,10-2.3,12.71a.865.865,0,0,0,.768,1.347c18.9.74,19.921-19.732,18.921-25.41a9.52,9.52,0,0,1,2.186-7.387,14.425,14.425,0,0,1,7.416-4.909l.026-.008,1.891-.524a14.926,14.926,0,0,0,.564,2.4,16.746,16.746,0,0,0,1.709,3.784c2.172,3.522-.848,10-2.3,12.71a.865.865,0,0,0,.768,1.347,19.471,19.471,0,0,0,7.9-1.188,19.448,19.448,0,0,0-1.2,7.934.867.867,0,0,0,1.348.767c2.713-1.46,9.187-4.488,12.711-2.321a16.783,16.783,0,0,0,3.8,1.706,14.981,14.981,0,0,0,2.569.581l-.272,1.059c-.087.317-.191.63-.3.941a14.4,14.4,0,0,1-4.6,6.479c-2.324,1.82-5.466,3.433-7.857,3.016-5.681-.993-26.158.057-25.4,18.949a.866.866,0,0,0,1.348.766c2.713-1.459,9.187-4.487,12.711-2.32a16.783,16.783,0,0,0,3.8,1.706,14.981,14.981,0,0,0,2.569.581l-.272,1.059c-.087.317-.191.63-.3.941a14.409,14.409,0,0,1-4.6,6.479c-2.324,1.82-5.466,3.433-7.857,3.015-5.681-.992-26.158.058-25.4,18.95a.866.866,0,0,0,1.348.766c2.713-1.459,9.187-4.487,12.711-2.32a16.783,16.783,0,0,0,3.8,1.706,14.981,14.981,0,0,0,2.569.581l-.272,1.059c-.087.317-.191.63-.3.941a14.409,14.409,0,0,1-4.6,6.479c-2.324,1.82-5.466,3.433-7.857,3.015-5.681-.992-26.158.058-25.4,18.95a.866.866,0,0,0,1.348.766c2.713-1.459,9.187-4.487,12.711-2.32a16.737,16.737,0,0,0,3.8,1.7,14.984,14.984,0,0,0,2.569.582l-.272,1.059c-.087.317-.191.63-.3.941a14.409,14.409,0,0,1-4.6,6.479c-2.324,1.82-5.466,3.433-7.857,3.015-5.6-.978-25.555.041-25.4,18.155A253.414,253.414,0,0,1,82.9,434.437ZM434.437,493.1c.166-18.162-19.813-19.157-25.414-18.17a9.524,9.524,0,0,1-7.387-2.186,14.425,14.425,0,0,1-4.909-7.416l-.008-.027-.524-1.89a14.926,14.926,0,0,0,2.4-.564,16.746,16.746,0,0,0,3.784-1.709c3.522-2.172,10,.848,12.71,2.3a.865.865,0,0,0,1.347-.769c.74-18.9-19.732-19.92-25.41-18.92a9.52,9.52,0,0,1-7.387-2.186,14.425,14.425,0,0,1-4.909-7.416l-.008-.026-.524-1.891a14.926,14.926,0,0,0,2.4-.564,16.746,16.746,0,0,0,3.784-1.709c3.522-2.172,10,.848,12.71,2.3a.865.865,0,0,0,1.347-.769c.74-18.9-19.732-19.92-25.41-18.92a9.52,9.52,0,0,1-7.387-2.186,14.425,14.425,0,0,1-4.909-7.416l-.008-.026-.524-1.891a14.926,14.926,0,0,0,2.4-.564,16.746,16.746,0,0,0,3.784-1.709c3.522-2.172,10,.848,12.71,2.3a.865.865,0,0,0,1.347-.768c.74-18.9-19.732-19.921-25.41-18.921a9.52,9.52,0,0,1-7.387-2.186,14.425,14.425,0,0,1-4.909-7.416l-.008-.026-.524-1.891a14.926,14.926,0,0,0,2.4-.564,16.746,16.746,0,0,0,3.784-1.709c3.522-2.172,10,.848,12.71,2.3a.865.865,0,0,0,1.347-.768,19.471,19.471,0,0,0-1.188-7.9,19.448,19.448,0,0,0,7.934,1.2.867.867,0,0,0,.767-1.348c-1.46-2.713-4.488-9.187-2.321-12.711a16.783,16.783,0,0,0,1.706-3.8,14.981,14.981,0,0,0,.581-2.569l1.059.271c.317.088.63.192.941.3a14.4,14.4,0,0,1,6.479,4.6c1.82,2.324,3.433,5.466,3.016,7.857-.993,5.681.057,26.158,18.949,25.4a.866.866,0,0,0,.766-1.348c-1.459-2.713-4.487-9.187-2.32-12.711a16.783,16.783,0,0,0,1.706-3.8,14.981,14.981,0,0,0,.581-2.569l1.059.271c.317.088.63.192.941.3a14.409,14.409,0,0,1,6.479,4.6c1.82,2.324,3.433,5.466,3.015,7.857-.992,5.681.058,26.158,18.95,25.4a.866.866,0,0,0,.766-1.348c-1.459-2.713-4.487-9.187-2.32-12.711a16.783,16.783,0,0,0,1.706-3.8,14.981,14.981,0,0,0,.581-2.569l1.059.271c.317.088.63.192.941.3a14.409,14.409,0,0,1,6.479,4.6c1.82,2.324,3.433,5.466,3.015,7.857-.992,5.681.058,26.158,18.95,25.4a.866.866,0,0,0,.766-1.348c-1.459-2.713-4.487-9.187-2.32-12.711a16.737,16.737,0,0,0,1.7-3.8,14.984,14.984,0,0,0,.582-2.569l1.059.271c.317.088.63.192.941.3a14.409,14.409,0,0,1,6.479,4.6c1.82,2.324,3.433,5.466,3.015,7.857-.978,5.6.041,25.554,18.155,25.4A253.414,253.414,0,0,1,434.437,493.1Z" transform="translate(0.5 0.5)"/><rect class="cls-2" x="0.5" y="0.5" width="576" height="576"/></svg>