<svg id="peace_3" data-name="peace 3" xmlns="http://www.w3.org/2000/svg" width="8.014in" height="8.014in" viewBox="0 0 577 577"><defs><style>.cls-1,.cls-2{fill:none;stroke-miterlimit:10;}.cls-1{stroke:blue;}.cls-2{stroke:red;}</style></defs><title>alien-love-worm-v1-layer-3</title><path class="cls-1" d="M478.6,452.858a16.506,16.506,0,0,0-7.124-1.091,82.278,82.278,0,0,0-9.888,1.08,40.093,40.093,0,0,1-6.088.406c-2.354-.134-2.528-.787-2.288-.045a56.224,56.224,0,0,1-.637,11.513c-1.062,6.715-.988,10.467.341,13.829q-4.167,3.609-8.5,7.029a26.034,26.034,0,0,0-8.253-13.727,30.131,30.131,0,0,0-9.5-5.545,12,12,0,0,0,.565-3.21c.454-11.6-4.676-18.594-9.061-22.422a30.11,30.11,0,0,0-9.5-5.544,12.011,12.011,0,0,0,.565-3.211c.454-11.6-4.676-18.594-9.061-22.422a30.11,30.11,0,0,0-9.5-5.544,12,12,0,0,0,.565-3.211,30.733,30.733,0,0,0-1.442-10.954,30.706,30.706,0,0,0,11.007,1.446,11.93,11.93,0,0,0,3.183-.562,30.183,30.183,0,0,0,5.569,9.53c3.832,4.377,10.834,9.5,22.424,9.032a11.938,11.938,0,0,0,3.184-.562,30.183,30.183,0,0,0,5.569,9.53c3.832,4.377,10.834,9.5,22.424,9.032a11.938,11.938,0,0,0,3.184-.562,30.183,30.183,0,0,0,5.569,9.53,26.042,26.042,0,0,0,13.678,8.221Q482.172,448.714,478.6,452.858ZM370.664,526.111a16.44,16.44,0,0,0-5.655-4.547,81.763,81.763,0,0,0-9.1-4.009,40.2,40.2,0,0,1-5.475-2.693c-1.972-1.293-1.8-1.945-1.959-1.183a56.232,56.232,0,0,1-6.308,9.653c-4.287,5.3-6.1,8.585-6.624,12.17q-5.4,1.031-10.874,1.834a26.043,26.043,0,0,0-.278-16.034,30.133,30.133,0,0,0-5.458-9.553,11.98,11.98,0,0,0,2.094-2.5c6.191-9.815,5.247-18.441,3.364-23.949a30.133,30.133,0,0,0-5.458-9.553,11.98,11.98,0,0,0,2.094-2.5c6.191-9.815,5.247-18.441,3.364-23.949a30.133,30.133,0,0,0-5.458-9.553,11.98,11.98,0,0,0,2.094-2.5,30.754,30.754,0,0,0,4.229-10.208,30.7,30.7,0,0,0,8.808,6.756A11.976,11.976,0,0,0,337.1,434.9a30.2,30.2,0,0,0,.058,11.037c1.13,5.708,4.634,13.643,14.9,19.035a11.976,11.976,0,0,0,3.038,1.105,30.2,30.2,0,0,0,.058,11.037c1.13,5.708,4.634,13.643,14.9,19.035a11.976,11.976,0,0,0,3.038,1.1,30.2,30.2,0,0,0,.058,11.037,26.041,26.041,0,0,0,7.784,14Q375.858,524.319,370.664,526.111ZM237.91,528.777a82.036,82.036,0,0,0-5.879-8.024,40.219,40.219,0,0,1-3.4-5.069c-1.06-2.106-.582-2.583-1.1-2a56.234,56.234,0,0,1-10.289,5.205c-6.377,2.449-9.591,4.4-11.839,7.25q-5.227-1.813-10.352-3.838a26.043,26.043,0,0,0,7.811-14.057,30.129,30.129,0,0,0,.049-11,11.974,11.974,0,0,0,3.063-1.116c10.27-5.4,13.765-13.347,14.888-19.058a30.129,30.129,0,0,0,.049-11,11.974,11.974,0,0,0,3.063-1.116c10.27-5.405,13.765-13.347,14.888-19.058a30.129,30.129,0,0,0,.049-11,11.974,11.974,0,0,0,3.063-1.116,30.726,30.726,0,0,0,8.766-6.726,30.7,30.7,0,0,0,4.25,10.255,11.954,11.954,0,0,0,2.079,2.476,30.2,30.2,0,0,0-5.468,9.588c-1.875,5.508-2.809,14.132,3.389,23.936a11.954,11.954,0,0,0,2.079,2.476,30.2,30.2,0,0,0-5.468,9.588c-1.875,5.508-2.809,14.132,3.389,23.936a11.954,11.954,0,0,0,2.079,2.476,30.2,30.2,0,0,0-5.468,9.588,26.033,26.033,0,0,0-.275,15.975q-5.437-.793-10.795-1.819A16.475,16.475,0,0,0,237.91,528.777ZM123.142,478.6a16.506,16.506,0,0,0,1.091-7.124,82.278,82.278,0,0,0-1.08-9.888,40.093,40.093,0,0,1-.406-6.088c.134-2.354.787-2.528.045-2.288a56.224,56.224,0,0,1-11.513-.637c-6.715-1.062-10.467-.988-13.829.341q-3.609-4.167-7.029-8.5a26.034,26.034,0,0,0,13.727-8.253,30.131,30.131,0,0,0,5.545-9.5,12,12,0,0,0,3.21.565c11.6.454,18.594-4.676,22.422-9.061a30.11,30.11,0,0,0,5.544-9.5,12.011,12.011,0,0,0,3.211.565c11.6.454,18.594-4.676,22.422-9.061a30.11,30.11,0,0,0,5.544-9.5,12,12,0,0,0,3.211.565,30.733,30.733,0,0,0,10.954-1.442,30.706,30.706,0,0,0-1.446,11.007,11.93,11.93,0,0,0,.562,3.183,30.183,30.183,0,0,0-9.53,5.569c-4.377,3.832-9.5,10.834-9.032,22.424a11.938,11.938,0,0,0,.562,3.184,30.183,30.183,0,0,0-9.53,5.569c-4.377,3.832-9.5,10.834-9.032,22.424a11.938,11.938,0,0,0,.562,3.184,30.183,30.183,0,0,0-9.53,5.569,26.042,26.042,0,0,0-8.221,13.678Q127.286,482.172,123.142,478.6ZM97.4,123.142a16.506,16.506,0,0,0,7.124,1.091,82.278,82.278,0,0,0,9.888-1.08,40.093,40.093,0,0,1,6.088-.406c2.354.134,2.528.787,2.288.045a56.224,56.224,0,0,1,.637-11.513c1.062-6.715.988-10.467-.341-13.829q4.167-3.609,8.5-7.029a26.034,26.034,0,0,0,8.253,13.727,30.131,30.131,0,0,0,9.5,5.545,12,12,0,0,0-.565,3.21c-.454,11.6,4.676,18.594,9.061,22.422a30.11,30.11,0,0,0,9.5,5.544,12.011,12.011,0,0,0-.565,3.211c-.454,11.6,4.676,18.594,9.061,22.422a30.11,30.11,0,0,0,9.5,5.544,12,12,0,0,0-.565,3.211,30.733,30.733,0,0,0,1.442,10.954,30.727,30.727,0,0,0-11.007-1.447,11.971,11.971,0,0,0-3.183.563,30.183,30.183,0,0,0-5.569-9.53c-3.832-4.377-10.834-9.5-22.424-9.033a11.978,11.978,0,0,0-3.184.563,30.183,30.183,0,0,0-5.569-9.53c-3.832-4.377-10.834-9.5-22.424-9.033a11.978,11.978,0,0,0-3.184.563,30.183,30.183,0,0,0-5.569-9.53,26.042,26.042,0,0,0-13.678-8.221Q93.828,127.286,97.4,123.142ZM205.336,49.889a16.44,16.44,0,0,0,5.655,4.547,81.763,81.763,0,0,0,9.1,4.009,40.2,40.2,0,0,1,5.475,2.693c1.972,1.293,1.8,1.945,1.959,1.183a56.232,56.232,0,0,1,6.308-9.653c4.287-5.3,6.1-8.585,6.624-12.17q5.4-1.03,10.874-1.834a26.043,26.043,0,0,0,.278,16.034,30.133,30.133,0,0,0,5.458,9.553,11.98,11.98,0,0,0-2.094,2.5c-6.191,9.815-5.247,18.441-3.364,23.949a30.133,30.133,0,0,0,5.458,9.553,11.98,11.98,0,0,0-2.094,2.5c-6.191,9.815-5.247,18.441-3.364,23.949a30.133,30.133,0,0,0,5.458,9.553,11.98,11.98,0,0,0-2.094,2.5,30.729,30.729,0,0,0-4.228,10.208,30.721,30.721,0,0,0-8.809-6.756,11.976,11.976,0,0,0-3.038-1.1,30.2,30.2,0,0,0-.058-11.037c-1.13-5.708-4.634-13.643-14.9-19.035a11.976,11.976,0,0,0-3.038-1.105,30.2,30.2,0,0,0-.058-11.037c-1.13-5.708-4.634-13.643-14.9-19.035a11.976,11.976,0,0,0-3.038-1.1,30.2,30.2,0,0,0-.058-11.037,26.041,26.041,0,0,0-7.784-14Q200.143,51.681,205.336,49.889ZM338.09,47.223a82.036,82.036,0,0,0,5.879,8.024,40.219,40.219,0,0,1,3.4,5.069c1.06,2.106.582,2.583,1.1,2a56.234,56.234,0,0,1,10.289-5.2c6.377-2.449,9.591-4.4,11.839-7.25q5.228,1.813,10.352,3.838a26.043,26.043,0,0,0-7.811,14.057,30.129,30.129,0,0,0-.049,11,11.974,11.974,0,0,0-3.063,1.116c-10.27,5.405-13.765,13.347-14.888,19.058a30.129,30.129,0,0,0-.049,11,11.974,11.974,0,0,0-3.063,1.116c-10.27,5.405-13.765,13.347-14.888,19.058a30.129,30.129,0,0,0-.049,11,11.974,11.974,0,0,0-3.063,1.116,30.726,30.726,0,0,0-8.766,6.726,30.7,30.7,0,0,0-4.25-10.255,11.954,11.954,0,0,0-2.079-2.476,30.2,30.2,0,0,0,5.468-9.588c1.875-5.508,2.809-14.132-3.389-23.936a11.954,11.954,0,0,0-2.079-2.476A30.2,30.2,0,0,0,324.4,90.64c1.875-5.508,2.809-14.132-3.389-23.936a11.954,11.954,0,0,0-2.079-2.476A30.2,30.2,0,0,0,324.4,54.64a26.033,26.033,0,0,0,.275-15.975q5.438.794,10.8,1.819A16.475,16.475,0,0,0,338.09,47.223ZM452.858,97.4a16.506,16.506,0,0,0-1.091,7.124,82.278,82.278,0,0,0,1.08,9.888,40.093,40.093,0,0,1,.406,6.088c-.134,2.354-.787,2.528-.045,2.288a56.224,56.224,0,0,1,11.513.637c6.715,1.062,10.467.987,13.829-.341q3.609,4.167,7.029,8.5a26.034,26.034,0,0,0-13.727,8.253,30.131,30.131,0,0,0-5.545,9.5,12,12,0,0,0-3.21-.565c-11.6-.454-18.594,4.676-22.422,9.061a30.11,30.11,0,0,0-5.544,9.5,12.011,12.011,0,0,0-3.211-.565c-11.6-.454-18.594,4.676-22.422,9.061a30.11,30.11,0,0,0-5.544,9.5,12,12,0,0,0-3.211-.565,30.733,30.733,0,0,0-10.954,1.442,30.706,30.706,0,0,0,1.446-11.007,11.93,11.93,0,0,0-.562-3.183,30.183,30.183,0,0,0,9.53-5.569c4.377-3.832,9.5-10.834,9.032-22.424a11.938,11.938,0,0,0-.562-3.184,30.183,30.183,0,0,0,9.53-5.569c4.377-3.832,9.5-10.834,9.032-22.424a11.938,11.938,0,0,0-.562-3.184,30.183,30.183,0,0,0,9.53-5.569,26.042,26.042,0,0,0,8.221-13.678Q448.714,93.828,452.858,97.4Zm73.253,107.934a16.44,16.44,0,0,0-4.547,5.655,81.763,81.763,0,0,0-4.009,9.1,40.2,40.2,0,0,1-2.693,5.475c-1.293,1.972-1.945,1.8-1.183,1.959a56.232,56.232,0,0,1,9.653,6.308c5.3,4.287,8.585,6.1,12.17,6.624q1.031,5.4,1.834,10.874a26.043,26.043,0,0,0-16.034.278,30.133,30.133,0,0,0-9.553,5.458,11.98,11.98,0,0,0-2.5-2.094c-9.815-6.191-18.441-5.247-23.949-3.364a30.133,30.133,0,0,0-9.553,5.458,11.98,11.98,0,0,0-2.5-2.094c-9.815-6.191-18.441-5.247-23.949-3.364a30.133,30.133,0,0,0-9.553,5.458,11.98,11.98,0,0,0-2.5-2.094,30.754,30.754,0,0,0-10.208-4.229,30.7,30.7,0,0,0,6.756-8.808A11.99,11.99,0,0,0,434.9,238.9a30.2,30.2,0,0,0,11.037-.058c5.708-1.13,13.643-4.634,19.035-14.9a11.99,11.99,0,0,0,1.105-3.038,30.2,30.2,0,0,0,11.037-.058c5.708-1.13,13.643-4.634,19.035-14.9a11.99,11.99,0,0,0,1.1-3.038,30.2,30.2,0,0,0,11.037-.058,26.041,26.041,0,0,0,14-7.784Q524.319,200.143,526.111,205.336Zm-2.546,82.851a3.706,3.706,0,0,1-.068,6.649,5.94,5.94,0,0,1-3.814.1c-1.379-.511-2.431-1.471-4.043-3.69a21.1,21.1,0,0,0-2.88-3.217c-.261-.133-.041-.006.618-.594a15.042,15.042,0,0,0,1.5-1.72,30.566,30.566,0,0,1,2.334-2.906,5.488,5.488,0,0,1,4.372-2.007,3.343,3.343,0,0,1,1.706.3,3.97,3.97,0,0,1,1.9,1.787,3.037,3.037,0,0,1,.406,1.731,2.648,2.648,0,0,1-.415,1.72,3.471,3.471,0,0,1-1.751,1.535Zm-36,0a3.706,3.706,0,0,1-.068,6.649,5.94,5.94,0,0,1-3.814.1c-1.379-.511-2.431-1.471-4.043-3.69a21.1,21.1,0,0,0-2.88-3.217c-.261-.133-.041-.006.618-.594a15.042,15.042,0,0,0,1.5-1.72,30.566,30.566,0,0,1,2.334-2.906,5.488,5.488,0,0,1,4.372-2.007,3.343,3.343,0,0,1,1.706.3,3.97,3.97,0,0,1,1.9,1.787,3.037,3.037,0,0,1,.406,1.731,2.648,2.648,0,0,1-.415,1.72,3.471,3.471,0,0,1-1.751,1.535l-.352.09ZM387.621,460.922a3.706,3.706,0,0,1-5.792,3.265,5.941,5.941,0,0,1-1.993-3.253c-.247-1.45.059-2.841,1.175-5.346a21.07,21.07,0,0,0,1.346-4.1c-.016-.292-.015-.038.823.238a15,15,0,0,0,2.242.444,30.8,30.8,0,0,1,3.683.567,5.491,5.491,0,0,1,3.925,2.783,3.353,3.353,0,0,1,.591,1.628,3.968,3.968,0,0,1-.6,2.538,3.036,3.036,0,0,1-1.3,1.217,2.656,2.656,0,0,1-1.7.5,3.475,3.475,0,0,1-2.2-.749l-.254-.26ZM203.327,372.8c-.067.025-.128.056-.194.081.028-.074.063-.142.09-.217.025.008.051.011.075.019C203.31,372.717,203.315,372.758,203.327,372.8Zm-15.272,87.939a3.705,3.705,0,0,1-5.723-3.383A5.936,5.936,0,0,1,184.153,454c1.133-.939,2.49-1.369,5.217-1.656a21.055,21.055,0,0,0,4.227-.886c.245-.159.026-.032.2.832a15.087,15.087,0,0,0,.737,2.163,30.462,30.462,0,0,1,1.35,3.474,5.486,5.486,0,0,1-.448,4.79,3.346,3.346,0,0,1-1.114,1.327,3.967,3.967,0,0,1-2.5.749,3.024,3.024,0,0,1-1.7-.513,2.656,2.656,0,0,1-1.282-1.219,3.474,3.474,0,0,1-.454-2.284l.1-.35Zm.324-345.657a3.706,3.706,0,0,1,5.792-3.266,5.947,5.947,0,0,1,1.993,3.254c.247,1.45-.059,2.841-1.175,5.346a21.07,21.07,0,0,0-1.346,4.1c.016.292.015.038-.823-.238a15,15,0,0,0-2.242-.444,30.8,30.8,0,0,1-3.683-.567,5.489,5.489,0,0,1-3.925-2.784,3.35,3.35,0,0,1-.591-1.627,3.968,3.968,0,0,1,.6-2.538,3.043,3.043,0,0,1,1.3-1.218,2.66,2.66,0,0,1,1.7-.5,3.475,3.475,0,0,1,2.2.749l.254.26ZM372.673,203.2c.067-.025.128-.056.194-.081-.028.074-.063.142-.09.217-.025-.008-.051-.011-.075-.019C372.69,203.283,372.685,203.242,372.673,203.2Zm15.272-87.939a3.705,3.705,0,0,1,5.723,3.383A5.93,5.93,0,0,1,391.847,122c-1.133.94-2.49,1.37-5.217,1.657a21.055,21.055,0,0,0-4.227.886c-.245.159-.026.032-.205-.832a15.087,15.087,0,0,0-.737-2.163,30.462,30.462,0,0,1-1.35-3.474,5.488,5.488,0,0,1,.448-4.791,3.349,3.349,0,0,1,1.114-1.326,3.975,3.975,0,0,1,2.5-.75,3.034,3.034,0,0,1,1.7.514,2.652,2.652,0,0,1,1.282,1.219,3.474,3.474,0,0,1,.454,2.284l-.1.35Zm-37.088,155.8,2.059-2.1a3.7,3.7,0,0,1,1.876-.961,8.239,8.239,0,0,1,1.166-.086c.591.429,1.26.875,1.98,1.326-.523.988-.967,1.921-1.312,2.752a3.755,3.755,0,0,1-1.985.051Zm2.878,32.906a3.7,3.7,0,0,1,2.106.106,8.382,8.382,0,0,1,1.053.508c.3.667.653,1.389,1.052,2.139-.948.594-1.8,1.18-2.513,1.727a3.751,3.751,0,0,1-1.745-.949l-2.787-2.74Zm-30.444-10.212c-.812.307-.633-1.086-1.319-1.418-1.03-.505-2.209,1.006-3.036,2.306A13.865,13.865,0,0,0,317.6,297.6a11.007,11.007,0,0,1-1.161,2.368,2.53,2.53,0,0,1-1.353.9,1.848,1.848,0,0,1-1.336-.137c-1.108-.579-1.225-1.362-.935-1.771.255-.418.989-.506,1.674.513.994-1.134-.516-2.859-2.042-3.221a3.319,3.319,0,0,0-2.773.523,3.675,3.675,0,0,0-1.431,2.031,4.16,4.16,0,0,0,.066,1.514,7.761,7.761,0,0,0,.7,1.823,11.657,11.657,0,0,0,.9,1.411L292.5,286.136V255.2a7.284,7.284,0,0,0,2.151,1.862A13.865,13.865,0,0,0,297.6,258.4a11.007,11.007,0,0,1,2.368,1.161,2.53,2.53,0,0,1,.9,1.353,1.848,1.848,0,0,1-.137,1.336c-.579,1.108-1.362,1.225-1.771.935-.418-.255-.506-.989.513-1.674-1.134-.994-2.859.516-3.221,2.042a3.319,3.319,0,0,0,.523,2.773,3.675,3.675,0,0,0,2.031,1.431,4.16,4.16,0,0,0,1.514-.066,7.761,7.761,0,0,0,1.823-.7,7.941,7.941,0,0,0,3.3-2.924,13.814,13.814,0,0,0,.892-3.011c.276-1.131.6-2.185,1.322-2.384.849-.254,1.415.816,1.549,1.635.4,2.578-1.531,4.327-2.031,6.6a6.646,6.646,0,0,0-.161,1.735,10.863,10.863,0,0,0,.239,1.717,3.841,3.841,0,0,0,1.821,2.513,5.141,5.141,0,0,0,1.89.451,10.6,10.6,0,0,0,2.319.011c1.608-.168,3.215-.669,3.894-1.8a3.44,3.44,0,0,0,.416-1.534,5.411,5.411,0,0,0-.025-.931,5.249,5.249,0,0,0-.251-.9c-.46-1.161-1.273-2.2-2.51-2.062,1.5,1.171.88,2.292-.048,2.57-.955.289-2.149-.092-2.422-1.812-.191-1.339,1.322-2.5,2.578-2.746a2.1,2.1,0,0,1,1.281.378,37,37,0,0,1,6.086,10.347c.195.512.377,1.03.549,1.55a.492.492,0,0,0,0,.113,2.8,2.8,0,0,0,.261.733,37.3,37.3,0,0,1,.965,3.9,2.025,2.025,0,0,1-3.111-.462c-.224-.683.711.021.774-.33a1.9,1.9,0,0,0-3.106.094,3.535,3.535,0,0,0-.771,1.644,4.1,4.1,0,0,0,.182,1.876,5.06,5.06,0,0,0,1.211,1.656,5.442,5.442,0,0,0,1.852,1.266c.827.306,2.228-.285,2.963.075a2.062,2.062,0,0,1,.655.491c.008.5.011,1.006,0,1.509,0,.186-.02.371-.028.557-.557.965-1.5,1.929-1.99,2.808A2.261,2.261,0,0,0,323.291,293.763Zm-7.6,15.432c-.045.007-.085,0-.128.007l-4.11-4.109a5.416,5.416,0,0,0,.478.339,13.814,13.814,0,0,0,3.011.892c1.131.276,2.185.595,2.384,1.322C317.583,308.5,316.513,309.061,315.694,309.2Zm-20.046,12.516a1.9,1.9,0,0,0-.094-3.106,3.535,3.535,0,0,0-1.644-.771,3.018,3.018,0,0,0-.93-.02,3.586,3.586,0,0,0-.48.063V298.864l10.5,10.5a5.851,5.851,0,0,0-.324,1.591,10.6,10.6,0,0,0-.011,2.319c.168,1.608.669,3.215,1.8,3.894a3.44,3.44,0,0,0,1.534.416,5.411,5.411,0,0,0,.931-.025,5.249,5.249,0,0,0,.9-.251,3.657,3.657,0,0,0,1.79-1.322l.957.957a37.042,37.042,0,0,1-9.422,5.33q-.768.292-1.55.549a.492.492,0,0,0-.113,0,2.8,2.8,0,0,0-.733.261,37.3,37.3,0,0,1-3.9.965,2.025,2.025,0,0,1,.462-3.111C296,320.713,295.3,321.648,295.648,321.711Zm11.659-8.04,1.819,1.819a1.179,1.179,0,0,1-1.8-.742A1.9,1.9,0,0,1,307.307,313.671Zm-27.551-1.221a3.319,3.319,0,0,0-.523-2.773,3.682,3.682,0,0,0-2.031-1.432,4.184,4.184,0,0,0-1.514.067,7.761,7.761,0,0,0-1.823.7,11.73,11.73,0,0,0-1.408.9L283.5,298.864V320.8a7.283,7.283,0,0,0-2.151-1.862A13.865,13.865,0,0,0,278.4,317.6a11.007,11.007,0,0,1-2.368-1.161,2.53,2.53,0,0,1-.9-1.353,1.848,1.848,0,0,1,.137-1.336c.579-1.108,1.362-1.225,1.771-.936.418.256.506.99-.513,1.675C277.669,315.486,279.394,313.976,279.756,312.45ZM266.638,303a5.851,5.851,0,0,0-1.591-.324,10.6,10.6,0,0,0-2.319-.011c-1.608.168-3.215.669-3.894,1.8a3.44,3.44,0,0,0-.416,1.534,5.411,5.411,0,0,0,.025.931,5.249,5.249,0,0,0,.251.9,3.657,3.657,0,0,0,1.322,1.79l-.957.957a37.042,37.042,0,0,1-5.33-9.422c-.2-.512-.377-1.03-.549-1.55a.492.492,0,0,0,0-.113,2.8,2.8,0,0,0-.261-.733,37.3,37.3,0,0,1-.965-3.9,2.025,2.025,0,0,1,3.111.462c.224.683-.711-.021-.774.33a1.9,1.9,0,0,0,3.106-.094,3.535,3.535,0,0,0,.771-1.644,4.1,4.1,0,0,0-.182-1.876,5.06,5.06,0,0,0-1.211-1.656,5.442,5.442,0,0,0-1.852-1.266c-.827-.306-2.228.285-2.962-.075a2.056,2.056,0,0,1-.656-.491c-.008-.5-.011-1.006,0-1.509,0-.186.02-.371.028-.557.557-.965,1.5-1.929,1.99-2.808a2.261,2.261,0,0,0-.615-1.435c.812-.307.633,1.086,1.319,1.418,1.03.505,2.209-1.007,3.036-2.306A13.865,13.865,0,0,0,258.4,278.4a11.007,11.007,0,0,1,1.161-2.368,2.53,2.53,0,0,1,1.353-.9,1.848,1.848,0,0,1,1.336.137c1.108.579,1.225,1.362.936,1.771-.256.418-.99.506-1.675-.513-.994,1.134.516,2.859,2.042,3.221a3.319,3.319,0,0,0,2.773-.523,3.682,3.682,0,0,0,1.432-2.031,4.184,4.184,0,0,0-.067-1.514,7.761,7.761,0,0,0-.7-1.823,7.941,7.941,0,0,0-2.924-3.3,13.814,13.814,0,0,0-3.011-.892c-1.131-.276-2.185-.6-2.384-1.322-.254-.849.816-1.415,1.635-1.549,2.578-.4,4.327,1.531,6.6,2.031a6.646,6.646,0,0,0,1.735.161,10.863,10.863,0,0,0,1.717-.239,3.839,3.839,0,0,0,2.513-1.821,5.141,5.141,0,0,0,.451-1.89,10.6,10.6,0,0,0,.011-2.319c-.168-1.608-.669-3.215-1.8-3.894a3.44,3.44,0,0,0-1.534-.416,5.411,5.411,0,0,0-.931.025,5.249,5.249,0,0,0-.9.251c-1.161.46-2.2,1.273-2.062,2.51,1.171-1.5,2.292-.88,2.57.048.289.955-.092,2.149-1.812,2.422-1.339.191-2.5-1.322-2.746-2.578a2.1,2.1,0,0,1,.378-1.281,37,37,0,0,1,10.347-6.086c.512-.2,1.03-.377,1.55-.549a.492.492,0,0,0,.113,0,2.8,2.8,0,0,0,.733-.261,37.3,37.3,0,0,1,3.9-.965,2.025,2.025,0,0,1-.462,3.111c-.683.224.021-.711-.33-.774a1.9,1.9,0,0,0,.094,3.106,3.535,3.535,0,0,0,1.644.771,3.018,3.018,0,0,0,.93.02,3.586,3.586,0,0,0,.48-.063v28.013Zm4.268,8.46a5.36,5.36,0,0,0-.338.475,13.814,13.814,0,0,0-.892,3.011c-.276,1.131-.595,2.185-1.322,2.384-.849.254-1.415-.816-1.549-1.635-.007-.045,0-.084-.007-.128Zm-8.577-4.152-1.818,1.819a1.178,1.178,0,0,1,.741-1.8A1.9,1.9,0,0,1,262.329,307.307Zm-40.064-35.282a3.7,3.7,0,0,1-2.106-.106,8.382,8.382,0,0,1-1.053-.508c-.3-.667-.653-1.389-1.052-2.139.948-.594,1.8-1.18,2.513-1.727a3.751,3.751,0,0,1,1.745.949l2.787,2.74ZM219.374,304a3.755,3.755,0,0,1,1.985-.051l3.784.98-2.059,2.1a3.7,3.7,0,0,1-1.876.961,8.239,8.239,0,0,1-1.166.086c-.591-.429-1.26-.875-1.98-1.326C218.585,305.766,219.029,304.833,219.374,304Zm119.817-67.213c.042,1.118.124,2.148.24,3.04a3.743,3.743,0,0,1-1.694,1.036l-3.767,1.044.732-2.85a3.692,3.692,0,0,1,1.145-1.77,8.342,8.342,0,0,1,.966-.658C337.539,236.707,338.343,236.759,339.191,236.789Zm-35.216-14.524a3.7,3.7,0,0,1,.106-2.106,8.382,8.382,0,0,1,.508-1.053c.667-.3,1.389-.653,2.139-1.052.594.948,1.18,1.8,1.727,2.513a3.751,3.751,0,0,1-.949,1.745l-2.74,2.787Zm14.956-50.037c.043-.051.082-.1.124-.156.012.074.021.147.034.222-.025,0-.05.015-.075.021C318.985,172.288,318.96,172.255,318.931,172.228ZM281.1,88.706a3.97,3.97,0,0,1,1.787-1.9,3.037,3.037,0,0,1,1.731-.406,2.648,2.648,0,0,1,1.72.415,3.471,3.471,0,0,1,1.535,1.751l.09.352.222-.485a3.706,3.706,0,0,1,6.649.068,5.94,5.94,0,0,1,.1,3.814c-.511,1.379-1.471,2.431-3.69,4.043a21.1,21.1,0,0,0-3.217,2.88c-.133.261-.006.041-.594-.618a15.042,15.042,0,0,0-1.72-1.5,30.566,30.566,0,0,1-2.906-2.334,5.488,5.488,0,0,1-2.007-4.372A3.343,3.343,0,0,1,281.1,88.706Zm-.3-34.294a3.343,3.343,0,0,1,.3-1.706,3.97,3.97,0,0,1,1.787-1.9,3.037,3.037,0,0,1,1.731-.406,2.648,2.648,0,0,1,1.72.415,3.471,3.471,0,0,1,1.535,1.751l.312-.133a3.706,3.706,0,0,1,6.649.068,5.94,5.94,0,0,1,.1,3.814c-.511,1.379-1.471,2.431-3.69,4.043a21.1,21.1,0,0,0-3.217,2.88c-.133.261-.006.041-.594-.618a15.042,15.042,0,0,0-1.72-1.5,30.566,30.566,0,0,1-2.906-2.334A5.488,5.488,0,0,1,280.8,54.412Zm-11.554,163.65c.988.523,1.921.967,2.752,1.312a3.755,3.755,0,0,1,.051,1.985l-.98,3.784-2.1-2.059a3.7,3.7,0,0,1-.961-1.876,8.239,8.239,0,0,1-.086-1.166C268.349,219.451,268.8,218.782,269.246,218.062ZM256.9,172.273c.011-.066.018-.131.029-.2.048.058.092.117.14.175-.019.017-.034.038-.053.056C256.978,172.3,256.94,172.282,256.9,172.273ZM239.059,241.3a3.692,3.692,0,0,1-1.77-1.145,8.342,8.342,0,0,1-.658-.966c.076-.726.128-1.53.158-2.378,1.118-.042,2.148-.124,3.04-.24a3.743,3.743,0,0,1,1.036,1.694l1.044,3.767Zm-35.738-38c-.038.012-.079.017-.117.029-.025-.067-.056-.128-.081-.194.074.028.142.063.217.09C203.332,203.248,203.329,203.274,203.321,203.3ZM172.251,318.93c.017.019.038.034.056.053-.009.039-.025.077-.034.116-.066-.011-.131-.018-.2-.029C172.134,319.022,172.193,318.978,172.251,318.93Zm-.179-61.985c.074-.012.147-.021.222-.034,0,.025.015.05.021.075-.027.029-.06.054-.087.083C172.177,257.026,172.124,256.987,172.072,256.945Zm64.737,82.266c-.042-1.118-.124-2.148-.24-3.04a3.743,3.743,0,0,1,1.694-1.036l3.767-1.044-.732,2.85a3.692,3.692,0,0,1-1.145,1.77,8.342,8.342,0,0,1-.966.658C238.461,339.293,237.657,339.241,236.809,339.211Zm35.216,14.524a3.7,3.7,0,0,1-.106,2.106,8.382,8.382,0,0,1-.508,1.053c-.667.3-1.389.653-2.139,1.052-.594-.948-1.18-1.8-1.727-2.513a3.751,3.751,0,0,1,.949-1.745l2.74-2.787Zm-14.956,50.037c-.043.051-.082.1-.124.156-.012-.074-.021-.147-.034-.222.025,0,.05-.015.075-.021C257.015,403.712,257.04,403.745,257.069,403.772ZM294.9,487.294a3.97,3.97,0,0,1-1.787,1.9,3.037,3.037,0,0,1-1.731.406,2.648,2.648,0,0,1-1.72-.415,3.471,3.471,0,0,1-1.535-1.751l-.09-.352-.222.485a3.706,3.706,0,0,1-6.649-.068,5.94,5.94,0,0,1-.1-3.814c.511-1.379,1.471-2.431,3.69-4.043a21.1,21.1,0,0,0,3.217-2.88c.133-.261.006-.041.594.618a15.042,15.042,0,0,0,1.72,1.5,30.566,30.566,0,0,1,2.906,2.334,5.488,5.488,0,0,1,2.007,4.372A3.343,3.343,0,0,1,294.9,487.294Zm.3,34.294a3.343,3.343,0,0,1-.3,1.706,3.97,3.97,0,0,1-1.787,1.9,3.037,3.037,0,0,1-1.731.406,2.648,2.648,0,0,1-1.72-.415,3.471,3.471,0,0,1-1.535-1.751l-.312.133a3.706,3.706,0,0,1-6.649-.068,5.94,5.94,0,0,1-.1-3.814c.511-1.379,1.471-2.431,3.69-4.043a21.1,21.1,0,0,0,3.217-2.88c.133-.261.006-.041.594.618a15.042,15.042,0,0,0,1.72,1.5,30.566,30.566,0,0,1,2.906,2.334A5.488,5.488,0,0,1,295.2,521.588Zm11.554-163.65c-.988-.523-1.921-.967-2.752-1.312a3.755,3.755,0,0,1-.051-1.985l.98-3.784,2.1,2.059a3.7,3.7,0,0,1,.961,1.876,8.239,8.239,0,0,1,.086,1.166C307.651,356.549,307.205,357.218,306.754,357.938ZM319.1,403.727c-.011.066-.018.131-.029.2-.048-.058-.092-.117-.14-.175.019-.017.034-.038.053-.056C319.022,403.7,319.06,403.718,319.1,403.727ZM336.941,334.7a3.692,3.692,0,0,1,1.77,1.145,8.257,8.257,0,0,1,.658.966c-.076.726-.128,1.53-.158,2.378-1.118.042-2.148.124-3.04.24a3.743,3.743,0,0,1-1.036-1.694l-1.044-3.767Zm35.738,38c.038-.012.079-.017.117-.029.025.067.056.128.081.194-.074-.028-.142-.063-.217-.09C372.668,372.752,372.671,372.726,372.679,372.7Zm31.093-53.771c.051.043.1.082.156.124-.074.012-.147.021-.222.034,0-.025-.015-.05-.021-.075C403.712,318.985,403.745,318.96,403.772,318.931Zm-.079-61.914c.009-.039.025-.077.034-.116.066.011.131.018.2.029-.058.048-.117.092-.175.14C403.732,257.051,403.711,257.036,403.693,257.017Zm57.229-68.638a3.706,3.706,0,0,1,3.266,5.792,5.947,5.947,0,0,1-3.254,1.993c-1.45.247-2.841-.059-5.346-1.175a21.07,21.07,0,0,0-4.1-1.346c-.292.016-.038.015.238-.823a15,15,0,0,0,.444-2.242,30.8,30.8,0,0,1,.567-3.683,5.491,5.491,0,0,1,2.783-3.925,3.346,3.346,0,0,1,1.628-.591,3.968,3.968,0,0,1,2.538.6,3.043,3.043,0,0,1,1.218,1.3,2.66,2.66,0,0,1,.5,1.7,3.475,3.475,0,0,1-.749,2.2l-.26.254Zm31.177-18a3.706,3.706,0,0,1,3.265,5.792,5.941,5.941,0,0,1-3.253,1.993c-1.451.247-2.841-.059-5.347-1.175a21.047,21.047,0,0,0-4.1-1.346c-.292.016-.038.015.238-.823a15.014,15.014,0,0,0,.443-2.242,30.938,30.938,0,0,1,.568-3.683,5.491,5.491,0,0,1,2.783-3.925,3.343,3.343,0,0,1,1.628-.591,3.968,3.968,0,0,1,2.538.6,3.036,3.036,0,0,1,1.217,1.3,2.656,2.656,0,0,1,.5,1.7,3.475,3.475,0,0,1-.749,2.2ZM405.945,84.088a3.705,3.705,0,0,1,5.723,3.383,5.936,5.936,0,0,1-1.821,3.353c-1.133.939-2.49,1.37-5.217,1.656a21.055,21.055,0,0,0-4.227.886c-.245.159-.026.032-.205-.832a15.087,15.087,0,0,0-.737-2.163,30.462,30.462,0,0,1-1.35-3.474,5.486,5.486,0,0,1,.448-4.79,3.346,3.346,0,0,1,1.114-1.327,3.967,3.967,0,0,1,2.5-.749,3.024,3.024,0,0,1,1.7.513,2.656,2.656,0,0,1,1.282,1.219,3.474,3.474,0,0,1,.454,2.284ZM174.82,93.1a14.887,14.887,0,0,0-2.242-.443,30.938,30.938,0,0,1-3.683-.568,5.491,5.491,0,0,1-3.925-2.783,3.353,3.353,0,0,1-.591-1.628,3.968,3.968,0,0,1,.6-2.538,3.036,3.036,0,0,1,1.3-1.217,2.656,2.656,0,0,1,1.7-.5,3.475,3.475,0,0,1,2.2.749l.2-.271a3.706,3.706,0,0,1,5.792-3.265,5.941,5.941,0,0,1,1.993,3.253c.247,1.451-.059,2.841-1.175,5.347a21.047,21.047,0,0,0-1.346,4.1C175.659,93.631,175.658,93.377,174.82,93.1Zm-59.555,94.954a3.706,3.706,0,0,1,3.383-5.724A5.938,5.938,0,0,1,122,184.153c.94,1.133,1.37,2.49,1.657,5.217a21.055,21.055,0,0,0,.886,4.227c.159.245.032.026-.832.2a15.087,15.087,0,0,0-2.163.737,30.462,30.462,0,0,1-3.474,1.35,5.486,5.486,0,0,1-4.79-.448,3.346,3.346,0,0,1-1.327-1.114,3.975,3.975,0,0,1-.75-2.5,3.034,3.034,0,0,1,.514-1.7,2.652,2.652,0,0,1,1.219-1.282,3.474,3.474,0,0,1,2.284-.454l.35.1ZM87.471,164.331a5.943,5.943,0,0,1,3.353,1.822c.939,1.133,1.37,2.49,1.656,5.217a21.055,21.055,0,0,0,.886,4.227c.159.245.032.026-.832.2a15.128,15.128,0,0,0-2.163.737,30.462,30.462,0,0,1-3.474,1.35,5.486,5.486,0,0,1-4.79-.448,3.335,3.335,0,0,1-1.326-1.114,3.962,3.962,0,0,1-.75-2.5,3.024,3.024,0,0,1,.513-1.7,2.656,2.656,0,0,1,1.219-1.282,3.474,3.474,0,0,1,2.284-.454l.041-.337A3.706,3.706,0,0,1,87.471,164.331ZM67.76,202.862a30.129,30.129,0,0,0,11,.049,11.974,11.974,0,0,0,1.116,3.063c5.405,10.27,13.347,13.765,19.058,14.888a30.129,30.129,0,0,0,11,.049,11.974,11.974,0,0,0,1.116,3.063c5.405,10.27,13.347,13.765,19.058,14.888a30.129,30.129,0,0,0,11,.049,11.974,11.974,0,0,0,1.116,3.063,30.726,30.726,0,0,0,6.726,8.766,30.7,30.7,0,0,0-10.255,4.25,11.954,11.954,0,0,0-2.476,2.079,30.2,30.2,0,0,0-9.588-5.468c-5.508-1.875-14.132-2.809-23.936,3.389a11.954,11.954,0,0,0-2.476,2.079A30.2,30.2,0,0,0,90.64,251.6c-5.508-1.875-14.132-2.809-23.936,3.389a11.954,11.954,0,0,0-2.476,2.079A30.2,30.2,0,0,0,54.64,251.6a26.033,26.033,0,0,0-15.975-.275q.794-5.437,1.819-10.795a16.475,16.475,0,0,0,6.739-2.621,82.036,82.036,0,0,0,8.024-5.879,40.219,40.219,0,0,1,5.069-3.4c2.106-1.06,2.583-.582,2-1.1a56.234,56.234,0,0,1-5.2-10.289c-2.449-6.377-4.4-9.591-7.25-11.839q1.813-5.227,3.838-10.352A26.043,26.043,0,0,0,67.76,202.862Zm20.675,84.951a3.706,3.706,0,0,1,.068-6.649,5.94,5.94,0,0,1,3.814-.1c1.379.511,2.431,1.471,4.043,3.69a21.1,21.1,0,0,0,2.88,3.217c.261.133.041.006-.618.594a15.042,15.042,0,0,0-1.5,1.72,30.566,30.566,0,0,1-2.334,2.906,5.488,5.488,0,0,1-4.372,2.007,3.343,3.343,0,0,1-1.706-.3,3.97,3.97,0,0,1-1.9-1.787,3.037,3.037,0,0,1-.406-1.731,2.648,2.648,0,0,1,.415-1.72,3.471,3.471,0,0,1,1.751-1.535l.352-.09Zm-36,0a3.706,3.706,0,0,1,.068-6.649,5.94,5.94,0,0,1,3.814-.1c1.379.511,2.431,1.471,4.043,3.69a21.1,21.1,0,0,0,2.88,3.217c.261.133.041.006-.618.594a15.042,15.042,0,0,0-1.5,1.72,30.566,30.566,0,0,1-2.334,2.906,5.488,5.488,0,0,1-4.372,2.007,3.343,3.343,0,0,1-1.706-.3,3.97,3.97,0,0,1-1.9-1.787,3.037,3.037,0,0,1-.406-1.731,2.648,2.648,0,0,1,.415-1.72,3.471,3.471,0,0,1,1.751-1.535Zm-2.546,82.851a16.44,16.44,0,0,0,4.547-5.655,81.763,81.763,0,0,0,4.009-9.1,40.2,40.2,0,0,1,2.693-5.475c1.293-1.972,1.945-1.8,1.183-1.959a56.232,56.232,0,0,1-9.653-6.308c-5.3-4.287-8.585-6.1-12.17-6.624q-1.03-5.4-1.834-10.874a26.043,26.043,0,0,0,16.034-.278,30.133,30.133,0,0,0,9.553-5.458,11.98,11.98,0,0,0,2.5,2.094c9.815,6.191,18.441,5.247,23.949,3.364a30.133,30.133,0,0,0,9.553-5.458,11.98,11.98,0,0,0,2.5,2.094c9.815,6.191,18.441,5.247,23.949,3.364a30.133,30.133,0,0,0,9.553-5.458,11.98,11.98,0,0,0,2.5,2.094,30.754,30.754,0,0,0,10.208,4.229,30.7,30.7,0,0,0-6.756,8.808,11.976,11.976,0,0,0-1.1,3.038,30.2,30.2,0,0,0-11.037.058c-5.708,1.13-13.643,4.634-19.035,14.9a11.976,11.976,0,0,0-1.105,3.038,30.2,30.2,0,0,0-11.037.058c-5.708,1.13-13.643,4.634-19.035,14.9a11.976,11.976,0,0,0-1.1,3.038,30.2,30.2,0,0,0-11.037.058,26.041,26.041,0,0,0-14,7.784Q51.681,375.858,49.889,370.664Zm65.189,16.957a3.706,3.706,0,0,1-3.266-5.792,5.947,5.947,0,0,1,3.254-1.993c1.45-.247,2.841.059,5.346,1.175a21.07,21.07,0,0,0,4.1,1.346c.292-.016.038-.015-.238.823a15,15,0,0,0-.444,2.242,30.8,30.8,0,0,1-.567,3.683,5.491,5.491,0,0,1-2.783,3.925,3.356,3.356,0,0,1-1.628.591,3.974,3.974,0,0,1-2.538-.6,3.043,3.043,0,0,1-1.218-1.3,2.66,2.66,0,0,1-.5-1.7,3.475,3.475,0,0,1,.749-2.2l.26-.254Zm-31.177,18a3.706,3.706,0,0,1-3.265-5.792,5.941,5.941,0,0,1,3.253-1.993c1.451-.247,2.841.059,5.347,1.175a21.047,21.047,0,0,0,4.1,1.346c.292-.016.038-.015-.238.823a15.014,15.014,0,0,0-.443,2.242,30.938,30.938,0,0,1-.568,3.683,5.491,5.491,0,0,1-2.783,3.925,3.353,3.353,0,0,1-1.628.591,3.974,3.974,0,0,1-2.538-.6,3.036,3.036,0,0,1-1.217-1.3,2.656,2.656,0,0,1-.5-1.7,3.475,3.475,0,0,1,.749-2.2Zm86.154,86.291a3.705,3.705,0,0,1-5.723-3.383,5.936,5.936,0,0,1,1.821-3.353c1.133-.939,2.49-1.37,5.217-1.656a21.055,21.055,0,0,0,4.227-.886c.245-.159.026-.032.2.832a15.128,15.128,0,0,0,.737,2.163,30.462,30.462,0,0,1,1.35,3.474,5.486,5.486,0,0,1-.448,4.79,3.335,3.335,0,0,1-1.114,1.326,3.962,3.962,0,0,1-2.5.75,3.024,3.024,0,0,1-1.7-.513,2.656,2.656,0,0,1-1.282-1.219,3.475,3.475,0,0,1-.454-2.284ZM401.18,482.9a15.014,15.014,0,0,0,2.242.443,30.938,30.938,0,0,1,3.683.568,5.491,5.491,0,0,1,3.925,2.783,3.353,3.353,0,0,1,.591,1.628,3.968,3.968,0,0,1-.6,2.538,3.036,3.036,0,0,1-1.3,1.217,2.656,2.656,0,0,1-1.7.5,3.475,3.475,0,0,1-2.2-.749l-.2.271a3.706,3.706,0,0,1-5.792,3.265,5.941,5.941,0,0,1-1.993-3.253c-.247-1.451.059-2.841,1.175-5.347a21.069,21.069,0,0,0,1.346-4.1C400.341,482.369,400.342,482.623,401.18,482.9Zm59.555-94.954a3.705,3.705,0,0,1-3.383,5.723A5.93,5.93,0,0,1,454,391.847c-.94-1.133-1.37-2.49-1.657-5.217a21.055,21.055,0,0,0-.886-4.227c-.159-.245-.032-.026.832-.205a15.087,15.087,0,0,0,2.163-.737,30.462,30.462,0,0,1,3.474-1.35,5.486,5.486,0,0,1,4.79.448,3.338,3.338,0,0,1,1.327,1.114,3.975,3.975,0,0,1,.75,2.5,3.034,3.034,0,0,1-.514,1.7,2.652,2.652,0,0,1-1.219,1.282,3.474,3.474,0,0,1-2.284.454l-.35-.1Zm27.794,23.723a5.936,5.936,0,0,1-3.353-1.821c-.939-1.133-1.37-2.49-1.656-5.217a21.055,21.055,0,0,0-.886-4.227c-.159-.245-.032-.026.832-.205a15.128,15.128,0,0,0,2.163-.737,30.462,30.462,0,0,1,3.474-1.35,5.486,5.486,0,0,1,4.79.448,3.327,3.327,0,0,1,1.326,1.114,3.962,3.962,0,0,1,.75,2.5,3.024,3.024,0,0,1-.513,1.7,2.656,2.656,0,0,1-1.219,1.282,3.474,3.474,0,0,1-2.284.454l-.041.337A3.705,3.705,0,0,1,488.529,411.668Zm19.711-38.53a30.129,30.129,0,0,0-11-.049,11.974,11.974,0,0,0-1.116-3.063c-5.4-10.27-13.347-13.765-19.058-14.888a30.129,30.129,0,0,0-11-.049,11.974,11.974,0,0,0-1.116-3.063c-5.405-10.27-13.347-13.765-19.058-14.888a30.129,30.129,0,0,0-11-.049,11.974,11.974,0,0,0-1.116-3.063,30.726,30.726,0,0,0-6.726-8.766,30.7,30.7,0,0,0,10.255-4.25,11.954,11.954,0,0,0,2.476-2.079,30.2,30.2,0,0,0,9.588,5.468c5.508,1.875,14.132,2.809,23.936-3.389a11.954,11.954,0,0,0,2.476-2.079,30.2,30.2,0,0,0,9.588,5.468c5.508,1.875,14.132,2.809,23.936-3.389a11.954,11.954,0,0,0,2.476-2.079,30.2,30.2,0,0,0,9.588,5.468,26.033,26.033,0,0,0,15.975.275q-.793,5.438-1.819,10.8a16.475,16.475,0,0,0-6.739,2.621,82.036,82.036,0,0,0-8.024,5.879,40.219,40.219,0,0,1-5.069,3.4c-2.106,1.06-2.583.582-2,1.1a56.234,56.234,0,0,1,5.205,10.289c2.449,6.377,4.4,9.591,7.25,11.839q-1.813,5.228-3.838,10.352A26.043,26.043,0,0,0,508.24,373.138Z" transform="translate(0.5 0.5)"/><rect class="cls-2" x="0.5" y="0.5" width="576" height="576"/></svg>